<svg id="Capa_1" enable-background="new 0 0 512 512" height="512" viewBox="0 0 512 512" width="512" xmlns="http://www.w3.org/2000/svg"><g><path d="m406.406 512h-300.812c-17.069 0-30.905-13.837-30.905-30.905v-450.19c-.001-17.068 13.836-30.905 30.905-30.905h300.813c17.069 0 30.905 13.837 30.905 30.905v450.189c0 17.069-13.837 30.906-30.906 30.906z" fill="#f3eae6"/><path d="m406.406 0h-4.145c2.631 4.547 4.145 9.821 4.145 15.453v182.024c0 165.172-133.899 299.071-299.071 299.071h-28.502c5.344 9.234 15.323 15.452 26.761 15.452h300.813c17.069 0 30.905-13.837 30.905-30.905v-450.19c0-17.068-13.837-30.905-30.906-30.905z" fill="#e1d3ce"/><path d="m406.406 512-43.409-15.453-49.213 15.453h-208.19c-17.069 0-30.905-13.837-30.905-30.905v-40.842h362.624v40.842c-.001 17.068-13.838 30.905-30.907 30.905z" fill="#aca6d6"/><path d="m437.31 30.91v450.18c0 17.07-13.83 30.91-30.9 30.91h-300.82c-11.43 0-21.41-6.22-26.76-15.45h28.51c65.2 0 125.54-20.87 174.68-56.3 75.34-54.3 124.39-142.81 124.39-242.77v-182.03c0-5.63-1.52-10.9-4.15-15.45h4.15c17.07 0 30.9 13.84 30.9 30.91z" fill="#e1d3ce"/><path d="m437.31 440.25v40.84c0 17.07-13.83 30.91-30.9 30.91l-43.41-15.45-49.22 15.45h-208.19c-11.43 0-21.41-6.22-26.76-15.45h28.51c65.2 0 125.54-20.87 174.68-56.3z" fill="#978ecb"/><path d="m437.312 92.716h-362.624v-61.811c0-17.068 13.837-30.905 30.906-30.905h300.813c17.069 0 30.905 13.837 30.905 30.905z" fill="#aca6d6"/><path d="m406.406 0h-4.145c2.631 4.547 4.145 9.821 4.145 15.453v77.264h30.905v-61.812c.001-17.068-13.836-30.905-30.905-30.905z" fill="#978ecb"/><path d="m105.594 0c-17.069 0-30.906 13.837-30.906 30.905v61.811h128.624v-92.716z" fill="#978ecb"/><g fill="#faf7f7"><path d="m406.406 512h-92.622v-33.63c0-3.983 3.229-7.211 7.211-7.211h78.199c3.983 0 7.211 3.229 7.211 7.211v33.63z"/><path d="m296.028 55.63v-18.544c0-3.414 2.767-6.181 6.181-6.181h98.016c3.414 0 6.181 2.767 6.181 6.181v18.544c0 3.414-2.767 6.181-6.181 6.181h-98.016c-3.413 0-6.181-2.768-6.181-6.181z"/><ellipse cx="249.67" cy="46.358" rx="15.453" ry="15.453" transform="matrix(.707 -.707 .707 .707 40.347 190.121)"/></g><g><g><g><path d="m172.406 38.632h-66.813c-4.267 0-7.726-3.459-7.726-7.726s3.459-7.726 7.726-7.726h66.813c4.267 0 7.726 3.459 7.726 7.726s-3.458 7.726-7.726 7.726z" fill="#faf7f7"/></g></g><g><g><path d="m172.406 69.537h-66.813c-4.267 0-7.726-3.459-7.726-7.726s3.459-7.726 7.726-7.726h66.813c4.267 0 7.726 3.459 7.726 7.726s-3.458 7.726-7.726 7.726z" fill="#faf7f7"/></g></g></g><g><circle cx="256" cy="266.485" fill="#b3dafe" r="112.203"/><circle cx="256" cy="266.485" fill="#8ac9fe" r="81.298"/><g><g><path d="m233.826 273.207c-1.977 0-3.955-.754-5.463-2.263-3.018-3.017-3.018-7.909 0-10.927l28.896-28.897c3.017-3.017 7.909-3.017 10.926 0 3.018 3.017 3.018 7.91 0 10.927l-28.896 28.897c-1.509 1.508-3.486 2.263-5.463 2.263z" fill="#d8ecfe"/></g><g><path d="m249.278 304.112c-1.977 0-3.955-.754-5.463-2.263-3.018-3.017-3.018-7.909 0-10.927l28.896-28.897c3.017-3.017 7.909-3.017 10.926 0 3.018 3.017 3.018 7.91 0 10.927l-28.896 28.897c-1.508 1.509-3.486 2.263-5.463 2.263z" fill="#d8ecfe"/></g></g></g></g></svg>