<svg id="Capa_1" enable-background="new 0 0 512 512" height="512" viewBox="0 0 512 512" width="512" xmlns="http://www.w3.org/2000/svg"><g><path d="m481.095 512h-450.19c-17.068 0-30.905-13.837-30.905-30.905v-450.19c0-17.068 13.837-30.905 30.905-30.905h450.189c17.069 0 30.906 13.837 30.906 30.905v450.189c0 17.069-13.837 30.906-30.905 30.906z" fill="#f3eae6"/><path d="m481.095 0h-4.145c2.631 4.547 4.145 9.821 4.145 15.453v190.914c0 160.262-129.918 290.181-290.181 290.181h-186.769c5.344 9.234 15.323 15.452 26.76 15.452h450.189c17.069 0 30.906-13.837 30.906-30.905v-450.19c0-17.068-13.837-30.905-30.905-30.905z" fill="#e1d3ce"/><g><path d="m68.782 196.01v-196.01h374.436v196.01c0 103.397-83.82 187.218-187.218 187.218-103.398-.001-187.218-83.821-187.218-187.218z" fill="#b5adb6"/><g><circle cx="256" cy="196.361" fill="#b3dafe" r="155.961"/><path d="m256 63.579c-73.216 0-132.782 59.565-132.782 132.782s59.566 132.782 132.782 132.782 132.782-59.565 132.782-132.782-59.566-132.782-132.782-132.782zm116.266 148.554c-18.325-15.061-41.509-23.498-65.474-23.498h-32.138l22.725-22.725c16.347-16.348 38.622-25.562 61.648-25.645 9.116 16.674 14.303 35.79 14.303 56.096-.001 5.348-.368 10.611-1.064 15.772zm-22.965-86.825c-23.583 2.321-45.919 12.745-62.849 29.676l-22.725 22.725v-32.139c0-23.129 9.241-45.403 25.478-61.745 24.191 7.15 45.149 21.903 60.096 41.483zm-77.53-45.213c-15.061 18.325-23.498 41.509-23.498 65.474v32.138l-22.725-22.725c-16.348-16.348-25.563-38.622-25.645-61.648 16.675-9.116 35.791-14.303 56.096-14.303 5.349.001 10.612.368 15.772 1.064zm-86.824 22.966c2.321 23.584 12.745 45.918 29.676 62.849l22.725 22.725h-32.138c-23.129 0-45.404-9.241-61.745-25.478 7.149-24.192 21.902-45.149 41.482-60.096zm-45.213 77.528c18.325 15.061 41.509 23.498 65.474 23.498h32.138l-22.725 22.725c-16.348 16.348-38.621 25.563-61.648 25.645-9.116-16.675-14.303-35.791-14.303-56.096.001-5.348.368-10.611 1.064-15.772zm22.97 86.832c23.583-2.321 45.915-12.752 62.844-29.682l22.725-22.725v32.138c0 23.129-9.241 45.404-25.478 61.745-24.188-7.149-45.144-21.899-60.091-41.476zm77.525 45.206c15.061-18.325 23.498-41.509 23.498-65.474v-32.138l22.725 22.725c16.348 16.348 25.563 38.622 25.645 61.648-16.675 9.116-35.791 14.303-56.096 14.303-5.349-.001-10.612-.368-15.772-1.064zm86.824-22.966c-2.321-23.584-12.745-45.919-29.676-62.849l-22.725-22.725h32.138c23.129 0 45.404 9.242 61.745 25.478-7.149 24.192-21.902 45.149-41.482 60.096z" fill="#faf7f7"/></g></g><path d="m30.905 512h450.189c17.069 0 30.906-13.837 30.906-30.905v-66.962h-512v66.962c0 17.068 13.837 30.905 30.905 30.905z" fill="#b5adb6"/><path d="m512 30.91v450.18c0 17.07-13.84 30.91-30.91 30.91h-450.18c-11.44 0-21.42-6.22-26.77-15.45h186.77c78.82 0 150.3-31.42 202.59-82.42 54.04-52.71 87.59-126.32 87.59-207.76v-190.92c0-5.63-1.51-10.9-4.14-15.45h4.14c17.07 0 30.91 13.84 30.91 30.91z" fill="#e1d3ce"/><path d="m512 414.13v66.96c0 17.07-13.84 30.91-30.91 30.91h-450.18c-11.44 0-21.42-6.22-26.77-15.45h186.77c78.82 0 150.3-31.42 202.59-82.42z" fill="#a79ba7"/><g fill="#918291"><circle cx="188.467" cy="463.066" r="18.028"/><circle cx="256.571" cy="463.066" r="18.028"/><circle cx="323.533" cy="463.066" r="18.028"/></g></g></svg>