<svg id="Capa_1" enable-background="new 0 0 512 512" height="512" viewBox="0 0 512 512" width="512" xmlns="http://www.w3.org/2000/svg"><g><g fill="#a79ba7"><path d="m286.659 45.905h-61.318v-35.603c0-5.69 4.612-10.302 10.302-10.302h40.715c5.69 0 10.302 4.612 10.302 10.302v35.603z"/><path d="m396.889 45.905h-61.319v-35.603c0-5.69 4.612-10.302 10.302-10.302h40.715c5.69 0 10.302 4.612 10.302 10.302z"/><path d="m176.43 45.905h-61.318v-35.603c-.001-5.69 4.612-10.302 10.301-10.302h40.715c5.689 0 10.302 4.612 10.302 10.302z"/></g><path d="m148.891 512h-40.525c-5.689 0-10.302-4.612-10.302-10.302v-35.604h61.129v35.604c0 5.69-4.612 10.302-10.302 10.302z" fill="#b5adb6"/><path d="m403.634 512h-40.525c-5.689 0-10.302-4.612-10.302-10.302v-35.604h61.129v35.604c0 5.69-4.612 10.302-10.302 10.302z" fill="#b5adb6"/><path d="m408.982 481.095h-305.964c-22.758 0-41.207-18.449-41.207-41.207v-367.775c0-22.758 18.449-41.207 41.207-41.207h305.964c22.758 0 41.207 18.449 41.207 41.207v367.775c0 22.758-18.449 41.207-41.207 41.207z" fill="#b3dafe"/><path d="m410.259 30.938c5.643 7.051 9.025 15.989 9.025 25.722v111.492c0 164.299-133.191 297.49-297.49 297.49h-49.681c-.428 0-.852-.019-1.277-.032 7.551 9.435 19.157 15.485 32.182 15.485h305.964c22.758 0 41.207-18.449 41.207-41.207v-367.775c0-22.33-17.764-40.499-39.93-41.175z" fill="#8ac9fe"/><path d="m450.19 386.32v53.57c0 22.76-18.45 41.2-41.21 41.2h-305.96c-13.01 0-24.62-6.03-32.17-15.45v-.01c0-.01-.01-.01-.01-.02-5.66-7.05-9.03-15.99-9.03-25.72v-53.57z" fill="#b5adb6"/><path d="m450.19 386.32v53.57c0 22.76-18.45 41.2-41.21 41.2h-305.96c-13.01 0-24.62-6.03-32.17-15.45v-.01c0-.01-.01-.01-.01-.02 3.44.1 47.65 0 50.95.03 75.03 0 143.54-27.78 195.87-73.61 2.14-1.86 4.26-3.77 6.35-5.71z" fill="#a79ba7"/><path d="m221.004 233.218h69.992v127.874h-69.992z" fill="#8ac9fe"/><path d="m321.902 386.398h-131.804v-24.857c0-17.069 13.837-30.905 30.905-30.905h69.992c17.069 0 30.905 13.837 30.905 30.905v24.857z" fill="#fff"/><path d="m343.667 249.449-82.105 23.02c-3.638 1.02-7.486 1.02-11.125 0l-82.105-23.02c-13.341-3.74-22.562-15.903-22.562-29.758v-188.786h220.459v188.785c0 13.856-9.221 26.018-22.562 29.759z" fill="#eaf6ff"/><g><g><path d="m334.788 224.064h-.105c-4.267 0-7.726-3.459-7.726-7.726s3.459-7.726 7.726-7.726h.105c4.267 0 7.726 3.459 7.726 7.726.001 4.267-3.459 7.726-7.726 7.726zm-31.494 0h-.105c-4.267 0-7.726-3.459-7.726-7.726s3.459-7.726 7.726-7.726h.105c4.267 0 7.726 3.459 7.726 7.726s-3.459 7.726-7.726 7.726zm-31.495 0h-.105c-4.267 0-7.726-3.459-7.726-7.726s3.459-7.726 7.726-7.726h.105c4.267 0 7.726 3.459 7.726 7.726.001 4.267-3.459 7.726-7.726 7.726zm-31.494 0h-.105c-4.267 0-7.726-3.459-7.726-7.726s3.459-7.726 7.726-7.726h.105c4.267 0 7.726 3.459 7.726 7.726s-3.459 7.726-7.726 7.726zm-31.494 0h-.105c-4.267 0-7.726-3.459-7.726-7.726s3.459-7.726 7.726-7.726h.105c4.267 0 7.726 3.459 7.726 7.726s-3.459 7.726-7.726 7.726zm-31.495 0h-.105c-4.267 0-7.726-3.459-7.726-7.726s3.459-7.726 7.726-7.726h.105c4.267 0 7.726 3.459 7.726 7.726.001 4.267-3.459 7.726-7.726 7.726z" fill="#c4e2ff"/></g></g><g><g><path d="m334.788 177.706h-.105c-4.267 0-7.726-3.459-7.726-7.726s3.459-7.726 7.726-7.726h.105c4.267 0 7.726 3.459 7.726 7.726.001 4.267-3.459 7.726-7.726 7.726zm-31.494 0h-.105c-4.267 0-7.726-3.459-7.726-7.726s3.459-7.726 7.726-7.726h.105c4.267 0 7.726 3.459 7.726 7.726s-3.459 7.726-7.726 7.726zm-31.495 0h-.105c-4.267 0-7.726-3.459-7.726-7.726s3.459-7.726 7.726-7.726h.105c4.267 0 7.726 3.459 7.726 7.726.001 4.267-3.459 7.726-7.726 7.726zm-31.494 0h-.105c-4.267 0-7.726-3.459-7.726-7.726s3.459-7.726 7.726-7.726h.105c4.267 0 7.726 3.459 7.726 7.726s-3.459 7.726-7.726 7.726zm-31.494 0h-.105c-4.267 0-7.726-3.459-7.726-7.726s3.459-7.726 7.726-7.726h.105c4.267 0 7.726 3.459 7.726 7.726s-3.459 7.726-7.726 7.726zm-31.495 0h-.105c-4.267 0-7.726-3.459-7.726-7.726s3.459-7.726 7.726-7.726h.105c4.267 0 7.726 3.459 7.726 7.726.001 4.267-3.459 7.726-7.726 7.726z" fill="#c4e2ff"/></g></g><g><g><path d="m334.788 131.348h-.105c-4.267 0-7.726-3.459-7.726-7.726s3.459-7.726 7.726-7.726h.105c4.267 0 7.726 3.459 7.726 7.726.001 4.267-3.459 7.726-7.726 7.726zm-31.494 0h-.105c-4.267 0-7.726-3.459-7.726-7.726s3.459-7.726 7.726-7.726h.105c4.267 0 7.726 3.459 7.726 7.726s-3.459 7.726-7.726 7.726zm-31.495 0h-.105c-4.267 0-7.726-3.459-7.726-7.726s3.459-7.726 7.726-7.726h.105c4.267 0 7.726 3.459 7.726 7.726.001 4.267-3.459 7.726-7.726 7.726zm-31.494 0h-.105c-4.267 0-7.726-3.459-7.726-7.726s3.459-7.726 7.726-7.726h.105c4.267 0 7.726 3.459 7.726 7.726s-3.459 7.726-7.726 7.726zm-31.494 0h-.105c-4.267 0-7.726-3.459-7.726-7.726s3.459-7.726 7.726-7.726h.105c4.267 0 7.726 3.459 7.726 7.726s-3.459 7.726-7.726 7.726zm-31.495 0h-.105c-4.267 0-7.726-3.459-7.726-7.726s3.459-7.726 7.726-7.726h.105c4.267 0 7.726 3.459 7.726 7.726.001 4.267-3.459 7.726-7.726 7.726z" fill="#c4e2ff"/></g></g><g><g><path d="m334.788 84.99h-.105c-4.267 0-7.726-3.459-7.726-7.726s3.459-7.726 7.726-7.726h.105c4.267 0 7.726 3.459 7.726 7.726.001 4.267-3.459 7.726-7.726 7.726zm-31.494 0h-.105c-4.267 0-7.726-3.459-7.726-7.726s3.459-7.726 7.726-7.726h.105c4.267 0 7.726 3.459 7.726 7.726s-3.459 7.726-7.726 7.726zm-31.495 0h-.105c-4.267 0-7.726-3.459-7.726-7.726s3.459-7.726 7.726-7.726h.105c4.267 0 7.726 3.459 7.726 7.726.001 4.267-3.459 7.726-7.726 7.726zm-31.494 0h-.105c-4.267 0-7.726-3.459-7.726-7.726s3.459-7.726 7.726-7.726h.105c4.267 0 7.726 3.459 7.726 7.726s-3.459 7.726-7.726 7.726zm-31.494 0h-.105c-4.267 0-7.726-3.459-7.726-7.726s3.459-7.726 7.726-7.726h.105c4.267 0 7.726 3.459 7.726 7.726s-3.459 7.726-7.726 7.726zm-31.495 0h-.105c-4.267 0-7.726-3.459-7.726-7.726s3.459-7.726 7.726-7.726h.105c4.267 0 7.726 3.459 7.726 7.726.001 4.267-3.459 7.726-7.726 7.726z" fill="#c4e2ff"/></g></g></g></svg>