<svg id="Capa_1" enable-background="new 0 0 512 512" height="512" viewBox="0 0 512 512" width="512" xmlns="http://www.w3.org/2000/svg"><g><g><path d="m225.095 0h-194.19c-17.068 0-30.905 13.837-30.905 30.905v194.189c0 17.069 13.837 30.906 30.905 30.906h194.189c17.069 0 30.906-13.837 30.906-30.905v-194.19c0-17.068-13.837-30.905-30.905-30.905z" fill="#faf7f7"/><path d="m225.095 0h-4.145c2.631 4.547 4.145 9.821 4.145 15.453v79.967c0 80.152-64.976 145.127-145.127 145.127h-75.823c5.344 9.235 15.323 15.453 26.76 15.453h194.189c17.069 0 30.906-13.837 30.906-30.905v-194.19c0-17.068-13.837-30.905-30.905-30.905z" fill="#f3eae6"/><path d="m30.905 0h194.189c17.069 0 30.906 13.837 30.906 30.905v34.511h-256v-34.511c0-17.068 13.837-30.905 30.905-30.905z" fill="#7acaa6"/><path d="m225.095 0h-4.145c2.631 4.547 4.145 9.821 4.145 15.453v49.964h30.905v-34.512c0-17.068-13.837-30.905-30.905-30.905z" fill="#57be92"/><g><ellipse cx="128" cy="160.708" fill="#b3dafe" rx="64.386" ry="64.386" transform="matrix(.16 -.987 .987 .16 -51.136 261.313)"/><path d="m92.016 152.982h-27.925c-.303 2.535-.478 5.11-.478 7.726 0 2.617.174 5.191.478 7.726h27.924c4.267 0 7.726-3.459 7.726-7.726.001-4.267-3.458-7.726-7.725-7.726z" fill="#8ac9fe"/></g><g><g><path d="m76.641 40.435h-30.283c-4.267 0-7.726-3.459-7.726-7.726s3.459-7.726 7.726-7.726h30.283c4.267 0 7.726 3.459 7.726 7.726.001 4.266-3.458 7.726-7.726 7.726z" fill="#57be92"/></g><g><path d="m143.142 40.435h-30.284c-4.267 0-7.726-3.459-7.726-7.726s3.459-7.726 7.726-7.726h30.284c4.267 0 7.726 3.459 7.726 7.726 0 4.266-3.459 7.726-7.726 7.726z" fill="#57be92"/></g><g><path d="m209.642 40.435h-30.283c-4.267 0-7.726-3.459-7.726-7.726s3.459-7.726 7.726-7.726h30.283c4.267 0 7.726 3.459 7.726 7.726 0 4.266-3.459 7.726-7.726 7.726z" fill="#57be92"/></g></g></g><g><path d="m481.095 0h-194.19c-17.068 0-30.905 13.837-30.905 30.905v194.189c0 17.069 13.837 30.906 30.905 30.906h194.189c17.069 0 30.906-13.837 30.906-30.905v-194.19c0-17.068-13.837-30.905-30.905-30.905z" fill="#faf7f7"/><path d="m481.095 0h-4.145c2.631 4.547 4.145 9.821 4.145 15.453v79.967c0 80.152-64.976 145.127-145.127 145.127h-75.823c5.344 9.235 15.323 15.453 26.76 15.453h194.189c17.069 0 30.906-13.837 30.906-30.905v-194.19c0-17.068-13.837-30.905-30.905-30.905z" fill="#f3eae6"/><path d="m286.905 0h194.189c17.069 0 30.906 13.837 30.906 30.905v34.511h-256v-34.511c0-17.068 13.837-30.905 30.905-30.905z" fill="#f58a97"/><path d="m481.095 0h-4.145c2.631 4.547 4.145 9.821 4.145 15.453v49.964h30.905v-34.512c0-17.068-13.837-30.905-30.905-30.905z" fill="#f07281"/><g><ellipse cx="384" cy="160.708" fill="#b3dafe" rx="64.386" ry="64.386" transform="matrix(.16 -.987 .987 .16 163.857 514.007)"/><g fill="#8ac9fe"><path d="m396.284 97.507c13.017 11.781 21.197 28.809 21.197 47.749 0 35.559-28.827 64.386-64.386 64.386-4.202 0-8.306-.416-12.283-1.184 11.423 10.338 26.569 16.637 43.189 16.637 35.56 0 64.386-28.827 64.386-64.386-.001-31.358-22.421-57.466-52.103-63.202z"/><path d="m348.016 152.982h-27.924c-.303 2.535-.478 5.11-.478 7.726 0 2.617.174 5.191.478 7.726h27.924c4.267 0 7.726-3.459 7.726-7.726s-3.459-7.726-7.726-7.726z"/></g></g><g><g><path d="m332.641 40.435h-30.283c-4.267 0-7.726-3.459-7.726-7.726s3.459-7.726 7.726-7.726h30.283c4.267 0 7.726 3.459 7.726 7.726.001 4.266-3.458 7.726-7.726 7.726z" fill="#f07281"/></g><g><path d="m399.142 40.435h-30.284c-4.267 0-7.726-3.459-7.726-7.726s3.459-7.726 7.726-7.726h30.284c4.267 0 7.726 3.459 7.726 7.726 0 4.266-3.459 7.726-7.726 7.726z" fill="#f07281"/></g><g><path d="m465.642 40.435h-30.283c-4.267 0-7.726-3.459-7.726-7.726s3.459-7.726 7.726-7.726h30.283c4.267 0 7.726 3.459 7.726 7.726 0 4.266-3.459 7.726-7.726 7.726z" fill="#f07281"/></g></g></g><g><path d="m225.095 256h-194.19c-17.068 0-30.905 13.837-30.905 30.905v194.189c0 17.069 13.837 30.906 30.905 30.906h194.189c17.069 0 30.906-13.837 30.906-30.905v-194.19c0-17.068-13.837-30.905-30.905-30.905z" fill="#faf7f7"/><path d="m225.095 256h-4.145c2.631 4.547 4.145 9.821 4.145 15.453v79.967c0 80.151-64.976 145.127-145.127 145.127h-75.823c5.344 9.235 15.323 15.453 26.76 15.453h194.189c17.069 0 30.906-13.837 30.906-30.905v-194.19c0-17.068-13.837-30.905-30.905-30.905z" fill="#f3eae6"/><path d="m30.905 256h194.189c17.069 0 30.906 13.837 30.906 30.905v34.511h-256v-34.511c0-17.068 13.837-30.905 30.905-30.905z" fill="#b5adb6"/><path d="m225.095 256h-4.145c2.631 4.547 4.145 9.821 4.145 15.453v49.964h30.905v-34.511c0-17.069-13.837-30.906-30.905-30.906z" fill="#a79ba7"/><g><ellipse cx="128" cy="416.708" fill="#b3dafe" rx="64.386" ry="64.386" transform="matrix(.16 -.987 .987 .16 -303.831 476.306)"/><g fill="#8ac9fe"><path d="m140.283 353.507c13.017 11.781 21.197 28.809 21.197 47.749 0 35.559-28.827 64.386-64.386 64.386-4.202 0-8.306-.415-12.283-1.184 11.423 10.337 26.569 16.637 43.189 16.637 35.56 0 64.386-28.827 64.386-64.386 0-31.358-22.42-57.467-52.103-63.202z"/><path d="m92.016 408.982h-27.925c-.303 2.535-.478 5.11-.478 7.726 0 2.617.174 5.191.478 7.726h27.924c4.267 0 7.726-3.459 7.726-7.726.001-4.267-3.458-7.726-7.725-7.726z"/></g></g><g><g><path d="m76.641 296.435h-30.283c-4.267 0-7.726-3.459-7.726-7.726s3.459-7.726 7.726-7.726h30.283c4.267 0 7.726 3.459 7.726 7.726.001 4.266-3.458 7.726-7.726 7.726z" fill="#a79ba7"/></g><g><path d="m143.142 296.435h-30.284c-4.267 0-7.726-3.459-7.726-7.726s3.459-7.726 7.726-7.726h30.284c4.267 0 7.726 3.459 7.726 7.726 0 4.266-3.459 7.726-7.726 7.726z" fill="#a79ba7"/></g><g><path d="m209.642 296.435h-30.283c-4.267 0-7.726-3.459-7.726-7.726s3.459-7.726 7.726-7.726h30.283c4.267 0 7.726 3.459 7.726 7.726 0 4.266-3.459 7.726-7.726 7.726z" fill="#a79ba7"/></g></g></g><g><path d="m481.095 256h-194.19c-17.068 0-30.905 13.837-30.905 30.905v194.189c0 17.069 13.837 30.906 30.905 30.906h194.189c17.069 0 30.906-13.837 30.906-30.905v-194.19c0-17.068-13.837-30.905-30.905-30.905z" fill="#faf7f7"/><path d="m481.095 256h-4.145c2.631 4.547 4.145 9.821 4.145 15.453v79.967c0 80.151-64.976 145.127-145.127 145.127h-75.823c5.344 9.235 15.323 15.453 26.76 15.453h194.189c17.069 0 30.906-13.837 30.906-30.905v-194.19c0-17.068-13.837-30.905-30.905-30.905z" fill="#f3eae6"/><path d="m286.905 256h194.189c17.069 0 30.906 13.837 30.906 30.905v34.511h-256v-34.511c0-17.068 13.837-30.905 30.905-30.905z" fill="#aca6d6"/><path d="m481.095 256h-4.145c2.631 4.547 4.145 9.821 4.145 15.453v49.964h30.905v-34.511c0-17.069-13.837-30.906-30.905-30.906z" fill="#978ecb"/><g><ellipse cx="384" cy="416.708" fill="#b3dafe" rx="64.386" ry="64.386" transform="matrix(.16 -.987 .987 .16 -88.837 729.001)"/><g fill="#8ac9fe"><path d="m396.284 353.507c13.017 11.781 21.197 28.809 21.197 47.749 0 35.559-28.827 64.386-64.386 64.386-4.202 0-8.306-.415-12.283-1.184 11.423 10.337 26.569 16.637 43.189 16.637 35.56 0 64.386-28.827 64.386-64.386-.001-31.358-22.421-57.467-52.103-63.202z"/><path d="m348.016 408.982h-27.924c-.303 2.535-.478 5.11-.478 7.726 0 2.617.174 5.191.478 7.726h27.924c4.267 0 7.726-3.459 7.726-7.726s-3.459-7.726-7.726-7.726z"/></g></g><g><g><path d="m332.641 296.435h-30.283c-4.267 0-7.726-3.459-7.726-7.726s3.459-7.726 7.726-7.726h30.283c4.267 0 7.726 3.459 7.726 7.726.001 4.266-3.458 7.726-7.726 7.726z" fill="#978ecb"/></g><g><path d="m399.142 296.435h-30.284c-4.267 0-7.726-3.459-7.726-7.726s3.459-7.726 7.726-7.726h30.284c4.267 0 7.726 3.459 7.726 7.726 0 4.266-3.459 7.726-7.726 7.726z" fill="#978ecb"/></g><g><path d="m465.642 296.435h-30.283c-4.267 0-7.726-3.459-7.726-7.726s3.459-7.726 7.726-7.726h30.283c4.267 0 7.726 3.459 7.726 7.726 0 4.266-3.459 7.726-7.726 7.726z" fill="#978ecb"/></g></g></g></g></svg>