<svg id="Capa_1" enable-background="new 0 0 512 512" height="512" viewBox="0 0 512 512" width="512" xmlns="http://www.w3.org/2000/svg"><g><g><g><path d="m143.776 401.899-131.399-133.63 43.965-96.38c16.315-35.767 63.399-44.073 90.959-16.045l74.264 75.525z" fill="#b3dafe"/><path d="m147.301 155.843c-15.299-15.558-36.609-19.903-55.338-14.587 8.869 2.542 17.305 7.34 24.432 14.587l42.674 43.399c19.027 19.35 24.153 48.428 12.891 73.118l-49.296 108.068 21.112 21.47 77.789-170.53z" fill="#8ac9fe"/><path d="m483.551 183.292-474.92 83.775c-6.368 1.123-10.194 7.711-8.017 13.805l26.606 74.46c18.475 51.705 71.51 82.55 125.545 73.018 54.035-9.532 93.326-56.664 93.011-111.572l-.057-9.889c-.107-18.689 13.266-34.731 31.658-37.975l214.592-37.854c13.181-2.325 21.982-14.904 19.657-28.095-2.323-13.19-14.894-21.999-28.075-19.673z" fill="#f58a97"/></g><g fill="#8ac9fe"><path d="m95.353 196.936c.748 4.245-2.085 8.292-6.328 9.04s-8.289-2.086-9.037-6.33 2.085-8.292 6.328-9.04c4.243-.749 8.289 2.085 9.037 6.33z"/><path d="m144.155 204.176c.748 4.245-2.085 8.292-6.328 9.04s-8.289-2.086-9.037-6.33 2.085-8.292 6.328-9.04c4.243-.749 8.289 2.085 9.037 6.33z"/></g></g><path d="m511.627 202.966c-2.325-13.191-14.895-22-28.077-19.674l-3.736.659c.386 1.146.691 2.335.908 3.562 2.325 13.191-6.476 25.77-19.657 28.095l-214.592 37.854c-18.392 3.244-31.765 19.287-31.658 37.975l.057 9.889c.316 54.908-38.975 102.04-93.011 111.572-18.493 3.262-36.869 1.793-53.783-3.622 23.856 16.928 54.11 24.468 84.688 19.074 54.035-9.532 93.326-56.664 93.011-111.572l-.057-9.889c-.107-18.689 13.266-34.731 31.658-37.975l214.592-37.854c13.182-2.324 21.982-14.903 19.657-28.094z" fill="#f07281"/><path d="m129.911 122.496-18.849 8.102c-1.386.596-2.441 1.769-2.887 3.21l-6.063 19.6c-1.415 4.575-7.762 4.912-9.653.512l-8.102-18.849c-.596-1.386-1.769-2.441-3.21-2.887l-19.6-6.063c-4.575-1.415-4.912-7.762-.512-9.653l18.849-8.102c1.386-.596 2.441-1.769 2.887-3.21l6.063-19.6c1.415-4.575 7.762-4.912 9.653-.512l8.102 18.849c.596 1.386 1.769 2.441 3.21 2.887l19.6 6.063c4.575 1.415 4.911 7.762.512 9.653z" fill="#f3eae6"/></g></svg>