<svg id="Capa_1" enable-background="new 0 0 512 512" height="512" viewBox="0 0 512 512" width="512" xmlns="http://www.w3.org/2000/svg"><g><g><path d="m59.327 505.295 21.023 6.275c1.924.574 3.974.574 5.898 0l28.649-8.551c1.924-.574 3.974-.574 5.898 0l28.644 8.55c1.924.574 3.974.574 5.898 0l28.645-8.55c1.924-.574 3.974-.574 5.898 0l28.643 8.55c1.924.574 3.974.574 5.898 0l28.643-8.55c1.924-.574 3.975-.574 5.899 0l28.638 8.55c1.924.574 3.975.574 5.899 0l28.637-8.55c1.924-.575 3.975-.575 5.899 0l28.643 8.55c1.924.574 3.974.574 5.898 0l28.642-8.55c1.924-.574 3.974-.574 5.899 0l28.64 8.55c1.924.574 3.975.574 5.899 0l21.015-6.274c5.72-1.708 8.799-7.901 6.708-13.492l-27.066-72.361-15.466-112.671 15.466-214.663 27.041-71.9c2.104-5.594-.974-11.8-6.701-13.51l-20.996-6.268c-1.924-.574-3.974-.574-5.899 0l-28.64 8.55c-1.924.575-3.974.575-5.899 0l-28.642-8.55c-1.924-.574-3.974-.574-5.898 0l-28.643 8.55c-1.924.575-3.975.574-5.899 0l-28.637-8.55c-1.924-.574-3.975-.574-5.899 0l-28.638 8.55c-1.924.575-3.975.575-5.899 0l-28.643-8.55c-1.924-.574-3.974-.574-5.898 0l-28.643 8.55c-1.924.574-3.974.574-5.898 0l-28.645-8.55c-1.924-.574-3.974-.574-5.898 0l-28.644 8.55c-1.924.574-3.974.575-5.898 0l-28.649-8.55c-1.924-.574-3.974-.574-5.898 0l-20.296 6.058c-5.982 1.785-9.018 8.435-6.448 14.124l32.289 71.497 10.836 243.983-17.048 83.35-27.066 72.36c-2.091 5.592.988 11.785 6.709 13.493z" fill="#aca6d6"/></g><g><path d="m459.382 491.803-27.067-72.361-15.466-135.365 15.466-191.969 27.041-71.9c2.104-5.594-.974-11.8-6.701-13.51l-20.996-6.268c-1.924-.574-3.975-.574-5.899 0l-12.517 3.737 8.479 2.531c5.727 1.71 8.805 7.915 6.701 13.51l-27.041 71.9v327.333l27.067 72.361c2.091 5.591-.988 11.784-6.708 13.492l-8.499 2.537 12.517 3.737c1.924.574 3.975.574 5.899 0l21.015-6.274c5.721-1.707 8.8-7.9 6.709-13.491z" fill="#978ecb"/></g><g><path d="m79.684 419.442h352.632v-327.333h-346.42z" fill="#f3eae6"/></g><path d="m401.383 92.109h30.933v327.333h-30.933z" fill="#e1d3ce"/><g><path d="m322.227 217.904 25.088 18.934c2.544 1.92 6.166 1.333 7.98-1.294l22.759-32.959c1.444-2.091 1.313-4.895-.319-6.842l-38.677-46.118z" fill="#57be92"/><path d="m189.772 373.195v-152.542c0-1.826-.221-3.645-.658-5.417l-16.172-65.61 40.983-16.904h84.148l40.983 16.904-16.172 65.61c-.437 1.772-.658 3.591-.658 5.417v152.542c0 3.112-2.512 5.635-5.61 5.635h-121.234c-3.098-.001-5.61-2.523-5.61-5.635z" fill="#7acaa6"/><g fill="#57be92"><path d="m189.772 217.904-25.088 18.934c-2.544 1.92-6.166 1.333-7.979-1.294l-22.759-32.959c-1.444-2.091-1.313-4.895.319-6.842l38.677-46.118"/><path d="m298.074 132.721h-84.148l-.172.071c.349 14.906 19.123 26.922 42.246 26.922 23.122 0 41.897-12.016 42.246-26.922z"/></g></g><g><path d="m370.451 470.619h-228.902c-4.271 0-7.733-3.462-7.733-7.733s3.462-7.733 7.733-7.733h228.901c4.271 0 7.733 3.462 7.733 7.733.001 4.271-3.461 7.733-7.732 7.733z" fill="#978ecb"/></g><g><path d="m370.451 56.398h-228.902c-4.271 0-7.733-3.462-7.733-7.733s3.462-7.733 7.733-7.733h228.901c4.271 0 7.733 3.462 7.733 7.733.001 4.271-3.461 7.733-7.732 7.733z" fill="#978ecb"/></g></g></svg>