<svg id="Capa_1" enable-background="new 0 0 512 512" height="512" viewBox="0 0 512 512" width="512" xmlns="http://www.w3.org/2000/svg"><g><g><path d="m308.207 81.384h-99.17c-6.444 0-11.667-5.224-11.667-11.667v-27.145c0-6.443 5.224-11.667 11.667-11.667h99.17c6.444 0 11.667 5.224 11.667 11.667v27.145c0 6.444-5.224 11.667-11.667 11.667z" fill="#b5adb6"/><path d="m308.207 30.905h-30.905c6.444 0 11.667 5.223 11.667 11.667v27.145c0 6.444-5.224 11.667-11.667 11.667h30.905c6.444 0 11.667-5.223 11.667-11.667v-27.145c0-6.443-5.224-11.667-11.667-11.667z" fill="#a79ba7"/><path d="m302.373 30.905h-87.503v-15.452c0-8.535 6.918-15.453 15.452-15.453h56.598c8.534 0 15.453 6.918 15.453 15.453z" fill="#cbc4cc"/><path d="m286.92 0h-30.905c8.534 0 15.453 6.918 15.453 15.453v15.453h30.905v-15.453c0-8.535-6.918-15.453-15.453-15.453z" fill="#a79ba7"/></g><path d="m353.571 146.671-56.318-65.287h-77.263l-61.561 71.366c-48.731 56.491-67.659 132.807-50.974 205.523l27.932 121.735c4.294 18.721 20.954 31.992 40.162 31.992h152.465c18.383 0 34.542-12.177 39.61-29.847l33.774-117.758c21.796-75.996 3.814-157.859-47.827-217.724zm-25.074 231.621c-22.405 0-40.567-38.554-40.567-86.112 0-47.559 18.163-86.113 40.567-86.113s40.567 38.554 40.567 86.113c0 47.558-18.163 86.112-40.567 86.112z" fill="#fee97d"/><g fill="#fedf30"><path d="m353.571 146.671-56.318-65.287h-30.905l56.318 65.287c51.641 59.865 69.623 141.728 47.827 217.725l-33.774 117.758c-5.068 17.67-21.228 29.847-39.61 29.847h30.905c18.383 0 34.542-12.177 39.61-29.847l33.774-117.758c21.796-75.997 3.814-157.86-47.827-217.725z"/><path d="m287.929 292.18c0-47.559 18.163-86.113 40.567-86.113-8.121-2.337-19.418-4.035-30.905 0-39.756 13.965-40.567 82.131-40.567 86.113s.812 72.147 40.567 86.112c11.487 4.035 22.784 2.336 30.905 0-22.404 0-40.567-38.554-40.567-86.112z"/></g><path d="m206.036 373.441v-153.497c0-17.068-13.837-30.906-30.905-30.906h-42.406c-29.175 50.748-38.602 111.134-25.271 169.235l10.571 46.073h57.105c17.069 0 30.906-13.837 30.906-30.905z" fill="#faf7f7"/><g><g><path d="m219.99 81.384v-18.656c0-4.267 3.459-7.726 7.726-7.726 4.268 0 7.726 3.459 7.726 7.726v18.657h-15.452z" fill="#a79ba7"/></g><g><path d="m250.895 81.384v-18.656c0-4.267 3.459-7.726 7.726-7.726 4.268 0 7.726 3.459 7.726 7.726v18.657h-15.452z" fill="#a79ba7"/></g><g><path d="m281.801 81.384v-18.656c0-4.267 3.459-7.726 7.726-7.726 4.268 0 7.726 3.459 7.726 7.726v18.657h-15.452z" fill="#a79ba7"/></g></g></g></svg>