<svg id="Capa_1" enable-background="new 0 0 512 512" height="512" viewBox="0 0 512 512" width="512" xmlns="http://www.w3.org/2000/svg"><g><path d="m284.291 38.058c6.056 17.087 16.624 40.51 35.4 64.395 7.324 9.316 14.791 17.296 21.93 24.077 7.702 7.315 9.317 18.987 3.994 28.179-6.079 10.498-19.289 14.556-30.134 9.12-.625-.313-1.256-.639-1.893-.977-17.78-9.451-27.069-23.067-32.182-30.606-16.439-24.239-19.045-49.447-19.433-62.006 7.44-10.727 14.879-21.455 22.318-32.182z" fill="#f3eae6"/><path d="m288.442 512h-121.784c-16.815 0-30.446-13.631-30.446-30.446v-274.013c40.383-21.671 93.592-41.887 157.029-45.253 8.789-.466 17.344-.586 25.647-.416v319.682c0 16.815-13.631 30.446-30.446 30.446z" fill="#fee97d"/><path d="m293.241 162.288c-1.608.085-3.205.189-4.799.295v186.048c0 81.819-66.327 148.146-148.146 148.146 5.264 9.098 15.095 15.223 26.362 15.223h121.784c16.815 0 30.446-13.631 30.446-30.446v-319.682c-8.303-.17-16.858-.05-25.647.416z" fill="#fedf30"/><path d="m318.888 161.872c-23.514 4.214-58.785 13.431-96.701 35.335-42.892 24.779-70.504 55.012-85.975 74.82v-84.923c0-16.465 4.789-32.576 13.784-46.367 9.747-14.945 7.859-34.646-4.55-47.468-4.897-5.06-3.892-13.33 2.063-17.088 17.068-10.769 40.845-23.003 70.883-31.133 31.221-8.451 59.101-9.733 80.369-8.726 8.842.419 13.643 10.525 8.388 17.649l-3.871 5.247c-17.871 24.225-17.871 57.268 0 81.493z" fill="#aca6d6"/><g><path d="m270.711 44.093c7.603.36 9.105 5.494 9.48 6.31 3.047 6.633-3.904 15.297-4.963 16.586-17.871 24.225-17.871 57.268 0 81.493 4.404 6.835 8.809 13.669 13.213 20.504 5.342-1.546 11-3.022 16.96-4.376 4.638-1.053 9.139-1.96 13.486-2.739l-15.61-21.16c-17.871-24.225-17.871-57.268 0-81.493l3.871-5.247c5.255-7.124.455-17.23-8.388-17.649-21.269-1.007-49.148.275-80.369 8.725-5.339 1.445-10.471 3.025-15.412 4.698 26.097-5.674 49.38-6.522 67.732-5.652z" fill="#978ecb"/></g><g><g><path d="m368.176 60.893h-17.289c-4.204 0-7.612-3.408-7.612-7.611s3.407-7.611 7.612-7.611h17.289c4.204 0 7.612 3.408 7.612 7.611s-3.408 7.611-7.612 7.611z" fill="#f3eae6"/></g><g><path d="m368.169 106.563c-1.333 0-2.682-.35-3.908-1.085l-17.29-10.368c-3.604-2.162-4.775-6.837-2.612-10.442 2.162-3.606 6.839-4.773 10.442-2.613l17.289 10.368c3.605 2.162 4.775 6.837 2.612 10.442-1.425 2.379-3.948 3.698-6.533 3.698z" fill="#f3eae6"/></g><g><path d="m350.893 25.593c-2.586 0-5.108-1.319-6.534-3.698-2.163-3.606-.992-8.28 2.612-10.443l17.289-10.368c3.605-2.161 8.281-.992 10.442 2.613 2.163 3.606.992 8.281-2.612 10.443l-17.289 10.368c-1.226.735-2.576 1.085-3.908 1.085z" fill="#f3eae6"/></g></g><g><path d="m280.031 354.098c-1.33-1.349-1.346-3.475-.041-4.848 7.463-7.855 9.224-19.97 3.531-29.83-5.775-10.002-17.392-14.52-28.051-11.741-1.833.478-3.682-.572-4.219-2.389-3.071-10.39-12.682-17.973-24.068-17.973-11.549 0-21.27 7.802-24.194 18.422-.503 1.826-2.336 2.903-4.178 2.46-10.534-2.535-21.906 1.997-27.599 11.857-5.775 10.002-3.878 22.322 3.857 30.164 1.33 1.349 1.346 3.475.041 4.848-7.463 7.855-9.224 19.97-3.531 29.83 5.775 10.002 17.392 14.52 28.051 11.741 1.833-.478 3.682.572 4.219 2.388 3.071 10.39 12.682 17.973 24.068 17.973 11.549 0 21.27-7.802 24.194-18.423.503-1.826 2.336-2.903 4.178-2.46 10.534 2.536 21.906-1.997 27.599-11.857 5.775-10 3.879-22.32-3.857-30.162z" fill="#aca6d6"/><circle cx="227.55" cy="352.159" fill="#fff" r="16.841"/></g></g></svg>