<svg id="Capa_1" enable-background="new 0 0 512 512" height="512" viewBox="0 0 512 512" width="512" xmlns="http://www.w3.org/2000/svg"><g><g><path d="m512 64c0 35.35-28.49 64-63.63 64h-416.56c-.21 0-.49 0-.83-.01-8.46-.22-16.09-3.75-21.66-9.36-1.81-1.82-3.41-3.86-4.74-6.08-2.91-4.83-4.58-10.49-4.58-16.55 0-17.67 14.24-32 31.81-32-.28 0-.56-.01-.85-.01-1.89-.05-3.73-.271-5.52-.63-.01 0-.02 0-.04-.01-6.22-1.28-11.77-4.38-16.08-8.72-1.81-1.82-3.41-3.86-4.74-6.08-2.91-4.83-4.58-10.49-4.58-16.55 0-17.67 14.24-32 31.81-32h416.56c4.04 0 7.99.38 11.81 1.11 12.84 2.41 24.31 8.71 33.18 17.63 11.52 11.58 18.64 27.58 18.64 45.26z" fill="#aca6d6"/><path d="m512 64c0 35.35-28.49 64-63.63 64h-416.56c-.21 0-.49 0-.83-.01-8.46-.22-16.09-3.75-21.66-9.36-1.81-1.82-3.41-3.86-4.74-6.08h412.89c20.9 0 39.46-10.15 51.06-25.81 8.07-10.89-.53-25.01-14.09-24.94-422.63 2.2 0 0-422.63 2.2-.28 0-.56-.01-.85-.01-1.89-.05-3.73-.271-5.52-.63-.01 0-.02 0-.04-.01-6.22-1.28-11.77-4.38-16.08-8.72-1.81-1.82-3.41-3.86-4.74-6.08h412.89c16.44 0 31.42-6.28 42.71-16.59 8.99-8.2 9.12-22.48.15-30.71-.03-.03-.1-.09-.15-.14 12.84 2.41 24.31 8.71 33.18 17.63 11.52 11.58 18.64 27.58 18.64 45.26z" fill="#978ecb"/><path d="m480.186 192c17.57 0 31.814 14.327 31.814 32 0 17.673-14.244 32-31.814 32h-416.557c-35.142 0-63.629-28.654-63.629-64 0-35.346 28.487-64 63.629-64h416.557c17.57 0 31.814 14.327 31.814 32 0 17.673-14.244 32-31.814 32" fill="#7acaa6"/><path d="m480.185 192c.565 0 1.079-.014 1.548-.039.187-.009.372-.026.559-.038.025-.002.053-.003.078-.006 16.635-1.133 29.63-15.238 29.63-31.917 0-17.547-14.128-32.009-31.815-32l.909 16.547c0 17.673-14.244 32-31.814 32h-416.557c-1.783 0-15.593-.077-30.793-.226-1.253 5.004-1.926 10.241-1.93 15.635.606.018 1.209.044 1.818.044h59.592 403.002c9.086 0 16.633 7.269 16.682 16.355v.192c0 17.673-14.244 32-31.814 32h-416.557c-4.039 0-7.985-.395-11.815-1.119 11.293 10.298 26.278 16.572 42.721 16.572h416.557c17.57 0 31.814-14.327 31.814-32s-14.244-32-31.815-32z" fill="#57be92"/></g><g><path d="m512 320c0 35.35-28.49 64-63.63 64h-416.56c-.21 0-.49 0-.83-.01-8.46-.22-16.09-3.75-21.66-9.36-1.81-1.82-3.41-3.86-4.74-6.08-2.91-4.83-4.58-10.49-4.58-16.55 0-17.67 14.24-32 31.81-32-.28 0-.56-.01-.85-.01-1.89-.05-3.73-.271-5.52-.63-.01 0-.02 0-.04-.01-6.22-1.28-11.77-4.38-16.08-8.72-1.81-1.82-3.41-3.86-4.74-6.08-2.91-4.83-4.58-10.49-4.58-16.55 0-17.67 14.24-32 31.81-32h416.56c4.04 0 7.99.38 11.81 1.11 12.84 2.41 24.31 8.71 33.18 17.63 11.52 11.58 18.64 27.58 18.64 45.26z" fill="#aca6d6"/><path d="m512 320c0 35.35-28.49 64-63.63 64h-416.56c-.21 0-.49 0-.83-.01-8.46-.22-16.09-3.75-21.66-9.36-1.81-1.82-3.41-3.86-4.74-6.08h412.89c20.9 0 39.46-10.15 51.06-25.81 8.07-10.89-.53-25.01-14.09-24.94-422.63 2.2 0 0-422.63 2.2-.28 0-.56-.01-.85-.01-1.89-.05-3.73-.271-5.52-.63-.01 0-.02 0-.04-.01-6.22-1.28-11.77-4.38-16.08-8.72-1.81-1.82-3.41-3.86-4.74-6.08h412.89c16.44 0 31.42-6.28 42.71-16.59 8.99-8.2 9.12-22.48.15-30.71-.03-.03-.1-.09-.15-.14 12.84 2.41 24.31 8.71 33.18 17.63 11.52 11.58 18.64 27.58 18.64 45.26z" fill="#978ecb"/><path d="m480.186 448c17.57 0 31.814 14.327 31.814 32 0 17.673-14.244 32-31.814 32h-416.557c-35.142 0-63.629-28.654-63.629-64 0-35.346 28.487-64 63.629-64h416.557c17.57 0 31.814 14.327 31.814 32 0 17.673-14.244 32-31.814 32" fill="#7acaa6"/><path d="m480.185 448c.565 0 1.079-.014 1.548-.039.187-.009.372-.026.559-.038.025-.002.053-.003.078-.006 16.635-1.133 29.63-15.238 29.63-31.917 0-17.547-14.128-32.009-31.815-32l.909 16.547c0 17.673-14.244 32-31.814 32h-416.557c-1.783 0-15.593-.077-30.793-.226-1.253 5.004-1.926 10.241-1.93 15.635.606.018 1.209.044 1.818.044h59.592 403.002c9.086 0 16.633 7.269 16.682 16.355v.192c0 17.673-14.244 32-31.814 32h-416.557c-4.039 0-7.985-.396-11.815-1.119 11.293 10.298 26.278 16.572 42.721 16.572h416.557c17.57 0 31.814-14.327 31.814-32s-14.244-32-31.815-32z" fill="#57be92"/></g></g></svg>