<svg id="Capa_1" enable-background="new 0 0 512 512" height="512" viewBox="0 0 512 512" width="512" xmlns="http://www.w3.org/2000/svg"><g><g><path d="m413.119 484.7h-314.238c-21.077 0-38.756-15.904-40.978-36.863l-26.998-254.678 1.128-1.973 446.007-1.377 3.054 3.35-26.998 254.678c-2.221 20.959-19.9 36.863-40.977 36.863z" fill="#fee97d"/><path d="m478.045 189.811-446.789 1.38-.35 1.968 2.318 21.84 142.426-.439c152.896-.471 173.971 220.775 23.754 249.276-18.738 3.555-38.048 5.412-57.756 5.412h-73.673c-.428 0-.852-.017-1.277-.03 7.588 9.481 19.241 15.483 32.182 15.483h314.239c21.077 0 38.756-15.904 40.978-36.863l26.998-254.678z" fill="#fedf30"/><path d="m490.881 193.159h-469.762c-11.664 0-21.119-9.455-21.119-21.119 0-11.664 9.455-21.119 21.119-21.119h469.763c11.664 0 21.119 9.455 21.119 21.119-.001 11.664-9.456 21.119-21.12 21.119z" fill="#f3eae6"/><path d="m490.881 150.921h-30.905c11.664 0 21.119 9.455 21.119 21.119 0 11.663-9.455 21.119-21.119 21.119h30.905c11.664 0 21.119-9.455 21.119-21.119 0-11.663-9.455-21.119-21.119-21.119z" fill="#e1d3ce"/><g><g><path d="m56.184 120.016h159.359c8.534 0 15.453 6.918 15.453 15.453 0 8.534-6.918 15.453-15.453 15.453h-167.92c-17.068 0-30.905-13.837-30.905-30.905 0-17.069 13.837-30.905 30.905-30.905h165.859c9.672 0 17.513 7.841 17.513 17.513v28.845" fill="#7acaa6"/><path d="m213.482 89.111h-30.906c9.672 0 17.513 7.841 17.513 17.513v28.845c0 8.534-6.918 15.453-15.453 15.453h30.905c8.535 0 15.453-6.918 15.453-15.453v-28.845c.001-9.672-7.839-17.513-17.512-17.513z" fill="#57be92"/></g><g><path d="m56.184 58.205h159.359c8.534 0 15.453 6.918 15.453 15.453 0 8.534-6.918 15.453-15.453 15.453h-167.92c-17.068 0-30.905-13.837-30.905-30.906 0-17.069 13.837-30.905 30.905-30.905h165.859c9.672 0 17.513 7.841 17.513 17.513v28.845" fill="#f58a97"/><path d="m213.482 27.3h-30.906c9.672 0 17.513 7.841 17.513 17.513v28.845c0 8.534-6.918 15.453-15.453 15.453h30.905c8.535 0 15.453-6.919 15.453-15.453v-28.845c.001-9.672-7.839-17.513-17.512-17.513z" fill="#f07281"/></g><g><path d="m318.41 120.016h159.359c8.534 0 15.453 6.918 15.453 15.453 0 8.534-6.918 15.453-15.453 15.453h-167.92c-17.069 0-30.905-13.837-30.905-30.905 0-17.069 13.837-30.905 30.905-30.905h165.859c9.672 0 17.513 7.841 17.513 17.513v28.845" fill="#b3dafe"/><path d="m475.709 89.111h-30.905c9.672 0 17.513 7.841 17.513 17.513v28.845c0 8.534-6.919 15.453-15.453 15.453h30.905c8.534 0 15.453-6.918 15.453-15.453v-28.845c0-9.672-7.841-17.513-17.513-17.513z" fill="#8ac9fe"/></g><g><path d="m318.41 58.205h159.359c8.534 0 15.453 6.918 15.453 15.453 0 8.534-6.918 15.453-15.453 15.453h-167.92c-17.069 0-30.905-13.837-30.905-30.906 0-17.069 13.837-30.905 30.905-30.905h165.859c9.672 0 17.513 7.841 17.513 17.513v28.845" fill="#aca6d6"/><path d="m475.709 27.3h-30.905c9.672 0 17.513 7.841 17.513 17.513v28.845c0 8.534-6.919 15.453-15.453 15.453h30.905c8.534 0 15.453-6.919 15.453-15.453v-28.845c0-9.672-7.841-17.513-17.513-17.513z" fill="#978ecb"/></g></g><g><path d="m250.859 314.72h-13.917v-53.064c0-12.227 9.912-22.139 22.139-22.139h13.917v53.064c0 12.227-9.912 22.139-22.139 22.139z" fill="#fff"/><path d="m254.481 240.002c6.914 5.406 13.088 11.52 18.517 18.176v-18.661h-13.917c-1.578 0-3.115.171-4.6.485z" fill="#faf7f7"/><path d="m250.859 436.282h-13.917v-53.064c0-12.227 9.912-22.139 22.139-22.139h13.917v53.064c0 12.227-9.912 22.139-22.139 22.139z" fill="#fff"/></g><g fill="#fff"><path d="m98.368 361.996-13.864 1.213 4.625 52.862c1.066 12.181 11.804 21.191 23.984 20.125l13.864-1.213-4.625-52.862c-1.066-12.181-11.804-21.191-23.984-20.125z"/><path d="m87.773 240.897-13.864 1.213 4.625 52.862c1.066 12.181 11.804 21.191 23.984 20.125l13.864-1.213-4.625-52.862c-1.066-12.18-11.804-21.191-23.984-20.125z"/></g><g fill="#fff"><path d="m175.631 361.996-13.864 1.213 4.625 52.862c1.066 12.181 11.804 21.191 23.984 20.125l13.864-1.213-4.625-52.862c-1.065-12.181-11.803-21.191-23.984-20.125z"/><path d="m165.036 240.897-13.864 1.213 4.625 52.862c1.066 12.181 11.804 21.191 23.984 20.125l13.864-1.213-4.625-52.862c-1.065-12.18-11.803-21.191-23.984-20.125z"/></g><g fill="#faf7f7"><g><path d="m411.572 361.996 13.864 1.213-4.625 52.862c-1.066 12.181-11.804 21.191-23.985 20.125l-13.864-1.213 4.625-52.862c1.066-12.181 11.805-21.191 23.985-20.125z"/><path d="m422.167 240.897 13.864 1.213-4.625 52.862c-1.066 12.181-11.804 21.191-23.984 20.125l-13.864-1.213 4.625-52.862c1.065-12.18 11.803-21.191 23.984-20.125z"/></g><g><path d="m334.309 361.996 13.864 1.213-4.625 52.862c-1.066 12.181-11.804 21.191-23.984 20.125l-13.864-1.213 4.625-52.862c1.065-12.181 11.803-21.191 23.984-20.125z"/><path d="m344.903 240.897 13.864 1.213-4.625 52.862c-1.066 12.181-11.804 21.191-23.984 20.125l-13.864-1.213 4.625-52.862c1.065-12.18 11.804-21.191 23.984-20.125z"/></g></g></g><path d="m222.649 124.934h-165.899c-2.716 0-4.918-2.202-4.918-4.918 0-2.716 2.202-4.918 4.918-4.918h165.899z" fill="#57be92"/><path d="m222.649 63.123h-165.899c-2.716 0-4.918-2.202-4.918-4.918 0-2.716 2.202-4.917 4.918-4.917h165.899z" fill="#f07281"/><path d="m481.095 124.934h-165.899c-2.716 0-4.917-2.202-4.917-4.918 0-2.716 2.202-4.918 4.917-4.918h165.899z" fill="#8ac9fe"/><path d="m481.095 63.123h-165.899c-2.716 0-4.917-2.202-4.917-4.918 0-2.716 2.202-4.917 4.917-4.917h165.899z" fill="#978ecb"/></g></svg>