<svg id="Capa_1" enable-background="new 0 0 512 512" height="512" viewBox="0 0 512 512" width="512" xmlns="http://www.w3.org/2000/svg"><g><path d="m116.005 327.266v-21.274c0-18.993 15.397-34.389 34.389-34.389h245.601v55.663z" fill="#57be92"/><path d="m403.207 473.874h-22.664v-186.818c0-8.534 6.918-15.453 15.453-15.453 8.534 0 15.453 6.918 15.453 15.453v178.577c-.001 4.552-3.691 8.241-8.242 8.241z" fill="#22b37f"/><path d="m496.62 267.159-224.833-139.247v-21.622c26.13-2.106 46.745-24.013 46.745-50.638v-3.484c0-28.765-23.436-52.168-52.244-52.168h-2.925c-21.049 0-39.23 12.493-47.497 30.443-4.677 10.155 2.949 21.725 14.129 21.725 6.042 0 11.465-3.551 14.042-9.016 3.411-7.23 10.791-12.248 19.326-12.248h2.925c11.767 0 21.339 9.539 21.339 21.263v3.484c0 10.972-8.96 19.898-19.972 19.898-14.763 0-26.774 12-26.774 26.75v25.198l-225.499 139.661c-9.631 5.965-15.382 16.29-15.382 27.621 0 17.914 14.572 32.487 32.483 32.487h447.034c17.911 0 32.483-14.574 32.483-32.487 0-11.33-5.75-21.656-15.38-27.62zm-17.103 29.152h-447.034c-.844 0-1.531-.687-1.531-1.532 0-.534.271-1.021.725-1.302l224.323-138.932 224.324 138.932c.453.281.724.767.724 1.302 0 .845-.687 1.532-1.531 1.532z" fill="#d1a08f"/><g fill="#c68d7a"><path d="m31.677 293.477 208.87-129.362c-9.467-5.864-21.438-5.864-30.905 0l-195.281 120.945c-5.205 3.224-2.92 11.25 3.202 11.25h14.921c-1.528.016-2.067-2.07-.807-2.833z"/><path d="m496.62 267.159-224.833-139.247v-21.622c26.13-2.106 46.745-24.013 46.745-50.638v-3.484c0-28.765-23.436-52.168-52.244-52.168h-2.925c-4.85 0-9.544.67-14.003 1.911 22.04 6.12 38.268 26.326 38.268 50.257v3.484c0 26.625-20.616 48.532-46.745 50.638v21.208.414l224.833 139.247c9.63 5.964 15.38 16.29 15.38 27.62 0 17.914-14.572 32.487-32.483 32.487h30.905c17.911 0 32.483-14.574 32.483-32.487-.001-11.33-5.751-21.656-15.381-27.62z"/></g><path d="m380.543 271.603v230.095c0 5.689-4.612 10.302-10.302 10.302h-259.387c-5.69 0-10.302-4.612-10.302-10.302v-195.706c0-18.993 15.397-34.389 34.389-34.389z" fill="#7acaa6"/><path d="m349.637 271.603v230.095c0 5.69-4.612 10.302-10.302 10.302h30.905c5.689 0 10.302-4.612 10.302-10.302v-230.095z" fill="#57be92"/><path d="m380.543 435.01c-11.422-4.272-18.366-10.623-38.998-10.623-31.088 0-31.088 14.423-62.176 14.423-31.089 0-31.089-14.423-62.178-14.423-31.09 0-31.09 14.423-62.181 14.423-28.274 0-30.842-11.925-54.458-14.086v33.79c23.616 2.16 26.184 14.086 54.458 14.086 31.09 0 31.09-14.423 62.181-14.423 31.089 0 31.089 14.423 62.178 14.423 31.088 0 31.088-14.423 62.176-14.423 20.632 0 27.576 6.351 38.998 10.624z" fill="#fee97d"/><path d="m349.637 458.549c14.62 1.414 21.125 6.593 30.905 10.252v-33.79c-9.78-3.658-16.286-8.837-30.905-10.251z" fill="#fedf30"/></g></svg>