<svg id="Capa_1" enable-background="new 0 0 512 512" height="512" viewBox="0 0 512 512" width="512" xmlns="http://www.w3.org/2000/svg"><g><g><path d="m118.221 500.277v-84.363l8.338-38.115-8.338-34.725v-160.142c0-3.798-.459-7.582-1.368-11.269l-33.644-136.495 85.26-35.168h175.061l85.26 35.168-33.644 136.495c-.909 3.687-1.368 7.471-1.368 11.269v317.346c0 6.474-5.225 11.723-11.671 11.723h-252.215c-6.446-.001-11.671-5.249-11.671-11.724z" fill="#f58a97"/><g fill="#f07281"><path d="m397.28 22.171-30.22 122.607c-1.872 7.595-2.846 15.384-2.902 23.206-.428 59.989-.856 119.977-1.284 179.966 0 81.729-66.869 148.598-148.598 148.598h-96.054v3.73c0 6.474 5.225 11.723 11.671 11.723h252.216c6.445 0 11.671-5.249 11.671-11.723v-317.347c0-3.797.459-7.581 1.368-11.268l33.644-136.495z"/><path d="m393.779 177.214 52.192 39.391c5.292 3.994 12.828 2.772 16.6-2.691l47.347-68.568c3.004-4.351 2.732-10.184-.664-14.233l-80.464-95.943z"/><path d="m118.221 177.214-52.192 39.391c-5.292 3.994-12.828 2.772-16.601-2.691l-47.347-68.569c-3.004-4.351-2.732-10.184.664-14.233l80.464-95.943z"/></g><path d="m217.177 182.467c14.41-20.38 6.108-49.231 16.008-55.22 9.369-5.668 18.048 19.425 37.028 18.055 13.695-.988 17.22-14.071 26.3-11.191 10.657 3.381 17.588 29.382 15.78 50.688-1.599 18.843-10.694 41.782-22.474 43.446-11.88 1.679-16.031-19.758-28.69-19.09-14.667.774-16.753 31.705-32.038 34.889-16.39 3.415-36.957-26.969-33.59-42.025 2.18-9.76 12.084-5.986 21.676-19.552z" fill="#f3eae6"/><path d="m141.171 421.898c4.758-3.256-.34-10.764 5.6-20.516 7.686-12.618 23.085-11.315 23.897-18.705.718-6.539-11.301-7.892-16.737-20.301-5.531-12.627 2.475-21.359-3.056-26.779-6.375-6.247-25.138-2.614-32.653 7.478v72.84c8.884 5.865 18.472 9.045 22.949 5.983z" fill="#f3eae6"/></g><path d="m343.53 0h-175.06l-.357.148c.727 31.01 39.784 56.009 87.888 56.009s87.161-24.998 87.888-56.009z" fill="#f07281"/></g></svg>