<svg id="Capa_1" enable-background="new 0 0 512 512" height="512" viewBox="0 0 512 512" width="512" xmlns="http://www.w3.org/2000/svg"><g><path d="m259.309 350.815c0 20.374-16.523 36.89-36.905 36.89s-36.905-16.516-36.905-36.89 36.905-55.335 36.905-55.335 36.905 34.961 36.905 55.335z" fill="#b3dafe"/><path d="m222.404 295.479s-7.058 6.686-15 15.914c10.22 11.874 21.905 27.957 21.905 39.421 0 15.033-9.001 27.957-21.905 33.704 4.584 2.042 9.657 3.186 15 3.186 20.382 0 36.905-16.517 36.905-36.891 0-20.373-36.905-55.334-36.905-55.334z" fill="#8ac9fe"/><path d="m198.118 477.392c0 14.971-12.141 27.108-27.119 27.108-14.977 0-27.119-12.137-27.119-27.108s27.119-40.662 27.119-40.662 27.119 25.69 27.119 40.662z" fill="#b3dafe"/><path d="m170.999 436.73s-2.797 2.652-6.588 6.738c6.779 8.294 13.559 18.459 13.559 25.944 0 14.665-11.652 26.603-26.206 27.086 4.912 4.941 11.716 8.002 19.236 8.002 14.977 0 27.119-12.137 27.119-27.108-.001-14.972-27.12-40.662-27.12-40.662z" fill="#8ac9fe"/><g><path d="m183.976 203.122c-26.365 16.938-56.999 25.958-88.278 25.993l-88.69.091c-3.869.004-7.007-3.131-7.007-7v-192.343c0-3.863 3.13-6.996 6.993-7l88.934-.091c16.395.1 39.854 2.52 65.164 13.499 8.927 3.872 16.716 8.216 23.397 12.535-.172 51.438-.343 102.877-.513 154.316z" fill="#c2bce0"/><g><g><path d="m150.014 123.629c-1.768 0-3.534-.029-5.301-.087-10.058-.332-20.147-1.617-29.988-3.82-4.042-.905-6.585-4.915-5.681-8.957.905-4.042 4.915-6.583 8.957-5.681 8.929 1.999 18.082 3.165 27.205 3.465 12.469.411 24.996-.779 37.237-3.539 4.041-.91 8.055 1.627 8.965 5.667.911 4.041-1.626 8.055-5.667 8.965-11.749 2.651-23.744 3.987-35.727 3.987z" fill="#aca6d6"/></g><g><path d="m131.999 170.292c-5.712 0-11.433-.55-17.115-1.65-4.066-.787-6.725-4.722-5.938-8.789.787-4.066 4.72-6.723 8.789-5.938 8.438 1.632 16.975 1.814 25.374.536 15.468-2.353 27.14-9.206 34.208-14.54 3.308-2.496 8.01-1.837 10.504 1.468 2.495 3.306 1.838 8.009-1.468 10.504-12.117 9.145-26.291 15.161-40.988 17.396-4.433.676-8.897 1.013-13.366 1.013z" fill="#aca6d6"/></g></g><path d="m323.016 230.099c7.577 5.098 16.709 10.354 27.434 14.958 25.731 11.047 49.385 13.514 65.624 13.7l88.934-.091c3.863-.004 6.993-3.137 6.993-7v-192.344c0-3.869-3.138-7.004-7.007-7l-88.69.091c-31.279.035-61.913 9.055-88.278 25.993-1.671 50.564-3.341 101.129-5.01 151.693z" fill="#aca6d6"/><path d="m504.993 52.322-22.993.024v95.386c0 52.759-43.167 95.971-95.926 96.025-14.849-.17-35.908-2.269-59.078-11.072 6.737 4.264 14.537 8.543 23.454 12.372 25.731 11.047 49.385 13.514 65.624 13.7l88.934-.091c3.863-.004 6.993-3.137 6.993-7v-192.344c-.001-3.869-3.139-7.004-7.008-7z" fill="#978ecb"/><g><g><path d="m327.907 170.072c-3.43 0-6.524-2.367-7.31-5.853-.911-4.041 1.627-8.055 5.667-8.965 13.486-3.039 27.291-4.35 41.029-3.897 10.06.332 20.149 1.617 29.988 3.819 4.042.905 6.586 4.915 5.681 8.957s-4.913 6.587-8.957 5.681c-8.927-1.998-18.081-3.164-27.206-3.465-12.466-.407-24.995.78-37.237 3.538-.554.125-1.109.185-1.655.185z" fill="#978ecb"/></g><g><path d="m330.179 136.501c-2.273 0-4.518-1.029-5.992-2.982-2.495-3.306-1.838-8.009 1.468-10.504 12.117-9.145 26.29-15.161 40.988-17.396 10.099-1.535 20.353-1.321 30.48.638 4.066.787 6.726 4.721 5.939 8.788s-4.718 6.725-8.788 5.938c-8.439-1.632-16.977-1.813-25.375-.536-15.468 2.353-27.14 9.205-34.207 14.539-1.353 1.021-2.94 1.515-4.513 1.515z" fill="#978ecb"/></g></g><g><path d="m241.387 8.933c-24.387-6.249-49.151 8.524-55.312 32.997l-36.564 145.248c-6.161 24.473 8.615 49.379 33.002 55.628 24.387 6.25 49.151-8.524 55.312-32.997l36.564-145.248c6.161-24.473-8.615-49.379-33.002-55.628z" fill="#aca6d6"/><path d="m241.387 8.933c-2.453-.629-4.909-1.035-7.351-1.249 9.833 10.982 14.22 26.514 10.353 41.878l-36.564 145.248c-5.541 22.011-26.132 36.167-47.962 34.247 5.83 6.511 13.572 11.424 22.649 13.751 24.387 6.249 49.151-8.524 55.312-32.997l36.564-145.248c6.162-24.475-8.614-49.38-33.001-55.63z" fill="#978ecb"/><path d="m329.494 32.092c-24.387-6.25-49.151 8.524-55.312 32.997l-36.564 145.248c-6.161 24.473 8.615 49.379 33.002 55.628 24.387 6.249 49.151-8.524 55.312-32.997l36.564-145.248c6.161-24.473-8.614-49.378-33.002-55.628z" fill="#aca6d6"/><path d="m329.494 32.092c-2.453-.629-4.909-1.035-7.35-1.25 9.833 10.982 14.22 26.514 10.353 41.878l-36.564 145.248c-5.541 22.011-26.132 36.167-47.962 34.247 5.83 6.511 13.572 11.424 22.649 13.75 24.387 6.25 49.151-8.524 55.312-32.997l36.564-145.248c6.161-24.472-8.614-49.378-33.002-55.628z" fill="#978ecb"/></g></g></g></svg>