<svg id="Capa_1" enable-background="new 0 0 512.003 512.003" height="512" viewBox="0 0 512.003 512.003" width="512" xmlns="http://www.w3.org/2000/svg"><g><g><path d="m428.639 116.979h-345.275c-5.523 0-10 4.477-10 10v42.523h365.276v-42.523c-.001-5.523-4.478-10-10.001-10z" fill="#8ac9fe"/><path d="m324.866 512.002h103.774c5.523 0 10-4.477 10-10v-332.5l-15-27.524c0-5.523-4.477-10-10-10h-315.276c-5.523 0-10 4.477-10 10l-15 27.524v332.5c0 5.523 4.477 10 10 10h104c4.442 0 8.352-2.93 9.598-7.194l55.2-188.829c1.122-3.835 6.555-3.835 7.678 0l55.43 188.839c1.251 4.259 5.158 7.184 9.596 7.184z" fill="#b3dafe"/><g><path d="m428.639 116.979h-20v284.36c0 52.833-42.83 95.663-95.663 95.663l2.294 7.816c1.25 4.258 5.157 7.184 9.595 7.184h103.774c5.523 0 10-4.477 10-10v-375.023c0-5.523-4.477-10-10-10z" fill="#8ac9fe"/></g><path d="m428.639 116.979h-345.275c-5.523 0-10 4.477-10 10v42.523h365.276v-42.523c-.001-5.523-4.478-10-10.001-10z" fill="#60b7ff"/><path d="m438.436 124.963c-.266-1.302-.786-2.512-1.505-3.576-1.797-2.66-4.84-4.409-8.292-4.409h-20v52.523h30v-42.523c0-.69-.069-1.363-.203-2.015z" fill="#26a6fe"/><path d="m271.002 285.557c-16.569 0-30-13.431-30-30v-86.055h30z" fill="#c4e2ff"/><circle cx="256.002" cy="143.816" fill="#b3dafe" r="7.5"/><path d="m438.639 253.298c-46.279 0-83.796-37.517-83.796-83.796h83.796z" fill="#c4e2ff"/><path d="m408.639 247.745c9.317 3.575 19.425 5.553 30 5.553v-83.796h-30z" fill="#b3dafe"/><path d="m73.364 253.298c46.279 0 83.796-37.517 83.796-83.796h-83.796z" fill="#c4e2ff"/></g><g><g><g><path d="m256.002 75.749c-.054 0-.1 0-.153 0-110.276-.031-197.801-33.511-251.807-61.592-3.675-1.911-5.105-6.44-3.194-10.114 1.911-3.675 6.441-5.103 10.114-3.194 52.522 27.31 137.643 59.871 244.891 59.901h.149c107.314 0 192.477-32.57 245.04-59.901 3.675-1.91 8.204-.481 10.114 3.194 1.911 3.675.48 8.203-3.194 10.114-54.045 28.101-141.625 61.592-251.96 61.592z" fill="#cbc4cc"/></g><g fill="#a79ba7"><path d="m368.992 130.148c-6.097 0-11.273-4.47-12.16-10.503l-8.634-58.71c-1.091-7.42 4.66-14.079 12.16-14.079h17.268c7.5 0 13.251 6.659 12.16 14.079l-8.634 58.71c-.887 6.033-6.062 10.503-12.16 10.503z"/><path d="m143.011 130.148c6.097 0 11.273-4.47 12.16-10.503l8.634-58.71c1.091-7.42-4.66-14.079-12.16-14.079h-17.268c-7.5 0-13.251 6.659-12.16 14.079l8.634 58.71c.887 6.033 6.062 10.503 12.16 10.503z"/></g></g></g></g></svg>