<svg id="Capa_1" enable-background="new 0 0 512.003 512.003" height="512" viewBox="0 0 512.003 512.003" width="512" xmlns="http://www.w3.org/2000/svg"><g><g><path d="m369.965 246.916 43.171 32.582c4.377 3.304 10.611 2.293 13.731-2.226l39.163-56.716c2.485-3.599 2.26-8.424-.549-11.773l-66.556-79.359z" fill="#57be92"/><path d="m142.038 498.556v-246.91c0-3.142-.38-6.272-1.132-9.321l-27.829-112.901 70.523-29.089h144.801l70.523 29.089-27.829 112.901c-.752 3.049-1.132 6.18-1.132 9.321v246.91c0 5.355-4.322 9.696-9.653 9.696h-208.62c-5.33 0-9.652-4.341-9.652-9.696z" fill="#7acaa6"/><g fill="#57be92"><path d="m368.338 116.807-25.155 106.245c-2.138 9.032-3.218 18.281-3.218 27.563v102.048c0 77.324-63.265 140.589-140.589 140.589h-57.338v5.304c0 5.355 4.322 9.696 9.653 9.696h208.62c5.331 0 9.653-4.341 9.653-9.696v-246.911c0-3.142.38-6.272 1.132-9.322l27.828-112.9z"/><path d="m142.038 246.916-43.171 32.582c-4.377 3.304-10.611 2.293-13.731-2.226l-39.163-56.716c-2.485-3.599-2.26-8.424.549-11.773l66.556-79.359z"/><path d="m328.402 100.334h-144.801l-.296.122c.601 25.65 32.907 46.327 72.696 46.327s72.095-20.677 72.696-46.327z"/></g></g><g><g><g><path d="m256.002 79.499c-.054 0-.1 0-.153 0-110.276-.031-197.801-33.511-251.807-61.592-3.675-1.911-5.105-6.439-3.194-10.114s6.441-5.103 10.114-3.194c52.522 27.31 137.643 59.871 244.891 59.901h.149c107.314 0 192.477-32.57 245.04-59.901 3.674-1.91 8.203-.481 10.114 3.194s.48 8.203-3.194 10.114c-54.045 28.101-141.625 61.592-251.96 61.592z" fill="#cbc4cc"/></g><g fill="#a79ba7"><path d="m368.992 133.898c-6.097 0-11.273-4.47-12.16-10.503l-8.634-58.71c-1.091-7.42 4.66-14.079 12.16-14.079h17.268c7.5 0 13.251 6.659 12.16 14.079l-8.634 58.71c-.887 6.033-6.062 10.503-12.16 10.503z"/><path d="m143.011 133.898c6.097 0 11.273-4.47 12.16-10.503l8.634-58.71c1.091-7.42-4.66-14.079-12.16-14.079h-17.268c-7.5 0-13.251 6.659-12.16 14.079l8.634 58.71c.887 6.033 6.062 10.503 12.16 10.503z"/></g></g></g></g></svg>