<svg id="Capa_1" enable-background="new 0 0 512.002 512.002" height="512" viewBox="0 0 512.002 512.002" width="512" xmlns="http://www.w3.org/2000/svg"><g><g><path d="m256.01 96.792c-.396 0-.784 0-1.182-.001-111.074-.257-197.833-36.664-251.055-67.16-3.594-2.059-4.838-6.642-2.779-10.236 2.06-3.593 6.643-4.838 10.236-2.779 51.649 29.595 135.844 64.926 243.634 65.175.378.001.768.001 1.145.001 108.252 0 192.813-35.409 244.764-65.176 3.593-2.059 8.177-.816 10.236 2.779 2.059 3.594.815 8.177-2.779 10.236-53.53 30.671-140.679 67.161-252.22 67.161z" fill="#cbc4cc"/></g><g><g><path d="m303.868 321.31v-172.512c0-5.523 4.477-10 10-10h75.633c5.523 0 10 4.477 10 10l15 48.43v128.928l-15 32.743c0 12.131-4.819 23.765-13.397 32.343l-11.131 26.131-62.609 62.609c-6.392 6.392-13.945 10.917-21.98 13.574-7.873 2.603-16.209-11.587-24.37-12.57-12.016-1.447-23.653 8.218-32.875-1.004-21.604-21.604-21.913-56.535-.695-78.518l67.146-69.566c2.745-2.842 4.278-6.638 4.278-10.588z" fill="#f3eae6"/><path d="m389.501 138.798h-5v205.101c0 12.131-4.819 23.765-13.397 32.343l-88.74 88.74c-13.207 13.207-31.367 18.427-48.501 15.688 7.131 6.884 15.636-3.493 24.613-1.133 10.473 2.753 21.588 17.426 31.907 14.016 8.035-2.655 15.588-7.178 21.981-13.571l62.609-62.609 11.131-26.131c8.578-8.578 13.397-20.212 13.397-32.343l15-32.743v-128.928l-15-48.43c0-5.523-4.477-10-10-10z" fill="#e1d3ce"/><path d="m404.501 138.798h-90.633c-5.523 0-10 4.477-10 10v48.43h110.633v-48.43c0-5.523-4.477-10-10-10z" fill="#aca6d6"/><path d="m404.501 138.798h-20v58.43h30v-48.43c0-5.523-4.477-10-10-10z" fill="#978ecb"/><path d="m414.501 326.156c-2.525-.382-5.11-.582-7.742-.582-28.393 0-51.409 23.017-51.409 51.409 0 16.39 7.678 30.975 19.624 40.39l26.131-26.131c8.578-8.578 13.397-20.212 13.397-32.344v-32.742z" fill="#aca6d6"/><path d="m414.501 326.156c-2.525-.382-5.11-.582-7.742-.582-7.974 0-15.523 1.816-22.258 5.056v13.269c0 12.131-4.819 23.765-13.397 32.343l-14.003 14.003c2.904 10.882 9.272 20.35 17.872 27.127l17.421-17.42 8.71-8.71c8.578-8.578 13.397-20.212 13.397-32.344z" fill="#978ecb"/><path d="m293.341 473.77c0 6.88-1.04 13.52-2.96 19.77-5.72 1.89-11.69 2.84-17.66 2.84-13.61 0-27.21-4.93-37.91-14.8-.32-.3-.63-.6-.94-.9l-.01-.01c-.239-.23-.483-.453-.72-.69-19.98-19.97-21.73-51.33-5.12-73.32 30.24.81 55.5 21.6 63.02 49.66 1.5 5.56 2.3 11.41 2.3 17.45z" fill="#aca6d6"/><path d="m293.341 473.77c0 6.88-1.04 13.52-2.96 19.77-5.72 1.89-11.69 2.84-17.66 2.84-13.61 0-27.21-4.93-37.91-14.8-.32-.3-.63-.6-.94-.9l-.01-.01c2.99.5 5.97.75 8.91.75 17.8 0 34.53-9.04 48.26-25.11 0 .01.01.01.01.01 1.5 5.56 2.3 11.41 2.3 17.45z" fill="#978ecb"/><path d="m359.184 145.769c-6.097 0-11.273-4.47-12.16-10.503l-8.634-58.71c-1.091-7.42 4.66-14.079 12.16-14.079h17.268c7.5 0 13.251 6.659 12.16 14.079l-8.634 58.71c-.887 6.033-6.062 10.503-12.16 10.503z" fill="#a79ba7"/></g><g><path d="m94.637 321.31v-172.512c0-5.523 4.477-10 10-10h75.633c5.523 0 10 4.477 10 10l15 48.43v128.928l-15 32.743c0 12.131-4.819 23.765-13.397 32.343l-11.131 26.131-62.609 62.609c-6.392 6.392-13.945 10.917-21.98 13.574-7.873 2.603-16.209-11.587-24.37-12.57-12.016-1.447-23.653 8.218-32.874-1.004-21.604-21.604-21.913-56.535-.695-78.518l67.146-69.566c2.744-2.842 4.277-6.638 4.277-10.588z" fill="#f3eae6"/><path d="m180.271 138.798h-5v205.101c0 12.131-4.819 23.765-13.397 32.343l-88.74 88.74c-13.207 13.207-31.367 18.427-48.501 15.688 7.131 6.884 15.636-3.493 24.612-1.133 10.474 2.753 21.588 17.426 31.907 14.016 8.035-2.655 15.588-7.178 21.981-13.571l62.609-62.609 11.131-26.131c8.578-8.578 13.397-20.212 13.397-32.343l15-32.743v-128.928l-15-48.43c.001-5.523-4.476-10-9.999-10z" fill="#e1d3ce"/><path d="m195.271 138.798h-90.633c-5.523 0-10 4.477-10 10v48.43h110.633v-48.43c0-5.523-4.477-10-10-10z" fill="#aca6d6"/><path d="m195.271 138.798h-20v58.43h30v-48.43c0-5.523-4.477-10-10-10z" fill="#978ecb"/><path d="m205.271 326.156c-2.525-.382-5.11-.582-7.742-.582-28.393 0-51.409 23.017-51.409 51.409 0 16.39 7.678 30.975 19.623 40.39l26.131-26.131c8.578-8.578 13.397-20.212 13.397-32.344z" fill="#aca6d6"/><path d="m205.271 326.156c-2.525-.382-5.11-.582-7.742-.582-7.974 0-15.523 1.816-22.258 5.056v13.269c0 12.131-4.819 23.765-13.397 32.343l-14.003 14.003c2.903 10.882 9.272 20.35 17.872 27.127l17.421-17.42 8.71-8.71c8.578-8.578 13.397-20.212 13.397-32.344z" fill="#978ecb"/><path d="m84.111 473.77c0 6.88-1.04 13.52-2.96 19.77-5.72 1.89-11.69 2.84-17.66 2.84-13.83 0-27.65-5.08-38.42-15.27-.04-.05-.08-.09-.13-.12-.34-.33-.69-.67-1.03-1.01-19.98-19.97-21.73-51.33-5.12-73.32 30.25.81 55.51 21.61 63.03 49.68 1.5 5.56 2.29 11.4 2.29 17.43z" fill="#aca6d6"/><path d="m84.111 473.77c0 6.88-1.04 13.52-2.96 19.77-5.72 1.89-11.69 2.84-17.66 2.84-13.83 0-27.65-5.08-38.42-15.27-.04-.05-.08-.09-.13-.12-.1-.11-.2-.21-.3-.31-.01 0-.01-.01-.01-.01 2.99.5 5.97.75 8.91.75 17.8 0 34.53-9.04 48.26-25.11 0 .01.01.02.02.03 1.5 5.56 2.29 11.4 2.29 17.43z" fill="#978ecb"/><path d="m149.954 145.769c-6.097 0-11.273-4.47-12.16-10.503l-8.634-58.71c-1.091-7.42 4.66-14.079 12.16-14.079h17.268c7.5 0 13.251 6.659 12.16 14.079l-8.634 58.71c-.887 6.033-6.063 10.503-12.16 10.503z" fill="#a79ba7"/></g></g></g></svg>