<svg id="Capa_1" enable-background="new 0 0 512 512" height="512" viewBox="0 0 512 512" width="512" xmlns="http://www.w3.org/2000/svg"><g><g><path d="m37.5 425.819h437v15h-437z" fill="#cbc4cc"/></g><g><path d="m37.5 35.819h437v15h-437z" fill="#cbc4cc"/></g><path d="m479.851 18.75v482h-30v-482c0-8.284 6.716-15 15-15 8.285 0 15 6.716 15 15z" fill="#a79ba7"/><g><path d="m62.149 18.75v482h-30v-482c0-8.284 6.716-15 15-15 8.284 0 15 6.716 15 15z" fill="#a79ba7"/><g><path d="m86.797 508.25h-79.297c-4.143 0-7.5-3.358-7.5-7.5s3.357-7.5 7.5-7.5h79.297c4.143 0 7.5 3.358 7.5 7.5s-3.358 7.5-7.5 7.5z" fill="#cbc4cc"/></g></g><g><path d="m288.171 37.471c.1 1.507.01 2.998-.269 4.443-.653 3.422-2.359 6.509-4.756 8.905h17.681c.785-1.939 1.404-3.968 1.808-6.082.518-2.692.688-5.47.503-8.257-.015-.222-.041-.441-.06-.661h-15.102c.092.543.158 1.094.195 1.652z" fill="#a79ba7"/><g><path d="m223.915 35.819c1.442-16.372 15.224-29.303 31.958-29.369h.127c16.918 0 31.022 13.166 32.139 30.03.185 2.787.015 5.564-.503 8.257-2.389 12.515-11.804 22.323-24.135 25.254v13.875c0 4.142-3.357 7.5-7.5 7.5s-7.5-3.358-7.5-7.5v-15.086c0-6.395 4.605-11.969 10.948-13.253 6.754-1.368 12.161-6.839 13.454-13.612.278-1.446.368-2.937.269-4.443-.586-8.846-8.285-16.021-17.176-16.021-.021 0-.043 0-.064 0-8.484.033-15.548 6.258-16.905 14.368z" fill="#e19974"/></g><g><g><path d="m314.602 321.265v-105.678c0-4.311 6.044-5.288 7.403-1.197l44.381 133.599c.903 2.717 3.444 4.551 6.308 4.551h17.916c4.177 0 7.319-3.808 6.526-7.91l-39.839-205.836c-.925-4.781-4.229-8.758-8.76-10.544l-40.848-16.103c-5.442-2.146-9.019-7.401-9.019-13.251v-.786c0-7.866-6.377-14.243-14.243-14.243h-56.85c-7.866 0-14.243 6.377-14.243 14.243v.787c0 5.85-3.577 11.105-9.019 13.251l-40.848 16.103c-4.53 1.786-7.834 5.763-8.76 10.544l-39.841 205.835c-.794 4.102 2.348 7.91 6.526 7.91h17.916c2.864 0 5.405-1.834 6.308-4.551l44.381-133.599c1.359-4.091 7.403-3.113 7.403 1.197v105.678c0 7.866 6.377 14.243 14.243 14.243h88.717c7.865 0 14.242-6.377 14.242-14.243z" fill="#fee97d"/><g><path d="m397.134 344.63-39.839-205.836c-.925-4.781-4.229-8.758-8.76-10.544l-40.848-16.104c-5.442-2.146-9.019-7.4-9.019-13.251v-.785c0-7.866-6.377-14.243-14.243-14.243h-30c7.866 0 14.243 6.377 14.243 14.243v.787c0 5.85 3.577 11.105 9.019 13.251l40.848 16.104c4.53 1.786 7.834 5.763 8.76 10.544l39.839 205.836c.275 1.418.07 2.798-.478 4.001 1.068 2.354 3.408 3.909 6.036 3.909h17.916c4.178-.002 7.32-3.81 6.526-7.912z" fill="#fedf30"/></g><path d="m206.062 113.546c29.82 23.98 72.472 23.392 101.619-1.401-5.439-2.147-9.013-7.4-9.013-13.248v-.787c0-7.866-6.377-14.243-14.243-14.243h-56.85c-7.866 0-14.243 6.377-14.243 14.243v.787c0 5.848-3.574 11.101-9.013 13.248z" fill="#fedf30"/></g></g></g><g><path d="m504.5 508.25h-79.297c-4.143 0-7.5-3.358-7.5-7.5s3.357-7.5 7.5-7.5h79.297c4.143 0 7.5 3.358 7.5 7.5s-3.357 7.5-7.5 7.5z" fill="#cbc4cc"/></g></g></svg>