<svg id="Capa_1" enable-background="new 0 0 512 512" height="512" viewBox="0 0 512 512" width="512" xmlns="http://www.w3.org/2000/svg"><g><g><path d="m257.144 338.764c-29.1 0-56.594-12.588-75.432-34.537-2.779-3.238-2.406-8.116.831-10.895 3.24-2.779 8.117-2.407 10.895.831 15.898 18.524 39.118 29.148 63.705 29.148 23.721 0 46.386-10.001 62.183-27.439 2.864-3.163 7.75-3.403 10.913-.539 3.163 2.865 3.403 7.751.539 10.913-18.719 20.667-45.558 32.518-73.634 32.518z" fill="#cbc4cc"/></g><path d="m429.079 512h18.633c6.968 0 11.926-6.773 9.82-13.415l-155.809-491.397c-1.357-4.28-5.33-7.188-9.82-7.188h-71.806c-4.49 0-8.463 2.908-9.82 7.188l-155.809 491.397c-2.106 6.642 2.852 13.415 9.82 13.415h18.633c19.823 0 37.43-12.66 43.742-31.451l96.074-286.034c1.409-4.195 5.34-7.022 9.766-7.022h46.996c4.426 0 8.357 2.827 9.766 7.022l96.074 286.034c6.31 18.791 23.917 31.451 43.74 31.451z" fill="#d1a08f"/><g fill="#c68d7a"><path d="m258.359 179.062c-1.409-4.195-5.34-7.022-9.766-7.022h-46.997c-4.425 0-8.357 2.826-9.766 7.022l-96.073 286.034c-5.976 17.794-22.084 30.082-40.607 31.337l-.682 2.151c-2.106 6.642 2.852 13.416 9.82 13.416h18.633c19.823 0 37.43-12.66 43.742-31.451l96.073-286.034c1.409-4.195 5.34-7.022 9.766-7.022h28.689z"/><path d="m457.532 498.585-155.809-491.397c-1.357-4.28-5.33-7.188-9.82-7.188h-18.465l153.189 483.132c2.106 6.642-2.852 13.415-9.82 13.415h-18.633c-1.235 0-2.462-.049-3.677-.146 8.577 9.707 21.063 15.599 34.582 15.599h18.633c6.968 0 11.926-6.774 9.82-13.415z"/></g><path d="m248.274 0h15.453v187.493h-15.453z" fill="#c68d7a"/><ellipse cx="256" cy="96.741" fill="#fff" rx="35.177" ry="34.683"/></g></svg>