<svg id="Capa_1" enable-background="new 0 0 512 512" height="512" viewBox="0 0 512 512" width="512" xmlns="http://www.w3.org/2000/svg"><g><g><path d="m458.695 245.177c-1.716 0-3.442-.577-4.864-1.76-3.232-2.688-3.672-7.488-.984-10.719l35.243-42.365c5.602-6.733 8.686-15.265 8.686-24.024 0-20.712-16.851-37.563-37.563-37.563h-82.174c-35.495 0-64.373-28.878-64.373-64.373 0-35.495 28.878-64.373 64.373-64.373h127.349c4.204 0 7.612 3.408 7.612 7.611s-3.408 7.611-7.612 7.611h-127.349c-27.102 0-49.15 22.049-49.15 49.15s22.048 49.15 49.15 49.15h82.174c29.107 0 52.786 23.68 52.786 52.786 0 12.308-4.335 24.298-12.207 33.759l-35.243 42.365c-1.504 1.811-3.671 2.745-5.854 2.745z" fill="#a79ba7"/></g><g><g fill="#b5adb6"><path d="m443.146 275.422-21.524-21.518 25.592-25.581c5.943-5.94 15.575-5.94 21.517.001 5.945 5.943 5.945 15.582-.001 21.525z"/><path d="m144.58 360.47-21.518 21.524-25.581-25.592c-5.94-5.943-5.94-15.575.001-21.517 5.943-5.945 15.582-5.945 21.525.001z"/><path d="m360.85 418.293h-83.66v-29.219c0-4.453 3.61-8.062 8.062-8.062h67.536c4.453 0 8.062 3.61 8.062 8.062z"/></g><path d="m504.041 426.385c-16.432-56.396-32.863-112.793-49.295-169.189-3.206-11.002-13.666-18.251-25.099-17.417-55.182 4.028-128.3 17.073-205.461 54.493-30.006 14.552-56.046 30.57-78.297 46.356-43.914 33.154-80.637 74.875-107.946 122.634l-7.703 13.472-10.196 15.223 429.354-15.223 5.866-12.549c6.981-14.937 21.982-24.482 38.475-24.482 6.965 0 12.054-6.578 10.302-13.318zm-85.382-20.544-150.457 9.89c-21.091 1.386-38.962-15.341-38.962-36.471v-.001c0-13.282 7.196-25.527 18.82-31.962 17.059-9.444 36.391-18.925 57.965-27.668 32.173-13.037 62.17-21.531 88.308-27.145 8.564-1.839 17.041 3.434 19.111 11.943l19.828 81.518c2.366 9.73-4.619 19.239-14.613 19.896z" fill="#fee97d"/><path d="m504.041 426.385c-16.432-56.397-32.863-112.793-49.295-169.189-3.197-10.973-13.615-18.254-25.013-17.423-1.981.144-3.992.304-6.019.472.212.566.415 1.139.586 1.728 16.432 56.396 32.863 112.793 49.295 169.189 1.75 6.731-3.324 13.301-10.277 13.318-16.163.039-31.076 8.596-37.92 23.239-3.933 8.415-12.382 13.792-21.671 13.792h-364.754c-.34.586-.694 1.163-1.031 1.751l-7.703 13.472-10.196 15.223 429.354-15.223 6.447-13.792c7.097-14.128 21.757-23.2 37.92-23.239 6.952-.017 12.026-6.587 10.277-13.318z" fill="#fedf30"/><path d="m452.077 512h-452.077c0-19.477 15.789-35.266 35.266-35.266h416.811c9.739 0 17.633 7.895 17.633 17.633 0 9.738-7.894 17.633-17.633 17.633z" fill="#b5adb6"/><path d="m452.077 476.734h-30.446c9.739 0 17.633 7.894 17.633 17.633s-7.894 17.633-17.633 17.633h30.446c9.739 0 17.633-7.894 17.633-17.633s-7.894-17.633-17.633-17.633z" fill="#a79ba7"/><g><path d="m260.871 415.478c-.002 0-.003-.001-.004-.001-17.738-2.392-31.627-17.59-31.627-36.215v-.001c0-13.283 7.196-25.527 18.82-31.962 17.059-9.445 36.391-18.925 57.965-27.668 32.173-13.037 62.17-21.531 88.308-27.145 4.141-.89 8.255-.104 11.641 1.895.004-.001.009-.002.013-.003-12.725-16.688-23.272-18.56-28.116-18.677-2.456-.059-6.297.498-13.984 1.562-20.917 2.896-31.695 4.203-88.308 27.145-21.574 8.743-40.905 18.224-57.965 27.668-11.624 6.435-18.82 18.679-18.82 31.962 1.105 6.483 3.797 16.45 11.017 26.145 17.485 23.481 46.443 25.109 51.06 25.295z" fill="#fedf30"/></g></g></g></svg>