<svg id="Capa_1" enable-background="new 0 0 512 512" height="512" viewBox="0 0 512 512" width="512" xmlns="http://www.w3.org/2000/svg"><g><path d="m403.799 467.401h-295.598c-5.728 0-10.372-4.644-10.372-10.372v-211.94c0-69.029 29.592-134.746 81.278-180.5l70.018-61.983c3.925-3.474 9.825-3.474 13.75 0l70.018 61.983c51.686 45.755 81.278 111.472 81.278 180.5v211.94c0 5.728-4.644 10.372-10.372 10.372z" fill="#f3eae6"/><path d="m332.893 64.589-70.018-61.983c-3.889-3.443-9.716-3.469-13.64-.088l52.542 46.513c51.686 45.755 81.278 111.472 81.278 180.501v16.123c0 113.875-92.314 206.189-206.189 206.189h-79.037v5.186c0 5.728 4.644 10.372 10.372 10.372h295.597c5.728 0 10.372-4.644 10.372-10.372v-211.94c.001-69.029-29.591-134.746-81.277-180.501z" fill="#e1d3ce"/><path d="m133.094 436.286c-2.291 0-4.149-1.858-4.149-4.149v-187.048c0-60.081 25.801-117.379 70.787-157.203l53.518-47.376c1.57-1.39 3.93-1.39 5.5 0l53.518 47.377c44.986 39.824 70.787 97.122 70.787 157.203v187.048c0 2.291-1.857 4.149-4.149 4.149h-245.812z" fill="#faf7f7"/><path d="m383.055 432.137v-186.483c0 86.011-52.67 159.708-127.511 190.632h123.362c2.292 0 4.149-1.858 4.149-4.149z" fill="#f3eae6"/><path d="m381.283 512h-250.566c-5.728 0-10.372-4.644-10.372-10.372v-23.855c0-5.728 4.644-10.372 10.372-10.372h250.566c5.728 0 10.372 4.644 10.372 10.372v23.855c0 5.728-4.644 10.372-10.372 10.372z" fill="#b5adb6"/><path d="m381.283 467.401h-31.115c5.728 0 10.372 4.644 10.372 10.372v23.855c0 5.728-4.644 10.372-10.372 10.372h31.115c5.728 0 10.372-4.644 10.372-10.372v-23.855c0-5.728-4.644-10.372-10.372-10.372z" fill="#a79ba7"/><g><g><g><path d="m185.99 288.288c-4.296 0-7.779-3.483-7.779-7.779 0-4.296 3.483-7.779 7.779-7.779 4.296 0 7.779 3.483 7.779 7.779 0 4.296-3.483 7.779-7.779 7.779z" fill="#b5adb6"/></g></g><g><g><path d="m232.663 288.288c-4.296 0-7.779-3.483-7.779-7.779 0-4.296 3.483-7.779 7.779-7.779 4.296 0 7.779 3.483 7.779 7.779 0 4.296-3.482 7.779-7.779 7.779z" fill="#b5adb6"/></g></g><g><g><path d="m279.337 288.288c-4.296 0-7.779-3.483-7.779-7.779 0-4.296 3.483-7.779 7.779-7.779 4.296 0 7.779 3.483 7.779 7.779 0 4.296-3.483 7.779-7.779 7.779z" fill="#b5adb6"/></g></g><g><g><path d="m326.01 288.288c-4.296 0-7.779-3.483-7.779-7.779 0-4.296 3.483-7.779 7.779-7.779 4.296 0 7.779 3.483 7.779 7.779 0 4.296-3.483 7.779-7.779 7.779z" fill="#b5adb6"/></g></g><g><g><path d="m185.99 334.961c-4.296 0-7.779-3.483-7.779-7.779 0-4.296 3.483-7.779 7.779-7.779 4.296 0 7.779 3.483 7.779 7.779 0 4.296-3.483 7.779-7.779 7.779z" fill="#b5adb6"/></g></g><g><g><path d="m232.663 334.961c-4.296 0-7.779-3.483-7.779-7.779 0-4.296 3.483-7.779 7.779-7.779 4.296 0 7.779 3.483 7.779 7.779 0 4.296-3.482 7.779-7.779 7.779z" fill="#b5adb6"/></g></g><g><g><path d="m279.337 334.961c-4.296 0-7.779-3.483-7.779-7.779 0-4.296 3.483-7.779 7.779-7.779 4.296 0 7.779 3.483 7.779 7.779 0 4.296-3.483 7.779-7.779 7.779z" fill="#b5adb6"/></g></g><g><g><path d="m326.01 334.961c-4.296 0-7.779-3.483-7.779-7.779 0-4.296 3.483-7.779 7.779-7.779 4.296 0 7.779 3.483 7.779 7.779 0 4.296-3.483 7.779-7.779 7.779z" fill="#b5adb6"/></g></g><g><g><path d="m185.99 381.634c-4.296 0-7.779-3.483-7.779-7.779 0-4.296 3.483-7.779 7.779-7.779 4.296 0 7.779 3.483 7.779 7.779 0 4.297-3.483 7.779-7.779 7.779z" fill="#b5adb6"/></g></g><g><g><path d="m232.663 381.634c-4.296 0-7.779-3.483-7.779-7.779 0-4.296 3.483-7.779 7.779-7.779 4.296 0 7.779 3.483 7.779 7.779 0 4.297-3.482 7.779-7.779 7.779z" fill="#b5adb6"/></g></g><g><g><path d="m279.337 381.634c-4.296 0-7.779-3.483-7.779-7.779 0-4.296 3.483-7.779 7.779-7.779 4.296 0 7.779 3.483 7.779 7.779 0 4.297-3.483 7.779-7.779 7.779z" fill="#b5adb6"/></g></g><g><g><path d="m326.01 381.634c-4.296 0-7.779-3.483-7.779-7.779 0-4.296 3.483-7.779 7.779-7.779 4.296 0 7.779 3.483 7.779 7.779 0 4.297-3.483 7.779-7.779 7.779z" fill="#b5adb6"/></g></g></g></g></svg>