<svg id="Capa_1" enable-background="new 0 0 512.002 512.002" height="512" viewBox="0 0 512.002 512.002" width="512" xmlns="http://www.w3.org/2000/svg"><g><g><path d="m462.339 64.28c-8.681 0-16.983-1.185-24.875-3.558-18.315-5.507-31.556-16.388-43.238-25.989-13.223-10.866-24.653-20.27-40.386-19.709-7.436.255-14.898 2.599-22.181 6.966-3.553 2.13-8.16.977-10.289-2.575-2.13-3.552-.977-8.159 2.575-10.289 9.489-5.69 19.373-8.749 29.38-9.093 21.397-.733 36.158 11.388 50.425 23.111 11.11 9.131 22.599 18.572 38.034 23.213 17.358 5.22 37.543 3.428 59.991-5.327 3.859-1.505 8.207.403 9.712 4.262s-.403 8.208-4.262 9.712c-15.842 6.18-30.857 9.275-44.886 9.276z" fill="#a79ba7"/></g><g><path d="m74.9 504.501 181.1-181.1 24.04-24.04 165.11-165.11-24.04-24.04-165.11 165.11-24.04 24.04-205.14 205.14z" fill="#c68d7a"/><path d="m437.1 504.501-181.1-181.1-24.04-24.04-165.11-165.11 24.04-24.04 165.11 165.11 24.04 24.04 205.14 205.14z" fill="#d1a08f"/></g><path d="m477.5 149.771h-443c-14.912 0-27-12.088-27-27 0-14.912 12.088-27 27-27h443c14.912 0 27 12.088 27 27 0 14.912-12.088 27-27 27z" fill="#b5adb6"/><path d="m477.5 95.771h-5.813c1.797 3.616 2.813 7.688 2.813 12 0 14.912-12.088 27-27 27h-437.187c4.419 8.889 13.587 15 24.187 15h443c14.912 0 27-12.088 27-27 0-14.911-12.088-27-27-27z" fill="#a79ba7"/><path d="m459.5 187.501h-407c-8.284 0-15-6.716-15-15v-22.729h437v22.729c0 8.284-6.716 15-15 15z" fill="#b5adb6"/><path d="m444.5 149.771v22.729c0 8.284-6.716 15-15 15h30c8.284 0 15-6.716 15-15v-22.729z" fill="#a79ba7"/><g><path d="m179.503 95.771h156.942c2.589 0 5.077-1.004 6.94-2.8l8.532-8.225c2.981-2.873 3.883-7.287 2.268-11.099l-21.793-51.458c-3.639-8.593-12.737-13.527-21.924-11.89l-89.724 15.981c-2.256.402-4.305 1.566-5.806 3.298l-42.996 49.646c-5.607 6.476-1.007 16.547 7.561 16.547z" fill="#aca6d6"/><path d="m340.525 41.391-8.133-19.203c-3.639-8.593-12.737-13.527-21.924-11.891l-37.523 6.684 18.28 18.477c3.757 3.797 8.876 5.934 14.217 5.934h35.083z" fill="#978ecb"/></g><path d="m343.385 92.97 8.532-8.226c2.981-2.873 3.883-7.287 2.268-11.099l-3.335-7.875h-167.256l-11.651 13.454c-5.609 6.476-1.008 16.546 7.559 16.546h156.942c2.589.001 5.077-1.003 6.941-2.8z" fill="#978ecb"/><g><path d="m504.5 512.001h-497c-4.142 0-7.5-3.357-7.5-7.5s3.358-7.5 7.5-7.5h497c4.142 0 7.5 3.357 7.5 7.5s-3.358 7.5-7.5 7.5z" fill="#b5adb6"/></g></g></svg>