<svg id="Capa_1" enable-background="new 0 0 512 512" height="512" viewBox="0 0 512 512" width="512" xmlns="http://www.w3.org/2000/svg"><g><g><g fill="#a79ba7"><path d="m51.554 429.236-21.518-19.527-25.581 23.217c-5.94 5.391-5.94 14.13.001 19.521 5.943 5.394 15.582 5.393 21.525 0z"/><path d="m136.601 158.369 21.524-19.521-25.592-23.208c-5.942-5.389-15.575-5.389-21.517.001-5.945 5.392-5.945 14.136.001 19.528z"/><path d="m194.424 354.576v-75.899h-29.602c-4.241 0-7.679 3.438-7.679 7.679v60.541c0 4.241 3.438 7.679 7.679 7.679z"/></g><path d="m202.516 484.482c-56.396-14.908-112.792-29.815-169.189-44.722-11.002-2.908-18.251-12.398-17.417-22.77 4.028-50.062 17.073-116.397 54.493-186.4 14.552-27.222 30.57-50.847 46.356-71.033 33.154-39.84 74.875-73.156 122.634-97.932l13.472-6.988 14.865-9.501-14.865 389.773-12.549 5.321c-14.937 6.334-24.482 19.943-24.482 34.905 0 6.319-6.578 10.936-13.318 9.347zm-20.543-77.461 9.89-136.499c1.386-19.135-15.341-35.347-36.471-35.347h-.001c-13.282 0-25.527 6.529-31.962 17.074-9.444 15.477-18.925 33.015-27.668 52.587-13.037 29.188-21.531 56.402-27.145 80.116-1.84 7.769 3.434 15.46 11.943 17.338l81.518 17.989c9.729 2.146 19.239-4.191 19.896-13.258z" fill="#f58a97"/><g><path d="m239.393 61.624c-5.749 2.982-11.405 6.095-16.974 9.321v319.885c0 8.264-4.941 15.727-12.549 18.953-14.937 6.333-24.482 19.943-24.482 34.905 0 6.32-6.578 10.937-13.318 9.348-51.936-13.728-103.871-27.456-155.807-41.185-.124 1.389-.243 2.772-.353 4.138-.835 10.372 6.414 19.862 17.417 22.771 56.396 14.907 112.793 29.814 169.189 44.722 6.74 1.589 13.318-3.028 13.318-9.348 0-14.962 9.545-28.572 24.482-34.905l12.549-5.322 12.123-387.739-12.123 7.467z" fill="#f07281"/></g><g><path d="m95.762 304.836c8.743-19.573 18.223-37.111 27.668-52.588 3.847-6.305 9.779-11.158 16.76-14.054-4.632-1.932-9.789-3.02-15.243-3.02-13.282 0-25.527 6.528-31.962 17.074-9.444 15.477-18.925 33.015-27.668 52.588-13.037 29.188-21.531 56.403-27.145 80.116-1.227 5.179.709 10.324 4.656 13.734 2.801 2.42 6.466 3.603 10.168 3.603h27.565c-8.509-1.878-13.782-9.568-11.943-17.337 5.613-23.713 14.106-50.928 27.144-80.116z" fill="#f07281"/></g><path d="m288.131 436.541v-409.338h-1.676c-18.551 0-33.59 15.039-33.59 33.59v7.031 368.717c0 9.276 7.519 16.795 16.795 16.795h1.676c9.276 0 16.795-7.519 16.795-16.795z" fill="#b5adb6"/><path d="m286.456 27.203c-4.822 0-9.402 1.024-13.547 2.853v391.262c0 9.276-7.52 16.795-16.795 16.795h-1.676c-.505 0-1.003-.032-1.497-.075.758 8.573 7.949 15.298 16.72 15.298h1.676c9.276 0 16.795-7.519 16.795-16.795v-409.338z" fill="#a79ba7"/></g><g><g><g><path d="m481.047 103.329h-131.933c-4.204 0-7.611-3.408-7.611-7.612s3.408-7.611 7.611-7.611h131.933c8.674 0 15.73-6.085 15.73-13.565s-7.057-13.565-15.73-13.565h-19.283c-4.204 0-7.612-3.408-7.612-7.611s3.408-7.611 7.612-7.611h19.283c17.068 0 30.953 12.914 30.953 28.788s-13.886 28.787-30.953 28.787z" fill="#f3eae6"/></g></g><g><g><path d="m481.047 434.785h-19.283c-4.204 0-7.612-3.407-7.612-7.611s3.408-7.612 7.612-7.612h19.283c8.674 0 15.73-6.085 15.73-13.564 0-7.48-7.057-13.565-15.73-13.565h-131.933c-4.204 0-7.611-3.407-7.611-7.611s3.408-7.612 7.611-7.612h131.933c17.068 0 30.953 12.914 30.953 28.788 0 15.873-13.886 28.787-30.953 28.787z" fill="#f3eae6"/></g></g><g><path d="m504.388 151.513h-109.605c-4.204 0-7.612-3.408-7.612-7.611 0-4.204 3.408-7.612 7.612-7.612h109.605c4.204 0 7.612 3.408 7.612 7.612 0 4.203-3.408 7.611-7.612 7.611z" fill="#f3eae6"/></g><g><path d="m504.388 199.697h-124.828c-4.204 0-7.612-3.408-7.612-7.611s3.408-7.611 7.612-7.611h124.828c4.204 0 7.612 3.408 7.612 7.611s-3.408 7.611-7.612 7.611z" fill="#f3eae6"/></g><g><path d="m504.388 247.881h-155.274c-4.204 0-7.611-3.407-7.611-7.611s3.408-7.611 7.611-7.611h155.275c4.204 0 7.612 3.407 7.612 7.611-.001 4.204-3.409 7.611-7.613 7.611z" fill="#f3eae6"/></g><g><path d="m504.388 296.065h-124.828c-4.204 0-7.612-3.407-7.612-7.612 0-4.204 3.408-7.611 7.612-7.611h124.828c4.204 0 7.612 3.407 7.612 7.611s-3.408 7.612-7.612 7.612z" fill="#f3eae6"/></g><g><path d="m504.388 344.249h-109.605c-4.204 0-7.612-3.407-7.612-7.612 0-4.204 3.408-7.611 7.612-7.611h109.605c4.204 0 7.612 3.407 7.612 7.611 0 4.205-3.408 7.612-7.612 7.612z" fill="#f3eae6"/></g></g></g></svg>