<svg id="Capa_1" enable-background="new 0 0 512 512" height="512" viewBox="0 0 512 512" width="512" xmlns="http://www.w3.org/2000/svg"><g><path d="m208.029 65.541c-1.195 18.634-5.083 44.119-16.649 72.056-3.859 9.321-8.079 17.722-12.348 25.206-3.615 6.338-1.387 14.4 5.011 17.908.069.038.137.075.206.113 5.142 2.82 11.541 1.863 15.609-2.361 4.908-5.096 9.924-10.937 14.791-17.598 18.883-25.846 26.636-51.884 30.099-69.267.299-9.978-4.679-19.305-13.029-24.282-10.968-6.534-22.307-2.316-23.69-1.775z" fill="#b5adb6"/><path d="m387.845 512h-130.917c-22.42 0-40.595-18.175-40.595-40.595v-171.33c0-40.859 18.234-79.587 49.728-105.618h112.65c31.494 26.031 49.728 64.758 49.728 105.618v171.331c.001 22.419-18.174 40.594-40.594 40.594z" fill="#fee97d"/><path d="m378.712 194.457h-14.775c21.785 24.814 34.058 56.885 34.058 90.394v45.781c0 91.759-74.385 166.145-166.145 166.145h-5.368c-.422 0-.839-.019-1.258-.032 7.439 9.295 18.872 15.255 31.704 15.255h130.918c22.42 0 40.595-18.175 40.595-40.595v-171.33c-.001-40.86-18.235-79.587-49.729-105.618z" fill="#fedf30"/><path d="m383.786 148.788h-122.799c-5.605 0-10.149 4.544-10.149 10.149v25.372c0 5.605 4.544 10.149 10.149 10.149h122.799c5.605 0 10.149-4.544 10.149-10.149v-25.372c-.001-5.605-4.544-10.149-10.149-10.149z" fill="#b5adb6"/><path d="m383.786 148.788h-30.446c5.605 0 10.149 4.544 10.149 10.149v25.372c0 5.605-4.544 10.149-10.149 10.149h30.446c5.605 0 10.149-4.544 10.149-10.149v-25.372c-.001-5.605-4.544-10.149-10.149-10.149z" fill="#a79ba7"/><path d="m389.444 94.028-5.916 11.831h-126.782c-8.646 0-15.654-7.009-15.654-15.654 0-8.646-7.009-15.654-15.654-15.654h-46.959v-46.532h237.921c11.506 0 20.834 9.327 20.834 20.834v2.987c0 10.365-7.62 19.154-17.88 20.623-12.904 1.848-24.081 9.907-29.91 21.565z" fill="#b3dafe"/><path d="m416.4 28.019h-30.446c11.506 0 20.834 9.327 20.834 20.833v2.988c0 10.365-7.62 19.154-17.88 20.623-12.903 1.847-24.08 9.906-29.909 21.564l-5.916 11.832h30.446l5.916-11.832c5.829-11.659 17.006-19.717 29.909-21.564 10.261-1.469 17.88-10.258 17.88-20.623v-2.988c-.001-11.505-9.328-20.833-20.834-20.833z" fill="#8ac9fe"/><path d="m148.033 22.945v56.681c0 5.605 4.544 10.149 10.149 10.149h10.149c5.605 0 10.149-4.544 10.149-10.149v-56.681c0-5.605-4.544-10.149-10.149-10.149h-10.149c-5.605 0-10.149 4.544-10.149 10.149z" fill="#b5adb6"/><path d="m261.245 105.86h122.283v42.928h-122.283z" fill="#fee97d"/><path d="m353.082 105.86h30.446v42.929h-30.446z" fill="#fedf30"/><g><g><path d="m99.668 60.893h-17.289c-4.204 0-7.611-3.408-7.611-7.611s3.408-7.611 7.611-7.611h17.289c4.204 0 7.611 3.408 7.611 7.611s-3.407 7.611-7.611 7.611z" fill="#fff9e2"/></g><g><path d="m82.387 106.562c-2.587 0-5.108-1.318-6.535-3.698-2.162-3.605-.992-8.28 2.613-10.442l17.289-10.368c3.606-2.162 8.28-.992 10.442 2.613s.992 8.28-2.613 10.443l-17.289 10.368c-1.226.735-2.575 1.084-3.907 1.084z" fill="#fff9e2"/></g><g><path d="m99.661 25.593c-1.332 0-2.681-.35-3.907-1.085l-17.289-10.368c-3.605-2.162-4.775-6.838-2.613-10.443 2.162-3.605 6.835-4.774 10.443-2.613l17.289 10.368c3.605 2.162 4.775 6.838 2.613 10.443-1.428 2.379-3.95 3.698-6.536 3.698z" fill="#fff9e2"/></g></g><circle cx="322.386" cy="353.229" fill="#fff9e2" r="73.093"/><path d="m356.108 357.99-18.965 6.987c-1.394.514-2.493 1.613-3.007 3.007l-6.987 18.965c-1.631 4.427-7.892 4.427-9.523 0l-6.987-18.965c-.514-1.394-1.613-2.493-3.007-3.007l-18.965-6.987c-4.427-1.631-4.427-7.892 0-9.523l18.965-6.987c1.394-.514 2.493-1.613 3.007-3.007l6.987-18.965c1.631-4.427 7.892-4.427 9.523 0l6.987 18.965c.514 1.394 1.613 2.493 3.007 3.007l18.965 6.987c4.426 1.631 4.426 7.892 0 9.523z" fill="#fee97d"/></g></svg>