<svg id="Capa_1" enable-background="new 0 0 512 512" height="512" viewBox="0 0 512 512" width="512" xmlns="http://www.w3.org/2000/svg"><g><path d="m496.62 349.262-224.833-139.247v-21.622c26.13-2.106 46.745-24.013 46.745-50.638v-3.484c0-28.766-23.437-52.168-52.244-52.168h-2.926c-21.049 0-39.23 12.493-47.497 30.443-4.677 10.156 2.949 21.725 14.129 21.725 6.042 0 11.464-3.551 14.042-9.016 3.411-7.23 10.791-12.247 19.326-12.247h2.926c11.767 0 21.339 9.539 21.339 21.263v3.484c0 10.972-8.96 19.898-19.972 19.898-14.763 0-26.774 12-26.774 26.749v25.198l-225.499 139.661c-9.632 5.965-15.382 16.29-15.382 27.621 0 17.914 14.572 32.487 32.483 32.487h447.034c17.911 0 32.483-14.573 32.483-32.487 0-11.33-5.75-21.656-15.38-27.62zm-17.103 29.152h-447.034c-.844 0-1.531-.687-1.531-1.532 0-.534.271-1.021.725-1.302l224.323-138.932 224.324 138.932c.453.281.724.768.724 1.302 0 .845-.687 1.532-1.531 1.532z" fill="#d1a08f"/><g fill="#c68d7a"><path d="m31.677 375.579 224.323-138.931c-9.208-6.143-21.156-6.34-30.562-.503l-200.231 124.269c-8.32 5.164-4.661 17.999 5.131 17.999h2.145c-.844 0-1.531-.687-1.531-1.532 0-.533.271-1.02.725-1.302z"/><path d="m496.62 349.262-224.833-139.247v-21.622c26.13-2.106 46.745-24.013 46.745-50.638v-3.484c0-28.766-23.437-52.169-52.244-52.169h-2.926c-4.85 0-9.544.671-14.003 1.911 22.04 6.12 38.268 26.326 38.268 50.258v3.484c0 26.625-20.616 48.532-46.745 50.638v21.208.414l224.833 139.247c9.63 5.964 15.38 16.29 15.38 27.619 0 17.915-14.572 32.488-32.483 32.488h30.905c17.911 0 32.483-14.573 32.483-32.488 0-11.329-5.75-21.655-15.38-27.619z"/></g><g><g><path d="m156.035 429.897h-31.861c-4.552 0-8.242-3.69-8.242-8.241v-56.867c0-4.552 3.69-8.241 8.242-8.241h31.861c4.552 0 8.242 3.69 8.242 8.241v56.867c0 4.551-3.69 8.241-8.242 8.241z" fill="#b5adb6"/></g><path d="m387.826 429.897h-31.861c-4.552 0-8.241-3.69-8.241-8.241v-56.867c0-4.552 3.69-8.241 8.241-8.241h31.861c4.552 0 8.241 3.69 8.241 8.241v56.867c0 4.551-3.689 8.241-8.241 8.241z" fill="#b5adb6"/><g fill="#a79ba7"><path d="m387.826 356.547h-15.931v34.369c0 13.35-10.822 24.172-24.172 24.172v6.567c0 4.552 3.69 8.241 8.241 8.241h31.861c4.552 0 8.241-3.69 8.241-8.241v-56.867c.001-4.551-3.688-8.241-8.24-8.241z"/><path d="m156.035 356.547h-15.931v34.369c0 13.35-10.822 24.172-24.172 24.172v6.567c0 4.552 3.69 8.241 8.242 8.241h31.861c4.552 0 8.242-3.69 8.242-8.241v-56.867c0-4.551-3.69-8.241-8.242-8.241z"/></g></g></g></svg>