<svg id="Capa_1" enable-background="new 0 0 512 512" height="512" viewBox="0 0 512 512" width="512" xmlns="http://www.w3.org/2000/svg"><g><path d="m361.879 512h-211.759c-22.758 0-41.207-18.449-41.207-41.207v-311.805l61.811-104.288h170.552l61.811 104.288v311.805c0 22.758-18.449 41.207-41.208 41.207z" fill="#b3dafe"/><path d="m341.276 54.701h-21.747l39.739 67.048c8.453 14.261 12.913 30.534 12.913 47.113v123.788c0 112.61-91.288 203.898-203.898 203.898h-49.068c-.428 0-.851-.019-1.277-.032 7.552 9.434 19.157 15.484 32.182 15.484h211.759c22.758 0 41.207-18.449 41.207-41.207v-311.805z" fill="#8ac9fe"/><path d="m348.486 0h-184.972c-10.187 0-18.444 8.163-18.444 18.234v18.233c0 10.07 8.258 18.234 18.444 18.234h184.971c10.187 0 18.444-8.163 18.444-18.234v-18.233c.001-10.071-8.257-18.234-18.443-18.234z" fill="#b5adb6"/><path d="m348.486 0h-30.906c10.187 0 18.445 8.163 18.445 18.233v18.233c0 10.07-8.258 18.234-18.445 18.234h30.905c10.187 0 18.445-8.163 18.445-18.234v-18.233c0-10.07-8.258-18.233-18.444-18.233z" fill="#a79ba7"/><g><path d="m108.913 158.988h294.174v248.724h-294.174z" fill="#eaf6ff"/><path d="m371.644 158.988c.351 3.27.537 6.565.537 9.873v123.788c0 42.692-13.13 82.312-35.559 115.063h66.464v-248.724z" fill="#d8ecfe"/><g><path d="m341.223 376.807h-170.446c-24.824 0-39.518-27.789-25.542-48.305l85.223-125.102c12.267-18.007 38.817-18.007 51.084 0l85.223 125.102c13.976 20.516-.718 48.305-25.542 48.305z" fill="#fff"/><g><g><g><path d="m290.238 343.606c-6.87 0-7.292-.072-7.841-.166-3.709-.636-6.422-3.852-6.422-7.616v-61.549c0-4.268 3.459-7.726 7.726-7.726 4.268 0 7.726 3.459 7.726 7.726v53.874c3.991-.005 9.065-.025 13.802-.051h.044c4.247 0 7.701 3.431 7.725 7.683.024 4.268-3.417 7.745-7.683 7.77-6.994.039-11.779.055-15.077.055z" fill="#b3dafe"/></g></g><g><g><path d="m237.527 343.603c-21.243 0-38.527-17.284-38.527-38.527s17.284-38.527 38.527-38.527c7.718 0 15.169 2.277 21.546 6.585 3.536 2.388 4.466 7.191 2.078 10.727s-7.191 4.465-10.727 2.077c-3.813-2.576-8.273-3.937-12.896-3.937-12.723 0-23.075 10.351-23.075 23.074s10.351 23.074 23.075 23.074c4.708 0 8.667-1.399 11.766-4.159.605-.538 1.183-1.136 1.718-1.775 2.742-3.269 7.616-3.696 10.885-.956 3.27 2.742 3.697 7.616.956 10.885-1.016 1.211-2.12 2.35-3.282 3.384-5.93 5.283-13.553 8.075-22.044 8.075z" fill="#b3dafe"/></g></g></g></g></g></g></svg>