<svg id="Capa_1" enable-background="new 0 0 512 512" height="512" viewBox="0 0 512 512" width="512" xmlns="http://www.w3.org/2000/svg"><g><path d="m435.264 512h-358.528c-15.196 0-27.515-12.161-27.515-27.162v-378.706c0-10.403 6.02-19.893 15.501-24.436l54.62-26.17 273.895-.951 54.397 27.023c9.287 4.614 15.147 14 15.147 24.263v378.977c-.001 15.001-12.321 27.162-27.517 27.162z" fill="#fee97d"/><path d="m447.633 81.599-29.027-14.42c8.189 4.893 13.269 13.679 13.269 23.23.064 42.174.127 84.347.19 126.521.232 154.198-124.625 279.366-278.823 279.518l-101.338.1c4.429 9.139 13.883 15.452 24.832 15.452h358.528c15.196 0 27.516-12.161 27.516-27.162v-378.976c0-10.263-5.86-19.65-15.147-24.263z" fill="#fedf30"/><path d="m278.664 288.451h-45.328c-4.552 0-8.242-3.69-8.242-8.241v-199.856h61.811v199.855c0 4.552-3.689 8.242-8.241 8.242z" fill="#fef0ae"/><g><ellipse cx="256" cy="151.427" fill="#fedf30" rx="7.726" ry="7.726" transform="matrix(.23 -.973 .973 .23 49.807 365.788)"/></g><g><ellipse cx="256" cy="197.785" fill="#fedf30" rx="7.726" ry="7.726" transform="matrix(.707 -.707 .707 .707 -64.875 238.949)"/></g><g><ellipse cx="256" cy="244.143" fill="#fedf30" rx="7.726" ry="7.726" transform="matrix(.23 -.973 .973 .23 -40.429 437.203)"/></g><path d="m401.275 273.82h-52.865c-11.324 0-20.504-9.18-20.504-20.504v-72.36h93.872v72.36c0 11.325-9.179 20.504-20.503 20.504z" fill="#fedf30"/><g><path d="m358 0-102.143 90.177-98.052-90.177z" fill="#fef0ae"/><g fill="#fedf30"><path d="m255.857 90.177-50.212 31.266c-7.299 4.545-16.809 3.513-22.935-2.487l-62.762-61.485 37.857-57.471z"/><path d="m392.629 56.404-63.612 62.519c-6.122 6.018-15.646 7.059-22.954 2.509l-50.207-31.255 102.144-90.177z"/></g></g></g></svg>