<svg id="Capa_1" enable-background="new 0 0 512 512" height="512" viewBox="0 0 512 512" width="512" xmlns="http://www.w3.org/2000/svg"><g><g fill="#dedbee"><path d="m309.054 303.474h61.811v176.504h-61.811z"/><path d="m141.135 303.474h61.811v176.504h-61.811z"/><path d="m141.135 30.905h61.811v176.504h-61.811z"/><path d="m309.054 30.905h61.811v176.504h-61.811z"/><path d="m215.652 235.803h80.696v46.855h-80.696z"/></g><path d="m125.682 512h-94.777c-17.068 0-30.905-13.837-30.905-30.905v-450.19c0-17.068 13.837-30.905 30.905-30.905h94.777c17.068 0 30.905 13.837 30.905 30.905v450.189c0 17.069-13.836 30.906-30.905 30.906z" fill="#aca6d6"/><path d="m125.682 0h-4.145c2.631 4.547 4.145 9.821 4.145 15.453v359.557c0 67.123-54.414 121.537-121.537 121.537 5.344 9.235 15.323 15.453 26.76 15.453h94.777c17.068 0 30.905-13.837 30.905-30.905v-450.19c0-17.068-13.836-30.905-30.905-30.905z" fill="#978ecb"/><path d="m481.095 512h-94.777c-17.069 0-30.905-13.837-30.905-30.905v-450.19c0-17.068 13.836-30.905 30.905-30.905h94.777c17.068 0 30.905 13.837 30.905 30.905v450.189c0 17.069-13.837 30.906-30.905 30.906z" fill="#aca6d6"/><path d="m481.095 0h-4.145c2.631 4.547 4.145 9.821 4.145 15.453v359.557c0 67.123-54.414 121.537-121.537 121.537 5.344 9.235 15.322 15.453 26.76 15.453h94.777c17.068 0 30.905-13.837 30.905-30.905v-450.19c0-17.068-13.837-30.905-30.905-30.905z" fill="#978ecb"/><path d="m293.602 0h-75.203c-17.069 0-30.905 13.837-30.905 30.905v178.737c0 17.068 13.837 30.905 30.905 30.905h75.203c17.069 0 30.905-13.837 30.905-30.905v-178.737c0-17.068-13.837-30.905-30.905-30.905z" fill="#aca6d6"/><path d="m293.602 271.453h-75.203c-17.069 0-30.905 13.837-30.905 30.905v178.737c0 17.068 13.837 30.905 30.905 30.905h75.203c17.069 0 30.905-13.837 30.905-30.905v-178.737c0-17.068-13.837-30.905-30.905-30.905z" fill="#aca6d6"/><path d="m293.602 0h-4.145c2.631 4.547 4.145 9.821 4.145 15.453v107.678c0 56.313-45.651 101.964-101.964 101.964 5.345 9.235 15.323 15.453 26.761 15.453h75.203c17.069 0 30.905-13.837 30.905-30.905v-178.738c0-17.068-13.837-30.905-30.905-30.905z" fill="#978ecb"/><path d="m293.602 271.453h-4.145c2.631 4.547 4.145 9.822 4.145 15.453v107.678c0 56.313-45.651 101.964-101.964 101.964 5.345 9.235 15.323 15.453 26.761 15.453h75.203c17.069 0 30.905-13.837 30.905-30.905v-178.738c0-17.068-13.837-30.905-30.905-30.905z" fill="#978ecb"/><g fill="#c2bce0"><g><ellipse cx="401.771" cy="46.358" rx="7.726" ry="7.726" transform="matrix(.23 -.973 .973 .23 264.345 426.73)"/><ellipse cx="401.771" cy="106.256" rx="7.726" ry="7.726" transform="matrix(.707 -.707 .707 .707 42.542 315.216)"/><ellipse cx="401.771" cy="166.153" rx="7.726" ry="7.726" transform="matrix(.707 -.707 .707 .707 .188 332.76)"/><circle cx="401.771" cy="226.051" r="7.726"/><circle cx="401.771" cy="285.949" r="7.726"/><ellipse cx="401.771" cy="345.847" rx="7.726" ry="7.726" transform="matrix(.23 -.973 .973 .23 -27.132 657.411)"/><ellipse cx="401.771" cy="405.744" rx="7.726" ry="7.726" transform="matrix(.23 -.973 .973 .23 -85.427 703.547)"/><ellipse cx="401.771" cy="465.642" rx="7.726" ry="7.726" transform="matrix(.707 -.707 .707 .707 -211.583 420.478)"/></g><g><ellipse cx="465.642" cy="46.358" rx="7.726" ry="7.726" transform="matrix(.707 -.707 .707 .707 103.603 342.837)"/><ellipse cx="465.642" cy="106.256" rx="7.726" ry="7.726" transform="matrix(.23 -.973 .973 .23 255.245 535.029)"/><ellipse cx="465.642" cy="166.153" rx="7.726" ry="7.726" transform="matrix(.23 -.973 .973 .23 196.95 581.164)"/><circle cx="465.642" cy="226.051" r="7.726"/><circle cx="465.642" cy="285.949" r="7.726"/><ellipse cx="465.642" cy="345.847" rx="7.726" ry="7.726" transform="matrix(.707 -.707 .707 .707 -108.167 430.555)"/><ellipse cx="465.642" cy="405.744" rx="7.726" ry="7.726" transform="matrix(.707 -.707 .707 .707 -150.521 448.098)"/><ellipse cx="465.642" cy="465.642" rx="7.726" ry="7.726" transform="matrix(.23 -.973 .973 .23 -94.527 811.844)"/></g></g><g fill="#c2bce0"><g><ellipse cx="46.358" cy="46.358" rx="7.726" ry="7.726" transform="matrix(.23 -.973 .973 .23 -9.411 80.825)"/><ellipse cx="46.358" cy="106.256" rx="7.726" ry="7.726" transform="matrix(.707 -.707 .707 .707 -61.556 63.902)"/><ellipse cx="46.358" cy="166.153" rx="7.726" ry="7.726" transform="matrix(.707 -.707 .707 .707 -103.91 81.445)"/><circle cx="46.358" cy="226.051" r="7.726"/><circle cx="46.358" cy="285.949" r="7.726"/><ellipse cx="46.358" cy="345.847" rx="7.726" ry="7.726" transform="matrix(.23 -.973 .973 .23 -300.888 311.506)"/><ellipse cx="46.358" cy="405.744" rx="7.726" ry="7.726" transform="matrix(.23 -.973 .973 .23 -359.183 357.642)"/><ellipse cx="46.358" cy="465.642" rx="7.726" ry="7.726" transform="matrix(.707 -.707 .707 .707 -315.681 169.164)"/></g><g><ellipse cx="110.229" cy="46.358" rx="7.726" ry="7.726" transform="matrix(.707 -.707 .707 .707 -.495 91.522)"/><ellipse cx="110.229" cy="106.256" rx="7.726" ry="7.726" transform="matrix(.23 -.973 .973 .23 -18.51 189.124)"/><ellipse cx="110.229" cy="166.153" rx="7.726" ry="7.726" transform="matrix(.23 -.973 .973 .23 -76.805 235.26)"/><circle cx="110.229" cy="226.051" r="7.726"/><circle cx="110.229" cy="285.949" r="7.726"/><ellipse cx="110.229" cy="345.847" rx="7.726" ry="7.726" transform="matrix(.707 -.707 .707 .707 -212.265 179.24)"/><ellipse cx="110.229" cy="405.744" rx="7.726" ry="7.726" transform="matrix(.707 -.707 .707 .707 -254.619 196.784)"/><ellipse cx="110.229" cy="465.642" rx="7.726" ry="7.726" transform="matrix(.23 -.973 .973 .23 -368.282 465.939)"/></g></g></g></svg>