<svg id="Capa_1" enable-background="new 0 0 512 512" height="512" viewBox="0 0 512 512" width="512" xmlns="http://www.w3.org/2000/svg"><g><g><path d="m132.378 195.75c-4.268 0-7.726-3.459-7.726-7.726v-33.102c0-4.267 3.459-7.726 7.726-7.726 4.268 0 7.726 3.459 7.726 7.726v33.102c.001 4.267-3.458 7.726-7.726 7.726z" fill="#dedbee"/></g><g><path d="m379.622 195.75c-4.268 0-7.726-3.459-7.726-7.726v-33.102c0-4.267 3.459-7.726 7.726-7.726 4.268 0 7.726 3.459 7.726 7.726v33.102c0 4.267-3.459 7.726-7.726 7.726z" fill="#dedbee"/></g><path d="m30.905 218.929h450.189v262.166h-450.189z" fill="#f3eae6"/><path d="m450.189 218.929v74.424c0 95.153-77.136 172.289-172.289 172.289h-246.995v15.453h450.189v-262.166z" fill="#e1d3ce"/><path d="m506.849 512h-501.698c-2.845 0-5.151-2.306-5.151-5.151v-20.604c0-2.845 2.306-5.151 5.151-5.151h501.698c2.845 0 5.151 2.306 5.151 5.151v20.604c0 2.845-2.306 5.151-5.151 5.151z" fill="#b5adb6"/><path d="m506.849 481.095h-30.905c2.845 0 5.151 2.306 5.151 5.151v20.604c0 2.845-2.306 5.151-5.151 5.151h30.905c2.845 0 5.151-2.306 5.151-5.151v-20.604c0-2.845-2.306-5.151-5.151-5.151z" fill="#a79ba7"/><path d="m506.849 218.929h-501.698c-2.845 0-5.151-2.306-5.151-5.151v-20.604c0-2.845 2.306-5.151 5.151-5.151h501.698c2.845 0 5.151 2.306 5.151 5.151v20.604c0 2.845-2.306 5.151-5.151 5.151z" fill="#b5adb6"/><path d="m506.849 188.024h-30.905c2.845 0 5.151 2.306 5.151 5.151v20.604c0 2.845-2.306 5.151-5.151 5.151h30.905c2.845 0 5.151-2.306 5.151-5.151v-20.604c0-2.846-2.306-5.151-5.151-5.151z" fill="#a79ba7"/><path d="m399.71 154.922h-287.42c-5.689 0-10.302-4.612-10.302-10.302v-134.318c0-5.69 4.612-10.302 10.302-10.302h287.42c5.689 0 10.302 4.612 10.302 10.302v134.318c0 5.69-4.612 10.302-10.302 10.302z" fill="#d1a08f"/><path d="m399.71 0h-30.905c5.69 0 10.302 4.612 10.302 10.302v134.318c0 5.69-4.612 10.302-10.302 10.302h30.905c5.69 0 10.302-4.612 10.302-10.302v-134.318c0-5.69-4.612-10.302-10.302-10.302z" fill="#c68d7a"/><g><path d="m251.364 481.095h-174.1v-205.506c0-5.69 4.612-10.302 10.302-10.302h153.497c5.69 0 10.302 4.612 10.302 10.302v205.506z" fill="#d1a08f"/><path d="m77.264 465.642h174.101v15.453h-174.101z" fill="#c68d7a"/><g><path d="m194.577 315.09-23.386-45.671c-2.467-5.287-11.256-5.831-13.9.302l-21.251 46.358c-1.779 3.878-.075 8.465 3.804 10.242 1.043.479 2.137.705 3.214.705 2.928 0 5.729-1.673 7.028-4.509l14.612-31.876 16.125 31.491c1.368 2.671 4.075 4.207 6.883 4.207 1.185 0 2.388-.274 3.515-.851 3.799-1.944 5.301-6.6 3.356-10.398z" fill="#fff9e2"/><path d="m199.715 352.103h-70.802c-2.793 0-5.057-2.264-5.057-5.057v-30.344c0-2.793 2.264-5.057 5.057-5.057h70.802c2.793 0 5.057 2.264 5.057 5.057v30.344c0 2.793-2.264 5.057-5.057 5.057z" fill="#fee97d"/></g></g><g><path d="m426.495 365.057h-120.531c-4.552 0-8.242-3.69-8.242-8.241v-83.287c0-4.552 3.69-8.241 8.242-8.241h120.531c4.552 0 8.241 3.69 8.241 8.241v83.287c0 4.551-3.689 8.241-8.241 8.241z" fill="#b3dafe"/><path d="m373.956 307.446v-42.154-.005h-15.453v.005 42.154h-60.781v15.452h60.781v42.157.002h15.453v-.002-42.157h60.78v-15.452z" fill="#eaf6ff"/></g><g fill="#fff"><path d="m178.298 108.55h.001z"/><path d="m333.702 108.55-69.976-32.386v-7.097c10.331-3.581 16.927-14.014 15.719-24.95-1.197-10.849-9.942-19.593-20.791-20.791-6.7-.745-13.4 1.398-18.391 5.868-4.993 4.472-7.856 10.879-7.856 17.578 0 4.267 3.459 7.726 7.726 7.726 4.268 0 7.726-3.459 7.726-7.726 0-2.346.964-4.5 2.713-6.067 1.747-1.564 4.013-2.281 6.385-2.02 3.659.404 6.723 3.468 7.127 7.128.432 3.903-1.845 7.478-5.535 8.693-6.147 2.023-10.277 7.823-10.277 14.431v7.227l-69.976 32.386c-5.222 2.416-8.004 8.029-6.768 13.648 1.238 5.62 6.121 9.545 11.875 9.545h145.189c5.754 0 10.638-3.925 11.875-9.545 1.239-5.619-1.544-11.232-6.765-13.648zm-135.337 7.74 57.635-26.674 57.635 26.674z"/></g></g></svg>