<svg id="Capa_1" enable-background="new 0 0 512 512" height="512" viewBox="0 0 512 512" width="512" xmlns="http://www.w3.org/2000/svg"><g><g><path d="m140.652 427.946c-31.346 0-62.435-6.622-85.661-19.293-22.128-12.071-36.851-29.197-42.579-49.528-11.441-40.602 13.679-91.44 63.996-129.516 6.807-5.149 16.499-3.807 21.647 2.998 5.15 6.805 3.808 16.497-2.997 21.647-19.362 14.651-35.224 32.464-44.666 50.156-9.115 17.08-11.962 33.102-8.233 46.333 3.47 12.314 12.767 22.669 27.633 30.778 30.913 16.863 81.578 20.453 120.468 8.533 83.664-25.642 107.007-124.346 107.96-128.535 1.893-8.321 10.177-13.535 18.495-11.641 8.322 1.893 13.534 10.173 11.641 18.495-.757 3.33-7.958 33.481-27.331 66.411-25.192 42.816-60.361 72.146-101.708 84.818-18.313 5.613-38.545 8.344-58.665 8.344z" fill="#f3eae6"/></g><path d="m386.324 512h-237.773c-20.464 0-37.828-15.018-40.777-35.269l-41.222-283.057h401.771l-41.222 283.057c-2.949 20.251-20.313 35.269-40.777 35.269z" fill="#aca6d6"/><path d="m468.323 162.769h-401.771c-8.534 0-15.453 6.918-15.453 15.453 0 8.534 6.918 15.453 15.453 15.453h401.771c8.534 0 15.453-6.918 15.453-15.453 0-8.535-6.919-15.453-15.453-15.453z" fill="#f3eae6"/><path d="m468.323 162.769h-30.905c8.534 0 15.453 6.919 15.453 15.453s-6.918 15.453-15.453 15.453h30.905c8.534 0 15.453-6.918 15.453-15.453s-6.919-15.453-15.453-15.453z" fill="#e1d3ce"/><path d="m435.167 193.674c-3.532 22.17-7.063 44.341-10.595 66.511-21.764 136.628-139.859 237.007-278.208 236.473-9.573-.037-19.145-.074-28.718-.111-.429 0-.855-.016-1.281-.029 7.601 9.5 19.274 15.482 32.186 15.482h237.773c20.464 0 37.828-15.018 40.777-35.269l41.222-283.057z" fill="#978ecb"/><g><path d="m42.158 350.743c3.47 12.314 12.767 22.669 27.633 30.778 30.913 16.863 81.578 20.453 120.468 8.533 83.664-25.642 107.007-124.346 107.96-128.535 1.893-8.321 10.177-13.535 18.495-11.641 8.322 1.893 13.534 10.173 11.641 18.495-.757 3.33-7.958 33.481-27.331 66.411-25.192 42.816-60.361 72.146-101.708 84.818-18.311 5.612-38.543 8.343-58.663 8.343-31.346 0-62.435-6.622-85.661-19.293-22.128-12.071-36.851-29.197-42.579-49.528z" fill="#f3eae6"/></g><ellipse cx="313.308" cy="271.714" fill="#978ecb" rx="35.924" ry="35.924" transform="matrix(.23 -.973 .973 .23 -23.121 514.213)"/><path d="m274.751 192.631c0 14.334-11.62 25.954-25.954 25.954-14.334 0-25.954-11.62-25.954-25.954v84.99c0 18.601-15.079 33.68-33.68 33.68-18.601 0-33.681-15.079-33.681-33.681v-108.67c0-3.414-2.767-6.181-6.181-6.181h-70.225c4.462-56.689 51.878-101.301 109.714-101.301 30.092 0 57.359 12.082 77.227 31.654 9.583-3.785 20.014-5.887 30.942-5.887 28.604 0 53.862 14.261 69.101 36.046 9.191-10.938 22.884-17.967 38.23-18.215 28.514-.46 51.852 23.314 51.852 51.832v5.871h-175.21c-3.414 0-6.181 2.767-6.181 6.181z" fill="#b3dafe"/><g fill="#8ac9fe"><path d="m204.589 179.865c-7.316 1.285-12.651 7.64-12.651 15.067v82.688c0 13.029-7.403 24.322-18.228 29.924 4.629 2.395 9.881 3.757 15.453 3.757 18.601 0 33.68-15.079 33.68-33.68v-82.743c0-9.508-8.581-16.712-17.945-15.068-.103.019-.206.037-.309.055z"/><path d="m274.751 169.594h-12.089c-10.392 0-18.816 8.424-18.816 18.816v4.221c0 8.544-4.13 16.123-10.501 20.852 4.317 3.204 9.663 5.102 15.453 5.102 13.638 0 24.812-10.522 25.865-23.889.059-.928.089-1.828.089-2.688v-22.414z"/></g><g fill="#8ac9fe"><path d="m157.885 76.92c25.03 0 48.106 8.359 66.595 22.435 6.678 5.084 15.263 7.103 23.459 5.298 5.834-1.285 11.894-1.966 18.115-1.966 20.537 0 39.35 7.351 53.967 19.561 8.751 7.31 21.143 8.797 31.333 3.681 4.16-2.088 8.646-3.625 13.36-4.515-15.355-20.729-39.977-34.18-67.755-34.18-10.928 0-21.359 2.102-30.942 5.887-19.868-19.572-47.135-31.654-77.227-31.654-23.874 0-45.969 7.608-64.004 20.523 10.448-3.291 21.565-5.07 33.099-5.07z"/><path d="m405.128 105.058c-14.514 0-27.599 6.074-36.888 15.805 1.963-.229 3.958-.352 5.983-.352 25.187 0 46.095 18.258 50.25 42.257h31.67v-6.696c-.001-28.174-22.84-51.014-51.015-51.014z"/></g><g fill="#b3dafe"><ellipse cx="478.28" cy="24.039" rx="24.039" ry="24.039" transform="matrix(.16 -.987 .987 .16 377.939 492.292)"/><ellipse cx="324.098" cy="39.147" rx="18.543" ry="18.543" transform="matrix(.707 -.707 .707 .707 67.245 240.637)"/><ellipse cx="398.02" cy="61.344" rx="7.726" ry="7.726" transform="matrix(.707 -.707 .707 .707 73.201 299.41)"/></g></g></svg>