<svg id="Capa_1" enable-background="new 0 0 512 512" height="512" viewBox="0 0 512 512" width="512" xmlns="http://www.w3.org/2000/svg"><g><g><path d="m34.913 278.932c21.572 3.029 25.662 13.619 54.249 13.619 33.368 0 33.368-14.423 66.735-14.423 33.357 0 33.357 14.423 66.725 14.423s33.368-14.423 66.735-14.423 33.367 14.423 66.735 14.423c33.378 0 33.378-14.423 66.745-14.423 27.341 0 32.276 9.684 51.53 13.186l11.873 43.578-46.775 148.622-353.073 9.807-25.65-15.843-38.475-157.674z" fill="#b3dafe"/></g><g><path d="m419.805 512h-327.61c-23.325 0-43.133-15.968-48.172-38.83l-43.631-198.025c-1.961-8.902 3.638-17.716 12.506-19.685 8.864-1.971 17.646 3.652 19.609 12.553l43.631 198.025c1.68 7.621 8.283 12.944 16.058 12.944h327.61c7.775 0 14.378-5.322 16.057-12.944l43.631-198.025c1.961-8.901 10.734-14.524 19.609-12.553 8.868 1.969 14.468 10.782 12.506 19.685l-43.633 198.025c-5.038 22.862-24.846 38.83-48.171 38.83z" fill="#eaf6ff"/></g><g><path d="m499.102 255.46c-8.875-1.971-17.647 3.652-19.609 12.553l-43.631 198.025c-.973 4.417-3.607 8.052-7.157 10.336-9.032 12.423-23.563 20.173-39.806 20.173h-327.609c-1.776 0-3.528-.104-5.259-.285 9.055 9.803 21.953 15.738 36.164 15.738h327.61c23.325 0 43.133-15.968 48.171-38.831l43.632-198.025c1.962-8.902-3.638-17.715-12.506-19.684z" fill="#d8ecfe"/></g><g fill="#b3dafe"><ellipse cx="135.469" cy="182.857" rx="25.239" ry="25.239" transform="matrix(.16 -.987 .987 .16 -66.727 287.286)"/><circle cx="243.123" cy="135.984" r="19.319"/><ellipse cx="259.513" cy="31.19" rx="31.19" ry="31.19" transform="matrix(.122 -.993 .993 .122 196.848 284.948)"/></g><g><ellipse cx="419.548" cy="419.548" fill="#7acaa6" rx="92.452" ry="92.452" transform="matrix(.707 -.707 .707 .707 -173.783 419.548)"/><path d="m444.663 330.55c22.141 16.891 36.432 43.547 36.432 73.545 0 51.059-41.392 92.452-92.452 92.452-8.705 0-17.128-1.205-25.115-3.454 15.545 11.859 34.958 18.907 56.02 18.907 51.06 0 92.452-41.392 92.452-92.452 0-42.354-28.482-78.055-67.337-88.998z" fill="#57be92"/><g fill="#faf7f7"><path d="m385.86 376.983c-12.14 0-22.649 8.637-24.986 20.536-.823 4.186 1.905 8.247 6.092 9.07 4.188.823 8.248-1.904 9.071-6.092.918-4.671 5.049-8.061 9.823-8.061 5.52 0 10.011 4.491 10.011 10.011s-4.491 10.011-10.011 10.011c-4.267 0-7.726 3.459-7.726 7.726 0 4.268 3.459 7.726 7.726 7.726 5.52 0 10.011 4.491 10.011 10.011s-4.491 10.011-10.011 10.011c-4.968 0-9.23-3.699-9.914-8.605-.065-.464-.098-.937-.098-1.406 0-4.268-3.459-7.726-7.726-7.726s-7.726 3.459-7.726 7.726c0 1.181.082 2.372.245 3.541 1.743 12.498 12.585 21.923 25.219 21.923 14.041 0 25.464-11.423 25.464-25.464 0-6.892-2.756-13.148-7.219-17.737 4.463-4.589 7.219-10.846 7.219-17.737-.001-14.042-11.424-25.464-25.464-25.464z"/><path d="m450.929 375.71c-15.313 0-27.772 12.459-27.772 27.772v32.058c0 15.313 12.458 27.772 27.772 27.772 15.313 0 27.772-12.459 27.772-27.772v-32.058c-.001-15.313-12.459-27.772-27.772-27.772zm12.318 59.83c0 6.793-5.526 12.319-12.319 12.319s-12.319-5.526-12.319-12.319v-32.058c0-6.793 5.526-12.319 12.319-12.319s12.319 5.526 12.319 12.319z"/></g></g></g></svg>