<svg id="Capa_1" enable-background="new 0 0 512 512" height="512" viewBox="0 0 512 512" width="512" xmlns="http://www.w3.org/2000/svg"><g><g><path d="m34.913 278.932c21.572 3.029 25.662 13.619 54.249 13.619 33.368 0 33.368-14.423 66.735-14.423 33.357 0 33.357 14.423 66.725 14.423s33.368-14.423 66.735-14.423 33.367 14.423 66.735 14.423c33.378 0 33.378-14.423 66.745-14.423 27.341 0 32.276 9.684 51.53 13.186l11.873 43.578-46.775 148.622-353.073 9.807-25.65-15.843-38.475-157.674z" fill="#b3dafe"/></g><g><path d="m419.805 512h-327.61c-23.325 0-43.133-15.968-48.172-38.83l-43.631-198.025c-1.961-8.902 3.638-17.716 12.506-19.685 8.864-1.971 17.646 3.652 19.609 12.553l43.631 198.025c1.68 7.621 8.283 12.944 16.058 12.944h327.61c7.775 0 14.378-5.322 16.057-12.944l43.631-198.025c1.961-8.901 10.734-14.524 19.609-12.553 8.868 1.969 14.468 10.782 12.506 19.685l-43.633 198.025c-5.038 22.862-24.846 38.83-48.171 38.83z" fill="#eaf6ff"/></g><g><path d="m499.102 255.46c-8.875-1.971-17.647 3.652-19.609 12.553l-43.631 198.025c-.973 4.417-3.607 8.052-7.157 10.336-9.032 12.423-23.563 20.173-39.806 20.173h-327.609c-1.776 0-3.528-.104-5.259-.285 9.055 9.803 21.953 15.738 36.164 15.738h327.61c23.325 0 43.133-15.968 48.171-38.831l43.632-198.025c1.962-8.902-3.638-17.715-12.506-19.684z" fill="#d8ecfe"/></g><g fill="#b3dafe"><ellipse cx="135.469" cy="182.857" rx="25.239" ry="25.239" transform="matrix(.16 -.987 .987 .16 -66.727 287.286)"/><circle cx="243.123" cy="135.984" r="19.319"/><ellipse cx="259.513" cy="31.19" rx="31.19" ry="31.19" transform="matrix(.122 -.993 .993 .122 196.848 284.948)"/></g><g><ellipse cx="419.548" cy="419.548" fill="#fee97d" rx="92.452" ry="92.452" transform="matrix(.707 -.707 .707 .707 -173.783 419.548)"/><path d="m444.663 330.55c22.141 16.891 36.432 43.547 36.432 73.545 0 51.059-41.392 92.452-92.452 92.452-8.705 0-17.128-1.205-25.115-3.454 15.545 11.859 34.958 18.907 56.02 18.907 51.06 0 92.452-41.392 92.452-92.452 0-42.354-28.482-78.055-67.337-88.998z" fill="#fedf30"/><g fill="#fff"><path d="m451.517 376.679c-15.327 0-27.797 12.469-27.797 27.796v32.098c0 15.327 12.47 27.797 27.797 27.797s27.796-12.47 27.796-27.797v-32.098c0-15.327-12.469-27.796-27.796-27.796zm12.343 59.893c0 6.807-5.537 12.344-12.343 12.344s-12.344-5.537-12.344-12.344v-32.098c0-6.806 5.538-12.343 12.344-12.343s12.343 5.537 12.343 12.343z"/><path d="m385.818 404.733c-.882 0-1.754.05-2.614.145 5.554-10.723 11.921-16.44 12.085-16.584 3.214-2.783 3.578-7.643.807-10.873-2.778-3.237-7.656-3.614-10.895-.833-.883.757-21.526 18.835-25.11 52.548-.203 1.448-.309 2.93-.309 4.439 0 15.903 11.68 28.842 26.035 28.842 14.356 0 26.035-12.939 26.035-28.842.001-15.903-11.679-28.842-26.034-28.842zm0 42.232c-5.835 0-10.583-6.006-10.583-13.389s4.747-13.389 10.583-13.389c5.835 0 10.582 6.006 10.582 13.389s-4.747 13.389-10.582 13.389z"/></g></g></g></svg>