<svg id="Capa_1" enable-background="new 0 0 512 512" height="512" viewBox="0 0 512 512" width="512" xmlns="http://www.w3.org/2000/svg"><g><g><path d="m34.913 278.932c21.572 3.029 25.662 13.619 54.249 13.619 33.368 0 33.368-14.423 66.735-14.423 33.357 0 33.357 14.423 66.725 14.423s33.368-14.423 66.735-14.423 33.367 14.423 66.735 14.423c33.378 0 33.378-14.423 66.745-14.423 27.341 0 32.276 9.684 51.53 13.186l11.873 43.578-46.775 148.622-353.073 9.807-25.65-15.843-38.475-157.674z" fill="#b3dafe"/></g><g><path d="m419.805 512h-327.61c-23.325 0-43.133-15.968-48.172-38.83l-43.631-198.025c-1.961-8.902 3.638-17.716 12.506-19.685 8.864-1.971 17.646 3.652 19.609 12.553l43.631 198.025c1.68 7.621 8.283 12.944 16.058 12.944h327.61c7.775 0 14.378-5.322 16.057-12.944l43.631-198.025c1.961-8.901 10.734-14.524 19.609-12.553 8.868 1.969 14.468 10.782 12.506 19.685l-43.633 198.025c-5.038 22.862-24.846 38.83-48.171 38.83z" fill="#eaf6ff"/></g><g><path d="m499.102 255.46c-8.875-1.971-17.647 3.652-19.609 12.553l-43.631 198.025c-.973 4.417-3.607 8.052-7.157 10.336-9.032 12.423-23.563 20.173-39.806 20.173h-327.609c-1.776 0-3.528-.104-5.259-.285 9.055 9.803 21.953 15.738 36.164 15.738h327.61c23.325 0 43.133-15.968 48.171-38.831l43.632-198.025c1.962-8.902-3.638-17.715-12.506-19.684z" fill="#d8ecfe"/></g><g fill="#b3dafe"><ellipse cx="135.469" cy="182.857" rx="25.239" ry="25.239" transform="matrix(.16 -.987 .987 .16 -66.727 287.286)"/><circle cx="243.123" cy="135.984" r="19.319"/><ellipse cx="259.513" cy="31.19" rx="31.19" ry="31.19" transform="matrix(.122 -.993 .993 .122 196.848 284.948)"/></g><g><ellipse cx="419.548" cy="419.548" fill="#f58a97" rx="92.452" ry="92.452" transform="matrix(.707 -.707 .707 .707 -173.783 419.548)"/><g fill="#fff"><path d="m450.089 378.247c-14.833 0-26.9 12.067-26.9 26.9v30.664c0 14.833 12.067 26.901 26.9 26.901s26.9-12.068 26.9-26.901v-30.664c0-14.832-12.067-26.9-26.9-26.9zm11.448 57.565c0 6.313-5.135 11.449-11.448 11.449-6.312 0-11.448-5.136-11.448-11.449v-30.664c0-6.312 5.135-11.448 11.448-11.448 6.312 0 11.448 5.136 11.448 11.448z"/><path d="m387.324 376.383c-13.905 0-25.217 12.516-25.217 27.899s11.312 27.899 25.217 27.899c.64 0 1.273-.035 1.902-.088-5.196 9.811-11.013 15.041-11.177 15.186-3.214 2.782-3.577 7.642-.807 10.871 1.528 1.782 3.691 2.696 5.868 2.696 1.78 0 3.57-.612 5.027-1.862.847-.727 20.665-18.082 24.106-50.417.196-1.398.298-2.829.298-4.286 0-15.382-11.312-27.898-25.217-27.898zm-9.765 27.9c0-6.747 4.472-12.447 9.765-12.447s9.765 5.7 9.765 12.447c0 6.746-4.472 12.447-9.765 12.447-5.293-.001-9.765-5.701-9.765-12.447z"/></g><path d="m444.663 330.55c22.141 16.891 36.432 43.547 36.432 73.545 0 51.059-41.392 92.452-92.452 92.452-8.705 0-17.128-1.205-25.115-3.454 15.545 11.859 34.958 18.907 56.02 18.907 51.06 0 92.452-41.392 92.452-92.452 0-42.354-28.482-78.055-67.337-88.998z" fill="#f07281"/></g></g></svg>