<svg id="Capa_1" enable-background="new 0 0 512 512" height="512" viewBox="0 0 512 512" width="512" xmlns="http://www.w3.org/2000/svg"><g><path d="m477.997 214.033-41.473-116.054c-5.114-14.309-18.759-23.924-33.954-23.924h-293.141c-15.195 0-28.84 9.615-33.954 23.924l-41.472 116.054c-1.691 4.732-.976 9.992 1.92 14.101 2.894 4.109 7.606 6.552 12.632 6.552h414.891c5.026 0 9.737-2.444 12.632-6.552 2.895-4.109 3.61-9.369 1.919-14.101zm-378.268-30.857 20.588-57.613h271.366l20.587 57.613z" fill="#c68d7a"/><path d="m481.095 309.176h-450.19c-17.068 0-30.905-13.837-30.905-30.906v-64.88c0-17.069 13.837-30.906 30.905-30.906h450.189c17.068 0 30.905 13.837 30.905 30.906v64.88c.001 17.069-13.836 30.906-30.904 30.906z" fill="#d1a08f"/><path d="m481.095 182.484h-4.145c2.631 4.547 4.145 9.822 4.145 15.453 0 52.901-42.885 95.786-95.786 95.786h-381.164c5.344 9.235 15.323 15.453 26.761 15.453h450.189c17.068 0 30.905-13.837 30.905-30.905v-64.88c0-17.07-13.837-30.907-30.905-30.907z" fill="#c68d7a"/><path d="m498.913 437.945h-485.826c-6.668 0-11.58-6.239-10.014-12.721l28.035-116.049h449.784l28.035 116.049c1.566 6.482-3.346 12.721-10.014 12.721z" fill="#f3eae6"/><g fill="#e1d3ce"><path d="m72.072 309.974c.028-.269.041-.535.041-.799h-15.495l-13.309 127.972c-.028.268-.041.535-.042.798h15.495z"/><path d="m108.181 437.945 7.187-128.338c.008-.145.002-.288.002-.432h-15.454l-7.187 128.338c-.008.145-.002.288-.002.431h15.454z"/><path d="m156.581 309.484c.004-.104-.003-.206-.003-.309h-15.45l-5.138 128.461c-.004.104.003.205.003.308h15.45z"/><path d="m198.174 309.323c.001-.05-.005-.098-.005-.147h-15.448l-2.438 128.623c-.001.049.005.098.005.146h15.448z"/><path d="m241.875 309.286c0-.037-.004-.073-.004-.111h-15.448l-1.842 128.659c-.001.037.004.073.004.11h15.448z"/><path d="m285.577 437.945v-128.769h-15.453v128.769z"/><path d="m330.688 437.861-1.409-128.685h-15.449c0 .028-.004.056-.003.085l1.41 128.685h15.449c-.002-.029.002-.057.002-.085z"/><path d="m376.01 437.637-5.139-128.461h-15.45c0 .103-.007.205-.003.309l5.139 128.46h15.45c0-.103.007-.204.003-.308z"/><path d="m419.275 437.575-6.163-128.399h-15.452c0 .123-.007.246-.001.37l6.163 128.399h15.452c0-.123.007-.245.001-.37z"/><path d="m466.637 437.207-12.291-128.031h-15.486c0 .244.009.491.033.738l12.291 128.031h15.487c-.001-.244-.01-.49-.034-.738z"/></g></g></svg>