<svg id="Capa_1" enable-background="new 0 0 512 512" height="512" viewBox="0 0 512 512" width="512" xmlns="http://www.w3.org/2000/svg"><g><path d="m227.67 359.533h-212.217c-8.535 0-15.453-6.918-15.453-15.452v-102.785c0-6.609 4.203-12.486 10.457-14.623l51.354-17.546 29.316-73.289c4.693-11.733 16.058-19.427 28.695-19.427h107.848z" fill="#faf7f7"/><path d="m0 321.937v22.143c0 8.534 6.918 15.453 15.453 15.453h212.217v-37.596z" fill="#efe2dd"/><path d="m95.315 212.765 23.504-62.774c.603-1.609 2.141-2.676 3.859-2.676h69.965c2.276 0 4.121 1.845 4.121 4.121v62.774c0 2.276-1.845 4.121-4.121 4.121h-93.469c-2.876 0-4.867-2.872-3.859-5.566z" fill="#b3dafe"/><path d="m512 328.628v-181.312c0-17.069-13.837-30.905-30.905-30.905h-253.425v243.123h253.425c17.068-.001 30.905-13.838 30.905-30.906z" fill="#cbc4cc"/><path d="m481.095 116.41h-30.906c17.069 0 30.906 13.837 30.906 30.905v181.312c0 17.068-13.837 30.905-30.906 30.905h30.906c17.068 0 30.905-13.837 30.905-30.905v-181.311c0-17.069-13.837-30.906-30.905-30.906z" fill="#baafb9"/><path d="m512 328.628v-6.691h-284.33v37.596h253.425c17.068 0 30.905-13.837 30.905-30.905z" fill="#efe2dd"/><path d="m481.095 328.628c0 17.068-13.837 30.905-30.906 30.905h30.906c17.068 0 30.905-13.837 30.905-30.905v-6.691h-30.905z" fill="#e1d3ce"/><ellipse cx="113.835" cy="344.08" fill="#918291" rx="51.509" ry="51.509" transform="matrix(.707 -.707 .707 .707 -209.96 181.272)"/><ellipse cx="390.954" cy="344.08" fill="#918291" rx="51.509" ry="51.509" transform="matrix(.453 -.891 .891 .453 -92.981 536.546)"/><path d="m30.905 279.179h-30.905v-29.875h30.905c5.689 0 10.302 4.612 10.302 10.302v9.272c0 5.689-4.612 10.301-10.302 10.301z" fill="#f58a97"/><ellipse cx="113.835" cy="344.08" fill="#a79ba7" rx="7.726" ry="7.726" transform="matrix(.574 -.819 .819 .574 -233.312 239.972)"/><ellipse cx="390.954" cy="344.08" fill="#a79ba7" rx="7.726" ry="7.726" transform="matrix(.707 -.707 .707 .707 -128.794 377.225)"/><path d="m447.537 234.81-69.976-32.386v-7.097c10.332-3.58 16.927-14.013 15.719-24.949-1.197-10.851-9.942-19.595-20.791-20.793-6.703-.733-13.402 1.399-18.391 5.868-4.993 4.472-7.856 10.878-7.856 17.577 0 4.268 3.459 7.726 7.726 7.726s7.726-3.459 7.726-7.726c0-2.345.964-4.5 2.713-6.066 1.746-1.564 4.014-2.286 6.386-2.019 3.659.403 6.722 3.468 7.126 7.128.432 3.902-1.845 7.477-5.534 8.692-6.147 2.023-10.278 7.823-10.278 14.432v7.227l-69.975 32.386c-5.222 2.416-8.005 8.029-6.769 13.649 1.237 5.62 6.121 9.544 11.875 9.544h145.192c5.755 0 10.638-3.924 11.875-9.544 1.236-5.62-1.546-11.233-6.768-13.649zm-135.337 7.74 57.635-26.674 57.635 26.674z" fill="#fff"/><g><path d="m196.765 256.963h-26.763c-4.268 0-7.726-3.459-7.726-7.726 0-4.268 3.459-7.726 7.726-7.726h26.763c4.268 0 7.726 3.459 7.726 7.726s-3.459 7.726-7.726 7.726z" fill="#efe2dd"/></g></g></svg>