<svg id="Capa_1" enable-background="new 0 0 512 512" height="512" viewBox="0 0 512 512" width="512" xmlns="http://www.w3.org/2000/svg"><g><g><path d="m265.905 251.651c10.151 27.905 36.846 47.865 68.224 48.021 39.551.196 72.396-31.691 73.317-71.232.323-13.878-3.241-26.894-9.667-38.056-1.991-3.458-1.153-7.893 1.999-10.34 11.031-8.562 18.132-21.945 18.132-36.99 0-17.525-9.635-32.791-23.895-40.811-3.819-2.148-5.389-6.894-3.36-10.778 3.837-7.342 5.784-15.826 5.186-24.815-1.552-23.306-19.703-41.65-42.99-43.467-5.606-.437-11.017.128-16.087 1.52-2.896.795-6.007.031-8.082-2.14-13.285-13.901-32.005-22.563-52.751-22.563-31.58 0-58.461 20.066-68.619 48.141-1.385 3.828-5.341 6.102-9.32 5.24-3.194-.692-6.508-1.059-9.91-1.059-14.906 0-28.178 6.972-36.749 17.828-1.574 1.993-3.989 3.101-6.528 3.077-40.233-.383-73.616 32.185-73.616 72.95 0 30.678 18.939 56.919 45.758 67.704 3.958 1.592 5.886 6.017 4.585 10.08-1.723 5.377-2.501 11.177-2.13 17.208 1.447 23.52 19.758 42.053 43.262 43.74 22.08 1.585 41.199-12.157 47.803-31.669 3.254-9.613 10.978-17.034 20.854-19.374l.674-.16c14.205-3.369 28.919 4.227 33.91 17.945z" fill="#b3dafe"/><g fill="#8ac9fe"><path d="m399.777 180.044c11.031-8.563 18.132-21.946 18.132-36.991 0-17.525-9.635-32.791-23.895-40.81-3.819-2.148-5.389-6.894-3.36-10.778 3.837-7.342 5.784-15.826 5.186-24.815-1.536-23.063-19.331-41.257-42.267-43.394 6.77 7.535 11.098 17.313 11.822 28.171.598 8.989-1.349 17.472-5.186 24.815-2.03 3.884-.46 8.63 3.36 10.778 14.259 8.019 23.895 23.285 23.895 40.81 0 15.045-7.101 28.428-18.132 36.991-3.152 2.446-3.99 6.882-1.999 10.34 6.426 11.162 9.991 24.177 9.667 38.056-.921 39.541-33.766 71.428-73.317 71.232-5.546-.027-10.941-.685-16.129-1.884 12.602 10.601 28.839 17.02 46.575 17.107 39.551.196 72.396-31.691 73.317-71.232.323-13.879-3.241-26.895-9.667-38.056-1.992-3.459-1.154-7.894 1.998-10.34z"/><path d="m201.55 218.481-.674.16c-9.875 2.34-17.6 9.761-20.854 19.374-6.604 19.512-25.724 33.254-47.803 31.67-.333-.024-.66-.063-.99-.094 7.813 8.706 18.882 14.416 31.436 15.317 22.08 1.585 41.199-12.157 47.803-31.669 3.253-9.613 10.978-17.034 20.854-19.374l.674-.16c.697-.166 1.396-.297 2.094-.41-5.953-11.714-19.46-17.915-32.54-14.814z"/></g><g><path d="m221.758 512c-3.363 0-6.089-2.726-6.089-6.089l-.008-96.58c0-8.356-2.269-16.554-6.563-23.721l-44.304-73.94c-4.618-7.707-7.057-16.524-7.057-25.509v-48.204c0-11.524 9.342-20.867 20.867-20.867 11.525 0 20.867 9.343 20.867 20.867v41.068-29.214-121.918c0-11.524 9.342-20.867 20.867-20.867 11.524 0 20.867 9.342 20.867 20.867v101.052-121.419c0-11.315 8.798-20.951 20.106-21.354 11.871-.422 21.628 9.076 21.628 20.854v121.919-101.052c0-11.524 9.342-20.867 20.867-20.867 11.525 0 20.867 9.342 20.867 20.867v101.052-79.646c0-11.073 8.403-20.63 19.452-21.359 6.316-.417 12.085 1.983 16.161 6.074 3.784 3.77 6.121 8.987 6.121 14.746v107.779c0 9.362-1.555 18.658-4.602 27.51l-21.487 62.421c-3.179 9.236-4.802 18.936-4.802 28.703v130.738c0 3.363-2.726 6.089-6.089 6.089z" fill="#fed2a4"/><g><path d="m360.285 134.014c-4.076-4.092-9.844-6.492-16.161-6.074-4.467.295-8.487 2.05-11.708 4.747.781.59 1.522 1.228 2.211 1.92 3.784 3.77 6.121 8.986 6.121 14.746v107.779c0 9.361-1.555 18.658-4.602 27.51l-21.487 62.421c-3.179 9.236-4.802 18.936-4.802 28.703v130.738c0 2.428-1.425 4.518-3.481 5.496h23.05c3.363 0 6.089-2.726 6.089-6.089v-130.739c0-9.768 1.623-19.467 4.802-28.703l21.487-62.421c3.047-8.852 4.602-18.149 4.602-27.51v-107.778c0-5.759-2.337-10.976-6.121-14.746z" fill="#ffbd86"/></g></g><g fill="#b3dafe"><ellipse cx="65.205" cy="340.068" rx="20.805" ry="20.805" transform="matrix(.23 -.973 .973 .23 -280.747 325.397)"/><circle cx="32.729" cy="28.924" r="28.924"/><circle cx="459.988" cy="19.79" r="19.79"/><circle cx="121.53" cy="469.464" r="33.491"/><circle cx="474.704" cy="256.342" r="33.491"/></g></g><g fill="#ffbd86"><path d="m324.672 127.893c0-11.524-9.342-20.867-20.867-20.867h-.001c-1.646 0-3.24.21-4.776.57v107.096c0 7.087 5.746 12.833 12.833 12.833 7.088 0 12.833-5.746 12.833-12.833z"/><path d="m241.184 127.893c0-11.524-9.342-20.867-20.867-20.867h-.001c-1.646 0-3.24.21-4.776.57v107.096c0 7.087 5.746 12.833 12.833 12.833 7.088 0 12.833-5.746 12.833-12.833z"/><path d="m199.441 237.955c0-11.524-9.342-20.867-20.867-20.867h-.001c-1.646 0-3.24.21-4.776.57v61.426c0 7.088 5.745 12.833 12.833 12.833 7.088 0 12.833-5.746 12.833-12.833z"/><path d="m282.901 107.026c0-11.524-9.342-20.867-20.867-20.867h-.001c-1.646 0-3.24.21-4.776.57v137.542c0 7.087 5.746 12.833 12.833 12.833 7.087 0 12.833-5.746 12.833-12.833z"/></g></g></svg>