<svg id="Capa_1" enable-background="new 0 0 512 512" height="512" viewBox="0 0 512 512" width="512" xmlns="http://www.w3.org/2000/svg"><g><g><path d="m357.885 227.984v-113.544c0-11.496-9.537-20.815-21.301-20.815-11.764 0-21.301 9.319-21.301 20.815v142.336l-52.554-51.357c-8.128-7.943-21.306-7.943-29.434 0-7.532 7.36-8.161 19.09-1.458 27.18l83.809 101.153c5.825 7.03 9.003 15.802 9.003 24.848v47.444h161.038v-115.513-125.458c0-11.496-9.536-20.815-21.301-20.815-11.764 0-21.301 9.319-21.301 20.815v62.911z" fill="#7acaa6"/><path d="m262.73 205.418c-8.128-7.943-21.306-7.943-29.434 0-7.532 7.361-8.161 19.09-1.459 27.18l13.278 16.026 27.662-33.387z" fill="#57be92"/><path d="m443.088 239.898v-125.458c0-11.496-9.537-20.815-21.301-20.815-11.764 0-21.301 9.319-21.301 20.815v125.458z" fill="#7acaa6"/><g><path d="m464.388 144.257c-3.401 0-6.603.799-9.455 2.184.188 1.112.31 2.245.31 3.409v125.458c0 63.795-51.716 115.512-115.512 115.512h-15.081v15.223h161.038v-115.512-125.458c.001-11.496-9.536-20.816-21.3-20.816z" fill="#57be92"/></g><path d="m400.487 273.653v-192.969c0-11.496-9.537-20.815-21.301-20.815-11.764 0-21.301 9.319-21.301 20.815v159.213z" fill="#7acaa6"/><path d="m313.527 451.558h183.285c6.286 0 11.382-5.096 11.382-11.382v-22.751c0-6.286-5.096-11.382-11.382-11.382h-183.285c-6.286 0-11.382 5.096-11.382 11.382v22.751c0 6.286 5.096 11.382 11.382 11.382z" fill="#7acaa6"/><path d="m496.812 406.043h-30.446c6.286 0 11.382 5.096 11.382 11.382v22.752c0 6.286-5.096 11.382-11.382 11.382h30.446c6.286 0 11.382-5.096 11.382-11.382v-22.752c0-6.286-5.096-11.382-11.382-11.382z" fill="#57be92"/><path d="m486.412 507.94v-56.382h-162.485v56.382c0 2.242 1.818 4.06 4.06 4.06h154.366c2.242 0 4.059-1.818 4.059-4.06z" fill="#fed2a4"/><path d="m455.966 451.558v56.382c0 2.242-1.817 4.06-4.06 4.06h30.446c2.242 0 4.06-1.818 4.06-4.06v-56.382z" fill="#ffbd86"/><g fill="#57be92"><path d="m421.787 93.624c-4.287 0-8.269 1.248-11.611 3.378 5.829 3.714 9.69 10.13 9.69 17.438v156.206c0 6.413 5.198 11.611 11.611 11.611 6.412 0 11.611-5.198 11.611-11.611v-156.206c0-11.497-9.537-20.816-21.301-20.816z"/><path d="m379.186 59.869c-4.287 0-8.269 1.248-11.611 3.378 5.829 3.714 9.69 10.13 9.69 17.438v189.962c0 6.413 5.198 11.611 11.611 11.611 6.413 0 11.611-5.198 11.611-11.611v-189.963c0-11.496-9.537-20.815-21.301-20.815z"/><path d="m336.585 93.624c-4.287 0-8.269 1.248-11.611 3.378 5.829 3.714 9.69 10.13 9.69 17.438v153.408c0 6.413 5.198 11.611 11.611 11.611 6.412 0 11.611-5.198 11.611-11.611v-153.408c-.001-11.497-9.537-20.816-21.301-20.816z"/></g></g><g><path d="m68.912 180.029v-125.458c0-11.496 9.537-20.815 21.301-20.815 11.764 0 21.3 9.319 21.3 20.815v125.458z" fill="#7acaa6"/><path d="m154.115 152.892v-98.321c0-11.496 9.537-20.815 21.301-20.815 11.764 0 21.3 9.319 21.3 20.815v142.336l52.554-51.357c8.128-7.943 21.306-7.943 29.434 0 7.532 7.36 8.161 19.09 1.458 27.18l-83.809 101.153c-5.825 7.03-9.003 15.802-9.003 24.848v47.444h-161.039v-115.513-125.458c0-11.496 9.536-20.815 21.3-20.815 11.764 0 21.301 9.319 21.301 20.815v47.688z" fill="#7acaa6"/><g><path d="m278.703 145.55c-6.646-6.495-16.665-7.672-24.542-3.546.736 5.375-.716 11.002-4.445 15.502l-79.275 95.68c-2.961 3.574-4.839 7.92-5.413 12.526-4.641 37.266-36.314 65.238-73.867 65.238h-64.85v15.223h161.039v-47.443c0-9.046 3.178-17.817 9.003-24.848l83.809-101.153c6.703-8.089 6.073-19.819-1.459-27.179z" fill="#57be92"/></g><path d="m111.513 213.784v-192.969c0-11.496 9.537-20.815 21.301-20.815 11.764 0 21.301 9.319 21.301 20.815v159.213z" fill="#7acaa6"/><g fill="#57be92"><path d="m142.387 225.698c6.477 0 11.728-5.251 11.728-11.728v-193.155c0-11.496-9.537-20.815-21.3-20.815-4.336 0-8.363 1.273-11.728 3.447 5.765 3.725 9.573 10.109 9.573 17.368v193.155c-.001 6.477 5.25 11.728 11.727 11.728z"/><path d="m99.786 229.007c6.477 0 11.728-5.251 11.728-11.728v-162.708c0-11.496-9.537-20.815-21.3-20.815-4.335 0-8.363 1.273-11.728 3.447 5.765 3.725 9.573 10.109 9.573 17.368v162.709c-.001 6.476 5.25 11.727 11.727 11.727z"/><path d="m185 213.784c6.477 0 11.728-5.251 11.728-11.728v-147.485c0-11.496-9.537-20.815-21.3-20.815-4.335 0-8.363 1.273-11.728 3.447 5.765 3.725 9.573 10.109 9.573 17.368v147.486c0 6.476 5.25 11.727 11.727 11.727z"/><path d="m57.185 229.007c6.477 0 11.728-5.251 11.728-11.728v-112.075c0-11.496-9.537-20.815-21.3-20.815-4.335 0-8.363 1.273-11.728 3.447 5.765 3.725 9.573 10.109 9.573 17.368v112.076c-.001 6.476 5.25 11.727 11.727 11.727z"/></g><path d="m198.473 391.69h-183.285c-6.286 0-11.382-5.096-11.382-11.382v-22.752c0-6.286 5.096-11.382 11.382-11.382h183.285c6.286 0 11.382 5.096 11.382 11.382v22.752c0 6.286-5.096 11.382-11.382 11.382z" fill="#7acaa6"/><path d="m198.473 346.173h-30.446c6.286 0 11.382 5.096 11.382 11.383v22.751c0 6.286-5.096 11.383-11.382 11.383h30.446c6.286 0 11.382-5.096 11.382-11.383v-22.751c0-6.286-5.096-11.383-11.382-11.383z" fill="#57be92"/><path d="m25.588 507.94v-116.25h162.485v116.25c0 2.242-1.818 4.06-4.06 4.06h-154.366c-2.242 0-4.059-1.818-4.059-4.06z" fill="#fed2a4"/><path d="m157.627 391.69v116.25c0 2.242-1.817 4.06-4.06 4.06h30.446c2.242 0 4.06-1.818 4.06-4.06v-116.25z" fill="#ffbd86"/></g></g></svg>