<svg id="Capa_1" enable-background="new 0 0 512 512" height="512" viewBox="0 0 512 512" width="512" xmlns="http://www.w3.org/2000/svg"><g><g><path d="m510.87 83.176c1.534 1.614 1.503 4.156-.071 5.731l-68.433 68.485c-5.975 5.976-10.216 13.462-12.27 21.658l-21.196 84.566c-2.21 8.815-6.77 16.864-13.196 23.29l-34.475 34.475c-8.242 8.242-21.605 8.242-29.847 0-8.242-8.242-8.242-21.605 0-29.847l29.371-29.371-20.893 20.893-87.194 87.194c-8.242 8.242-21.605 8.242-29.847 0-8.242-8.242-8.242-21.605 0-29.847l72.27-72.27-86.836 86.836c-8.092 8.092-21.277 8.692-29.651.892-8.792-8.188-8.977-21.959-.554-30.382l87.194-87.193-72.27 72.27c-8.242 8.242-21.605 8.242-29.847 0-8.242-8.242-8.242-21.605 0-29.847l72.27-72.27-56.96 56.961c-7.919 7.919-20.764 8.744-29.188 1.364-4.816-4.219-7.225-10.06-7.214-15.902-.01-5.402 2.049-10.805 6.168-14.923l77.081-77.081c6.695-6.695 14.456-12.232 22.966-16.383l60.009-29.275c8.879-4.331 16.977-10.108 23.962-17.093l94.901-94.897c1.632-1.632 4.288-1.599 5.879.074z" fill="#fed2a4"/><path d="m510.87 83.176c1.534 1.614 1.503 4.156-.071 5.731l-68.433 68.485c-5.975 5.976-10.216 13.462-12.27 21.658l-21.196 84.566c-2.21 8.815-6.77 16.864-13.196 23.29l-34.475 34.475c-8.242 8.242-21.605 8.242-29.847 0-8.242-8.242-8.242-21.605 0-29.847l29.371-29.371-20.893 20.893-87.194 87.194c-8.242 8.242-21.605 8.242-29.847 0-8.242-8.242-8.242-21.605 0-29.847l72.27-72.27-86.836 86.836c-8.092 8.092-21.277 8.692-29.651.892-8.792-8.188-8.977-21.959-.554-30.382l87.194-87.193-72.27 72.27c-8.242 8.242-21.605 8.242-29.847 0-8.242-8.242-8.242-21.605 0-29.847l72.27-72.27-56.96 56.961c-7.919 7.919-20.764 8.744-29.188 1.364-4.816-4.219-7.225-10.06-7.214-15.902-.01-5.402 2.049-10.805 6.168-14.923l77.081-77.081c6.695-6.695 14.456-12.232 22.966-16.383l60.009-29.275c8.879-4.331 16.977-10.108 23.962-17.093l94.901-94.897c1.632-1.632 4.288-1.599 5.879.074z" fill="#fed2a4"/><g fill="#ffbd86"><path d="m142.721 256.245c.988 3.774 3.039 7.327 6.152 10.183 8.196 7.52 21.694 6.837 29.56-1.028l49.5-49.5c4.121-4.121 4.121-10.802 0-14.923-4.121-4.121-10.803-4.121-14.924 0l-49.498 49.499c-5.577 5.576-13.592 7.616-20.79 5.769z"/><path d="m157.871 301.808c.977 3.2 2.723 6.216 5.254 8.747 8.242 8.242 21.605 8.242 29.847 0l65.269-65.27c3.866-3.866 3.866-10.135 0-14.001-3.866-3.866-10.135-3.866-14.001 0l-65.27 65.27c-5.71 5.711-13.878 7.457-21.099 5.254z"/><g><path d="m510.87 83.176-77.87-81.894c-1.294-1.361-3.285-1.617-4.864-.794 1.12 1.274 2.239 2.548 3.359 3.822 35.945 40.906 33.965 102.69-4.526 141.21-5.976 5.976-10.216 13.462-12.27 21.658l-21.194 84.565c-2.21 8.815-6.77 16.865-13.196 23.29l-34.475 34.475c-5.072 5.072-12.081 7.011-18.645 5.84 1.014 2.18 2.396 4.232 4.195 6.031 8.242 8.242 21.605 8.242 29.847 0l34.475-34.475c6.426-6.426 10.986-14.475 13.196-23.291l21.194-84.565c2.054-8.197 6.295-15.682 12.27-21.658l68.433-68.485c1.573-1.573 1.605-4.115.071-5.729z"/><path d="m173.8 349.2c1.117 2.436 2.708 4.71 4.803 6.66 7.656 7.13 19.322 7.22 27.452 1.003l83.08-82.797c3.326-3.315 3.442-8.665.261-12.121-3.333-3.621-8.995-3.781-12.528-.354l-84.011 81.505"/><path d="m348.439 256.281c-3.691-1.763-8.092-1.008-10.984 1.885l-100.185 100.212c-5.072 5.072-12.082 7.01-18.645 5.84 1.014 2.18 2.396 4.232 4.195 6.031 8.242 8.242 21.605 8.242 29.847 0l98.437-98.437c4.709-4.709 3.345-12.66-2.665-15.531z"/></g></g></g><g><path d="m34.786 279.771c21.494 3.018 25.569 13.57 54.053 13.57 33.247 0 33.247-14.37 66.493-14.37 33.236 0 33.236 14.37 66.483 14.37s33.247-14.37 66.493-14.37c33.247 0 33.247 14.37 66.493 14.37 33.257 0 33.257-14.37 66.504-14.37 27.242 0 32.159 9.649 51.343 13.139l6.285 32.612-33.702 149.064-53.145 27.22h-307.663l-33.238-42.444-33.702-178.423z" fill="#b3dafe"/></g><g><path d="m163.125 280.708c-8.242 8.242-8.242 21.606 0 29.847v.001c8.242 8.242 21.604 8.242 29.846 0l-14.923 14.923c-8.423 8.423-8.238 22.194.554 30.382 8.374 7.8 21.559 7.2 29.651-.892l14.566-14.566c-8.242 8.242-8.242 21.605 0 29.847v.001c8.242 8.242 21.605 8.242 29.847 0l79.873-79.873c-13.808-4.207-20.69-11.407-44.23-11.407-33.247 0-33.247 14.37-66.493 14.37-29.887 0-32.921-11.606-57.37-13.954z" fill="#eaf6ff"/><g fill="#d8ecfe"><path d="m332.539 290.377c-7.309-2.227-12.678-5.292-19.604-7.684l-75.665 75.685c-5.072 5.072-12.082 7.01-18.645 5.84 0 .001.001.002.001.002 1.04 2.23 2.45 4.285 4.194 6.029 2.211 2.212 4.743 3.798 7.61 4.856 7.629 2.815 16.423.97 22.237-4.856z"/><path d="m284.124 279.061c-17.351.625-23.69 5.243-35.154 9.626-.017.007-.033.013-.051.02-12.359 9.234-61.254 68.412-75.12 60.493 1.118 2.437 2.708 4.71 4.803 6.66 8.374 7.8 21.559 7.2 29.651-.892l14.566-14.566c-2.108 2.109 39.304-38.507 61.305-61.341z"/><path d="m166.436 313.26c8.192 5.409 19.324 4.507 26.535-2.704l-.003.003c.001-.001.003-.002.004-.003l17.836-17.836c-9.459-1.142-15.629-3.706-21.684-6.319l-10.153 10.153c-5.711 5.711-13.878 7.457-21.099 5.254.001.005.003.009.005.014.147.482.317.957.5 1.429 1.054 2.728 2.678 5.228 4.749 7.304v.001c1.038 1.039 2.121 1.919 3.31 2.704z"/></g><path d="m400.337 281.555c-14.695 4.136-21.263 11.786-45.534 11.786-9.706 0-16.57-1.229-22.263-2.963l-1.157 1.157c-8.242 8.242-8.242 21.605 0 29.847 8.242 8.242 21.605 8.242 29.847 0l34.475-34.475c1.676-1.678 3.218-3.47 4.632-5.352z" fill="#eaf6ff"/><path d="m398.137 284.286c.765-.886 1.499-1.797 2.2-2.731-2.581.728-5.105 1.626-7.587 2.627-8.8 3.548-16 7.788-30.474 8.885l-16.443 16.443c-5.071 5.072-12.081 7.011-18.645 5.84v.001c1.014 2.181 2.396 4.232 4.195 6.031 8.242 8.242 21.604 8.242 29.846.001 0 0 .001-.001.001-.001l23.867-23.867 10.608-10.608c.838-.837 1.642-1.704 2.413-2.597.006-.008.012-.016.019-.024z" fill="#d8ecfe"/></g><g><path d="m418.284 511.995h-326.423c-23.241 0-42.977-15.91-47.997-38.69l-43.474-197.308c-1.954-8.87 3.625-17.652 12.461-19.614 8.832-1.963 17.583 3.638 19.538 12.508l43.473 197.309c1.674 7.594 8.253 12.897 15.999 12.897h326.423c7.747 0 14.326-5.303 15.999-12.897l43.473-197.308c1.954-8.869 10.695-14.472 19.538-12.508 8.836 1.962 14.415 10.743 12.461 19.614l-43.474 197.308c-5.02 22.779-24.756 38.689-47.997 38.689z" fill="#eaf6ff"/></g><g><path d="m497.295 256.384c-8.842-1.964-17.583 3.639-19.538 12.508l-43.473 197.308c-.97 4.4-3.593 8.023-7.131 10.299-8.999 12.378-23.477 20.1-39.662 20.1h-326.423c-1.769 0-3.516-.103-5.24-.284 9.022 9.767 21.874 15.68 36.033 15.68h326.423c23.241 0 42.977-15.91 47.997-38.69l43.474-197.308c1.955-8.87-3.624-17.652-12.46-19.613z" fill="#d8ecfe"/></g><g fill="#eaf6ff"><ellipse cx="134.978" cy="184.044" rx="25.148" ry="25.148" transform="matrix(.23 -.973 .973 .23 -75.154 273.127)"/><circle cx="103.671" cy="75.753" r="19.249"/><circle cx="258.573" cy="32.926" r="31.077"/><ellipse cx="136.097" cy="370.415" rx="7.698" ry="7.698" transform="matrix(.924 -.383 .383 .924 -131.392 80.278)"/><circle cx="166.891" cy="447.398" r="7.698"/><ellipse cx="120.7" cy="432.002" rx="7.698" ry="7.698" transform="matrix(.23 -.973 .973 .23 -327.476 450.22)"/></g></g></svg>