<svg id="Capa_1" enable-background="new 0 0 512 512" height="512" viewBox="0 0 512 512" width="512" xmlns="http://www.w3.org/2000/svg"><g><path d="m149.592 198.126h212.817v45.079h-212.817z" fill="#918291"/><g><path d="m480.351 415.49h-448.702c-19.681 0-34.586-17.794-31.155-37.192l20.436-115.548c2.675-15.126 15.809-26.15 31.155-26.15h407.829c15.347 0 28.48 11.023 31.156 26.15l20.437 115.548c3.431 19.399-11.475 37.192-31.156 37.192z" fill="#aca6d6"/><path d="m511.507 378.299-20.437-115.549c-2.675-15.126-15.809-26.149-31.155-26.149h-3.687c1.929 3.228 3.311 6.841 3.999 10.728 1.506 8.362 3.011 16.724 4.517 25.086 11.973 66.498-39.134 127.631-106.701 127.635-117.852.006-235.704.013-353.556.019 5.481 9.152 15.48 15.422 27.162 15.422h448.703c19.68-.001 34.586-17.794 31.155-37.192z" fill="#978ecb"/><path d="m33.283 378.79 18.911-106.922c.347-1.964 2.055-3.396 4.05-3.396l399.513.001c1.995 0 3.702 1.432 4.05 3.396l18.911 106.921c.445 2.519-1.492 4.829-4.049 4.829h-437.337c-2.557 0-4.495-2.31-4.049-4.829z" fill="#faf7f7"/><path d="m465.671 305.03c-4.043 32.728-22.931 61.51-50.186 78.589h59.183c2.558 0 4.495-2.31 4.049-4.829z" fill="#f3eae6"/><g><g><g><path d="m217.439 361.333c-1.908 0-3.836-.231-5.75-.703-10.23-2.52-17.375-11.798-17.375-22.563v-24.444c0-10.766 7.145-20.044 17.375-22.562 7.079-1.747 14.372-.209 20.011 4.211 5.642 4.421 8.878 11.066 8.878 18.231v24.687c0 7.165-3.236 13.81-8.878 18.231-4.114 3.224-9.111 4.912-14.261 4.912zm.008-55.557c-.64 0-1.331.077-2.07.259-3.269.805-5.641 3.996-5.641 7.588v24.444c0 3.592 2.372 6.784 5.641 7.589 3.346.822 5.705-.507 6.812-1.375 1.887-1.478 2.968-3.699 2.968-6.092v-24.687c0-2.393-1.082-4.614-2.968-6.092-.863-.676-2.484-1.634-4.742-1.634z" fill="#918291"/></g></g><g><g><path d="m294.547 361.333c-1.908 0-3.836-.231-5.75-.703-10.23-2.518-17.375-11.797-17.375-22.563v-24.444c0-10.766 7.145-20.044 17.375-22.562 7.079-1.746 14.373-.209 20.012 4.211 5.641 4.421 8.877 11.066 8.877 18.231v24.687c0 7.165-3.236 13.81-8.877 18.231-4.115 3.224-9.112 4.912-14.262 4.912zm.007-55.557c-.64 0-1.331.077-2.071.259-3.269.805-5.641 3.996-5.641 7.588v24.444c0 3.592 2.372 6.784 5.641 7.589 3.348.822 5.706-.507 6.813-1.375 1.887-1.478 2.968-3.699 2.968-6.092v-24.687c0-2.393-1.082-4.614-2.968-6.092-.862-.676-2.484-1.634-4.742-1.634z" fill="#918291"/></g></g><g><ellipse cx="255.486" cy="352.776" fill="#918291" rx="7.711" ry="7.711" transform="matrix(.707 -.707 .707 .707 -174.62 283.982)"/></g></g></g><path d="m149.592 204.73h212.817v31.871h-212.817z" fill="#918291"/><path d="m331.566 204.73h30.843v31.871h-30.843z" fill="#7a6d79"/><path d="m399.133 204.73h-286.266c-5.837 0-10.568-4.731-10.568-10.568v-32.273h307.402v32.273c0 5.836-4.731 10.568-10.568 10.568z" fill="#aca6d6"/><path d="m378.858 172.858v21.303c0 5.837-4.731 10.568-10.568 10.568h30.843c5.837 0 10.568-4.731 10.568-10.568v-21.303z" fill="#978ecb"/><g><path d="m495.527 92.461-.853 4.03-10.651 50.603c-3.177 15.031-16.378 25.764-31.666 25.764h-392.714c-15.288 0-28.489-10.733-31.666-25.764l-11.514-53.975z" fill="#f3eae6"/><path d="m494.674 96.491-10.651 50.603c-3.177 15.031-16.378 25.764-31.666 25.764h-30.843c15.288 0 28.489-10.733 31.665-25.764l10.733-50.603z" fill="#e1d3ce"/><path d="m495.259 63.61h-478.518c-8.961 0-16.225 7.36-16.225 16.44 0 9.08 7.264 16.44 16.225 16.44h478.518c8.96 0 16.224-7.361 16.224-16.44 0-9.079-7.264-16.44-16.224-16.44z" fill="#aca6d6"/><path d="m495.259 63.611h-30.843c8.961 0 16.224 7.36 16.224 16.44s-7.264 16.44-16.224 16.44h30.843c8.96 0 16.224-7.36 16.224-16.44s-7.264-16.44-16.224-16.44z" fill="#978ecb"/></g><g><path d="m119.476 448.39h-59.028c-5.844 0-10.582-4.738-10.582-10.582v-22.318h80.192v22.317c0 5.845-4.738 10.583-10.582 10.583z" fill="#918291"/><path d="m99.215 415.49v22.317c0 5.844-4.738 10.582-10.582 10.582h30.843c5.844 0 10.582-4.738 10.582-10.582v-22.317z" fill="#7a6d79"/><path d="m451.552 448.39h-59.028c-5.844 0-10.582-4.738-10.582-10.582v-22.318h80.192v22.317c0 5.845-4.737 10.583-10.582 10.583z" fill="#918291"/><path d="m431.291 415.49v22.317c0 5.844-4.738 10.582-10.582 10.582h30.843c5.844 0 10.582-4.738 10.582-10.582v-22.317z" fill="#7a6d79"/></g></g></svg>