<svg id="Capa_1" enable-background="new 0 0 512 512" height="512" viewBox="0 0 512 512" width="512" xmlns="http://www.w3.org/2000/svg"><g><g><path d="m329.586 511.84-48.123-4.812c-66.043-6.604-132.581-6.604-198.625 0l-48.123 4.812c-18.587 1.859-34.715-12.737-34.715-31.416v-160.948c0-18.679 16.128-33.275 34.714-31.416l48.123 4.812c66.044 6.604 132.581 6.604 198.625 0l48.123-4.812c18.586-1.859 34.714 12.737 34.714 31.416v160.948c.001 18.679-16.127 33.275-34.713 31.416z" fill="#f58a97"/><path d="m285.087 470.779c-34.067-3.406-68.699-5.134-102.937-5.134s-68.87 1.728-102.937 5.134l-38.253 3.825c-2.426.243-4.531-1.662-4.531-4.1v-141.107c0-2.438 2.105-4.343 4.531-4.1l38.253 3.825c34.066 3.406 68.699 5.134 102.937 5.134s68.87-1.728 102.937-5.134l38.253-3.825c2.426-.243 4.531 1.662 4.531 4.1v141.107c0 2.438-2.105 4.343-4.531 4.1z" fill="#fdd1d5"/></g><g><path d="m329.586 288.06-48.123 4.812c-5.281.528-10.566.998-15.853 1.442.621 12.144 1.021 24.296 1.199 36.451.555 37.988 14.396 76.001 10.611 113.85l-17.846 23.935-2.419 24.189c-.427 4.273.024 8.411 1.185 12.258 7.713.59 15.421 1.262 23.122 2.032l48.123 4.812c18.586 1.859 34.714-12.736 34.714-31.415v-160.95c.001-18.679-16.127-33.275-34.713-31.416z" fill="#f07281"/><path d="m323.339 325.296-38.253 3.825c-6.077.608-12.176 1.143-18.283 1.643.555 37.988-1.052 76-4.837 113.85l-2.394 23.935c8.53.639 17.039 1.382 25.513 2.229l38.253 3.825c2.426.242 4.531-1.662 4.531-4.1v-141.106c.001-2.438-2.104-4.343-4.53-4.101z" fill="#f6b2bb"/><path d="m288.06 477.286 4.812-48.124c6.604-66.043 6.604-132.581 0-198.625l-4.812-48.123c-1.858-18.587 12.737-34.714 31.416-34.714h160.948c18.679 0 33.275 16.128 31.416 34.714l-4.812 48.123c-6.604 66.044-6.604 132.581 0 198.625l4.812 48.124c1.859 18.586-12.737 34.714-31.416 34.714h-160.948c-18.679 0-33.275-16.128-31.416-34.714z" fill="#f58a97"/><path d="m507.028 429.162c-6.604-66.043-6.604-132.581 0-198.624l4.812-48.123c1.859-18.587-12.737-34.714-31.416-34.714h-30.905c18.679 0 33.275 16.128 31.416 34.714l-4.812 48.123c-6.604 66.043-6.604 132.581 0 198.624l4.812 48.124c1.858 18.586-12.737 34.714-31.416 34.714h30.905c18.679 0 33.275-16.128 31.416-34.714z" fill="#f07281"/><path d="m329.121 432.787c3.406-34.067 5.134-68.699 5.134-102.937 0-34.237-1.728-68.87-5.134-102.937l-3.825-38.253c-.243-2.426 1.662-4.531 4.1-4.531h141.107c2.438 0 4.343 2.105 4.1 4.531l-3.825 38.253c-3.406 34.066-5.134 68.699-5.134 102.937 0 34.237 1.728 68.87 5.134 102.937l3.825 38.253c.243 2.426-1.662 4.531-4.1 4.531h-141.106c-2.438 0-4.343-2.105-4.1-4.531z" fill="#fdd1d5"/></g><ellipse cx="98.689" cy="168.452" fill="#eaf6ff" rx="33.873" ry="33.873" transform="matrix(.924 -.383 .383 .924 -56.951 50.589)"/><path d="m98.689 134.578c-4.697 0-9.17.957-13.236 2.685 14.282 3.979 24.765 17.074 24.765 32.625 0 14.011-8.507 26.034-20.638 31.188 2.899.808 5.951 1.249 9.109 1.249 18.707 0 33.873-15.166 33.873-33.874.001-18.707-15.165-33.873-33.873-33.873z" fill="#d8ecfe"/><ellipse cx="222.311" cy="44.675" fill="#eaf6ff" rx="44.675" ry="44.675" transform="matrix(.707 -.707 .707 .707 33.523 170.283)"/><path d="m222.311 0c-5.432 0-10.637.972-15.453 2.747 17.058 6.289 29.223 22.687 29.223 41.928 0 19.242-12.165 35.64-29.223 41.928 4.816 1.776 10.02 2.747 15.453 2.747 24.674 0 44.675-20.002 44.675-44.676 0-24.672-20.001-44.674-44.675-44.674z" fill="#d8ecfe"/><path d="m348.463 145.67c-4.139-14.573-17.536-25.252-33.436-25.252s-29.297 10.679-33.436 25.252c-9.224 5.048-15.48 14.842-15.48 26.098 0 16.421 13.312 29.733 29.733 29.733 7.312 0 14.004-2.644 19.182-7.023 5.178 4.378 11.87 7.023 19.182 7.023 16.421 0 29.733-13.312 29.733-29.733.002-11.256-6.254-21.05-15.478-26.098z" fill="#eaf6ff"/><g><path d="m348.463 145.67c-4.139-14.573-17.536-25.252-33.436-25.252-5.553 0-10.798 1.306-15.453 3.622 8.673 4.315 15.289 12.146 17.983 21.63 9.224 5.048 15.48 14.842 15.48 26.098 0 10.757-5.713 20.179-14.27 25.4 4.501 2.745 9.784 4.334 15.443 4.334 16.421 0 29.733-13.312 29.733-29.733 0-11.257-6.256-21.051-15.48-26.099z" fill="#c4e2ff"/></g><path d="m178.483 300.197c-4.139-14.573-17.536-25.252-33.436-25.252s-29.297 10.679-33.436 25.252c-9.224 5.048-15.48 14.842-15.48 26.098 0 16.421 13.312 29.733 29.733 29.733 7.312 0 14.004-2.644 19.182-7.023 5.178 4.378 11.87 7.023 19.182 7.023 16.421 0 29.733-13.312 29.733-29.733.002-11.256-6.254-21.05-15.478-26.098z" fill="#eaf6ff"/><g><path d="m178.483 300.197c-4.139-14.573-17.536-25.252-33.436-25.252-5.553 0-10.798 1.306-15.453 3.622 8.673 4.315 15.289 12.146 17.983 21.63 9.224 5.048 15.48 14.842 15.48 26.098 0 10.758-5.713 20.179-14.27 25.4 4.501 2.745 9.784 4.333 15.443 4.333 16.421 0 29.733-13.312 29.733-29.733 0-11.256-6.256-21.05-15.48-26.098z" fill="#d8ecfe"/></g></g></svg>