<svg id="Capa_1" enable-background="new 0 0 512 512" height="512" viewBox="0 0 512 512" width="512" xmlns="http://www.w3.org/2000/svg"><g><path d="m39.326 171.643h164.408v161.102h-164.408z" fill="#7a6d79"/><ellipse cx="317.399" cy="252.194" fill="#aca6d6" rx="190.795" ry="190.795" transform="matrix(.707 -.707 .707 .707 -85.364 298.301)"/><path d="m317.399 61.399c-5.125 0-10.2.208-15.223.605 98.255 7.757 175.572 89.942 175.572 190.19s-77.317 182.433-175.572 190.19c5.023.396 10.098.605 15.223.605 105.373 0 190.795-85.422 190.795-190.795s-85.421-190.795-190.795-190.795z" fill="#978ecb"/><circle cx="317.399" cy="252.194" fill="#faf7f7" r="160.349"/><g><path d="m256.504 221.54-23.068 17.407c-2.339 1.765-5.67 1.225-7.337-1.189l-20.926-30.3c-1.328-1.923-1.208-4.5.294-6.29l35.563-42.397z" fill="#978ecb"/><path d="m378.294 221.54 23.068 17.407c2.339 1.765 5.67 1.225 7.337-1.189l20.926-30.3c1.328-1.923 1.208-4.5-.293-6.29l-35.563-42.397z" fill="#978ecb"/><path d="m256.504 355.978v-131.911c0-1.678-.203-3.35-.605-4.98l-14.87-60.317 37.683-15.541h77.373l37.683 15.541-14.87 60.317c-.402 1.629-.605 3.301-.605 4.98v131.911c0 2.861-2.309 5.18-5.158 5.18h-111.473c-2.848.001-5.158-2.319-5.158-5.18z" fill="#aca6d6"/><path d="m356.086 143.23h-77.373l-.158.065c.321 13.704 17.583 24.75 38.844 24.75s38.523-11.047 38.844-24.75z" fill="#978ecb"/></g><path d="m7.865 512c-2.242 0-4.059-1.818-4.059-4.06v-490.18c0-9.809 7.951-17.76 17.76-17.76 9.809 0 17.76 7.951 17.76 17.76v490.18c0 2.242-1.818 4.06-4.059 4.06z" fill="#918291"/></g></svg>