<svg id="Capa_1" enable-background="new 0 0 512 512" height="512" viewBox="0 0 512 512" width="512" xmlns="http://www.w3.org/2000/svg"><g><path d="m397.391 318.941c-.974 1.969-2.913 3.288-5.105 3.491l-11.316 1.086c-4.394.416-7.053 5.064-5.166 9.063l4.861 10.362c.934 1.979.792 4.313-.396 6.15-34.363 53.23-83.158 92.088-137.433 113.35-4.942 1.948-9.925 3.735-14.949 5.379-22.357-69.243-17.699-149.083 19.201-221.494 12.889-25.311 28.832-47.962 47.069-67.691 1.837-1.989 4.516-2.974 7.195-2.598l1.299.183 10.717 1.502c4.597.639 8.809-2.639 9.306-7.246l1.857-17.243c.233-2.182 1.319-4.181 3.034-5.541 26.589-21.008 56.264-36.901 87.43-47.09 22.037 68.239 17.835 146.759-17.604 218.337z" fill="#f3eae6"/><path d="m305.648 229.349c0 85.684-23.017 165.605-62.81 233.093-4.942 1.948-9.925 3.735-14.949 5.379-22.357-69.243-17.699-149.083 19.201-221.494 12.889-25.311 28.832-47.962 47.069-67.691 1.837-1.989 4.516-2.974 7.195-2.598l1.299.183c1.98 17.414 2.995 35.144 2.995 53.128z" fill="#e1d3ce"/><g><g><path d="m209.254 512c-1.163 0-2.343-.268-3.449-.832-3.746-1.909-5.235-6.491-3.327-10.238l169.067-331.812c1.908-3.745 6.494-5.235 10.237-3.326 3.746 1.909 5.235 6.492 3.327 10.238l-169.067 331.812c-1.344 2.639-4.017 4.158-6.788 4.158z" fill="#918291"/></g></g><path d="m298.133 313.198-73.402 144.059c.99 3.544 2.03 7.071 3.158 10.564 3.487-1.141 6.952-2.355 10.4-3.64l41.549-81.545c7.812-22.337 13.959-45.541 18.295-69.438z" fill="#7a6d79"/><path d="m85.213 263.975c7.838 76.527 41.354 144.786 91.123 194.732 57.162-57.366 92.885-138.891 92.885-229.354 0-31.61-4.362-62.13-12.476-90.908-.818-2.902-2.981-5.233-5.831-6.215l-12.767-4.402c-4.877-1.681-7.394-7.065-5.559-11.885l6.869-18.04c.867-2.278.803-4.816-.215-7.032-15.744-34.267-37.149-65.022-62.906-90.871-56.332 56.533-91.843 136.528-92.862 225.418-.028 2.447 1.232 4.733 3.297 6.046l10.675 6.788c4.148 2.638 4.428 8.59.546 11.605l-10.06 7.812c-1.928 1.497-2.968 3.879-2.719 6.306z" fill="#f3eae6"/><g><g><path d="m176.336 511.998c-4.204 0-7.611-3.407-7.611-7.611v-414.485c0-4.204 3.408-7.612 7.611-7.612 4.204 0 7.612 3.407 7.612 7.612v414.485c-.001 4.204-3.409 7.611-7.612 7.611z" fill="#918291"/></g></g></g></svg>