<svg id="Capa_1" enable-background="new 0 0 512 512" height="512" viewBox="0 0 512 512" width="512" xmlns="http://www.w3.org/2000/svg"><g><path d="m460.853 237.398c0 63.833-51.746 115.579-115.569 115.579-35.965 0-68.085-16.43-89.284-42.186-21.2 25.756-53.319 42.186-89.284 42.186-63.823 0-115.568-51.746-115.568-115.579 0-48.58 29.978-90.157 72.449-107.247.761-45.059 24.021-84.637 59.022-107.978.03-.01.061-.03.091-.061 20.986-13.973 46.184-22.112 73.29-22.112 72.377 0 131.187 58.058 132.404 130.152 42.471 17.089 72.449 58.666 72.449 107.246z" fill="#f3eae6"/><g><path d="m460.853 237.398c0 63.833-51.746 115.579-115.569 115.579-35.965 0-68.085-16.43-89.284-42.186 6.688-7.368 59.124-67.152 44.957-150.002-10.849-63.366-56.557-116.289-118.846-138.26.173-.111.335-.233.507-.355.03-.01.061-.03.091-.061 20.987-13.974 46.185-22.113 73.291-22.113 72.377 0 131.187 58.058 132.404 130.152 42.471 17.089 72.449 58.666 72.449 107.246z" fill="#e1d3ce"/></g><g><path d="m348.151 512c-19.964 0-39.354-5.322-56.327-15.495-18.174-10.893-32.326-26.594-40.926-45.402-22.813-49.898 4.802-95.606 8.025-100.653 2.263-3.544 6.97-4.581 10.512-2.317 3.542 2.263 4.58 6.968 2.317 10.511-1.104 1.728-26.808 42.827-7.011 86.13 7.315 15.997 19.385 29.371 34.909 38.674 15.608 9.355 33.614 13.937 52.078 13.263 4.177-.135 7.731 3.126 7.886 7.327.154 4.201-3.126 7.731-7.327 7.886-1.379.05-2.76.076-4.136.076z" fill="#c68d7a"/></g><path d="m361.167 268.652c-19.112-3.775-39.154-1.658-57.216 6.35-2.358 1.045-5.04-.395-5.588-2.916-5.304-24.42-19.977-45.342-40.062-58.831-1.395-.937-3.206-.937-4.601 0-20.085 13.489-34.758 34.411-40.062 58.831-.548 2.52-3.23 3.961-5.588 2.916-18.062-8.008-38.104-10.126-57.216-6.35-1.615.319-2.837 1.625-3.155 3.24-5.912 30.099 2.769 62.495 26.089 85.814 22.397 22.397 53.167 31.286 82.233 26.716 29.065 4.57 59.835-4.319 82.233-26.716 23.32-23.319 32.001-55.715 26.089-85.814-.319-1.615-1.541-2.921-3.156-3.24z" fill="#d1a08f"/><g><path d="m364.322 271.893c-.325-1.655-1.607-2.937-3.262-3.262-11.117-2.181-22.546-2.364-33.716-.561.02.003.04.007.06.01 3.652.587 6.483 3.497 7.067 7.15 4.658 29.137-4.223 60.017-26.683 82.476-18.513 18.514-42.747 27.787-67.01 27.87 5.09.018 10.182-.361 15.222-1.153 29.065 4.57 59.835-4.319 82.233-26.717 23.319-23.319 32-55.715 26.089-85.813z" fill="#c68d7a"/></g></g></svg>