<svg id="Capa_1" enable-background="new 0 0 512 512" height="512" viewBox="0 0 512 512" width="512" xmlns="http://www.w3.org/2000/svg"><g><g><g><path d="m236.461 290.992c-3.955 0-7.91-1.509-10.927-4.526-6.035-6.034-6.035-15.819 0-21.853l236.746-236.747c6.034-6.034 15.819-6.034 21.853 0 6.035 6.034 6.035 15.819 0 21.853l-236.746 236.747c-3.017 3.017-6.971 4.526-10.926 4.526z" fill="#baafb9"/></g><circle cx="479.034" cy="32.966" fill="#cbc4cc" r="32.966"/></g><g><g><path d="m275.539 290.992c3.955 0 7.91-1.509 10.927-4.526 6.034-6.034 6.034-15.819 0-21.853l-236.746-236.747c-6.034-6.034-15.819-6.034-21.853 0-6.035 6.034-6.035 15.819 0 21.853l236.745 236.747c3.017 3.017 6.972 4.526 10.927 4.526z" fill="#baafb9"/></g><circle cx="32.966" cy="32.966" fill="#cbc4cc" r="32.966"/></g><ellipse cx="256" cy="312.66" fill="#f58a97" rx="199.34" ry="199.34" transform="matrix(.707 -.707 .707 .707 -146.103 272.595)"/><path d="m328.662 253.325c-59.458-39.565-133.452-68.288-216.251-78.921-26.652 27.673-45.38 63.026-52.532 102.418 59.213 1.384 113.978 14.032 161.011 34.363 79.027 33.82 136.665 88.896 169.459 148.735 26.489-24.181 46.421-55.415 56.846-90.729-29.41-43.28-69.031-83.256-118.533-115.866z" fill="#f8a6af"/><path d="m317.456 302.634c-40.163-26.46-75.001-41.197-100.866-51.081-43.51-16.613-89.336-27.762-136.25-33.185-2.515 4.675-4.844 9.465-6.988 14.354.733.336 1.528.567 2.373.661 46.629 5.147 92.168 16.118 135.351 32.606 25.13 9.603 58.965 23.914 97.88 49.55 43.996 28.975 81.274 64.548 110.796 105.732.582.813 1.295 1.475 2.086 1.986 2.987-4.471 5.789-9.074 8.414-13.791-30.299-41.534-68.218-77.475-112.796-106.832z" fill="#f58a97"/><path d="m352.926 138.446c-28.694-15.998-61.741-25.126-96.926-25.126-10.161 0-20.143.766-29.895 2.232-21.638 21.147-41.733 45.315-59.613 72.456-41.574 62.478-71.177 141.005-80.4 228.934 23.978 38.985 60.993 69.086 104.975 84.232-5.437-76.23 7.96-146.81 33.284-205.394 29.983-70.059 76.672-123.302 128.575-157.334z" fill="#f07281"/><path d="m293.258 116.817c-5.658-1.071-11.397-1.911-17.213-2.493-38.909 40.258-71.382 85.805-96.53 135.498-33.104 65.413-52.733 135.909-58.39 209.604 4.11 3.78 8.381 7.385 12.798 10.813 1.28-1.275 2.126-2.996 2.259-4.94 5.016-73.368 24.234-143.517 57.12-208.499 25.309-50.007 58.227-95.717 97.844-135.859 1.155-1.17 1.855-2.617 2.112-4.124z" fill="#f58a97"/><path d="m321.019 249.819c-46.624 70.066-78.186 160.319-82.839 261.379 5.872.521 11.813.802 17.82.802 32.399 0 62.989-7.736 90.034-21.452 4.113-48.476 15.765-93.445 32.844-132.956 17.492-40.872 40.671-76.02 67.252-104.972-10.477-33.209-29.416-62.655-54.284-85.826-25.927 23.548-49.895 51.251-70.827 83.025z" fill="#f07281"/><path d="m347.83 318.61c20.52-40.557 46.235-78.512 76.431-112.857-2.821-4.431-5.83-8.728-8.983-12.911-.443.323-.861.694-1.24 1.122-31.659 35.738-58.573 75.328-79.997 117.671-31.167 61.603-50.454 128.084-57.325 197.594-.057.572-.044 1.135.022 1.684 5.253-.544 10.448-1.28 15.572-2.222 6.856-66.856 25.527-130.798 55.52-190.081z" fill="#f58a97"/></g></svg>