<svg id="Capa_1" enable-background="new 0 0 512 512" height="512" viewBox="0 0 512 512" width="512" xmlns="http://www.w3.org/2000/svg"><g><path d="m144.591 306.392-21.519 21.526-25.583-25.594c-5.941-5.943-5.94-15.576.001-21.519 5.944-5.946 15.583-5.945 21.526.001z" fill="#b5adb6"/><path d="m360.877 364.219h-83.667v-29.221c0-4.453 3.61-8.063 8.063-8.063h67.541c4.453 0 8.063 3.61 8.063 8.063z" fill="#b5adb6"/><path d="m504.078 372.312c-16.433-56.401-32.866-112.801-49.299-169.202-3.206-11.003-13.667-18.252-25.101-17.418-55.186 4.029-128.31 17.074-205.477 54.497-30.008 14.553-56.05 30.572-78.303 46.359-43.917 33.156-80.643 74.88-107.954 122.643l-7.704 13.473-12.118 16.323 431.307-16.323 5.866-12.55c6.982-14.938 21.984-24.483 38.478-24.483 6.968 0 12.057-6.579 10.305-13.319zm-85.388-20.545-150.469 9.891c-21.093 1.387-38.965-15.342-38.965-36.473 0-13.283 7.197-25.529 18.821-31.964 17.061-9.445 36.394-18.927 57.969-27.67 32.175-13.038 62.175-21.532 88.315-27.147 8.565-1.84 17.042 3.434 19.112 11.943l19.829 81.524c2.368 9.728-4.617 19.239-14.612 19.896z" fill="#fee97d"/><g><path d="m504.078 372.312c-16.433-56.401-32.866-112.801-49.299-169.202-3.196-10.969-13.609-18.253-25.004-17.425-1.941.141-3.91.297-5.896.461 16.061 55.123 32.121 110.245 48.181 165.366 1.75 6.732-3.325 13.302-10.278 13.319-16.164.038-31.078 8.596-37.922 23.24-3.947 8.444-12.352 13.909-21.672 14.089-121.415 2.344-242.829 4.688-364.243 7.032-2.568 4.491-5.136 8.981-7.704 13.473l-12.118 16.323 431.308-16.323 6.447-13.792c6.845-14.644 21.759-23.202 37.924-23.241 6.952-.018 12.026-6.588 10.276-13.32z" fill="#fedf30"/></g><path d="m452.111 457.933h-452.111c0-19.478 15.79-35.269 35.269-35.269h416.842c9.739 0 17.634 7.895 17.634 17.634 0 9.74-7.895 17.635-17.634 17.635z" fill="#b5adb6"/><path d="m452.111 422.664h-30.448c9.739 0 17.634 7.895 17.634 17.634 0 9.74-7.895 17.635-17.634 17.635h30.448c9.739 0 17.634-7.895 17.634-17.635 0-9.738-7.895-17.634-17.634-17.634z" fill="#a79ba7"/><g><path d="m260.89 361.404c-.001-.001-.003-.001-.004-.001-17.74-2.393-31.629-17.591-31.629-36.218 0-13.283 7.197-25.529 18.821-31.964 17.061-9.445 36.394-18.927 57.969-27.67 32.175-13.038 62.175-21.532 88.315-27.147 4.141-.889 8.256-.104 11.642 1.895.004-.001.009-.002.013-.003-12.726-16.69-23.274-18.562-28.119-18.678-2.456-.059-6.297.497-13.985 1.562-20.918 2.896-31.698 4.203-88.315 27.147-21.576 8.743-40.909 18.225-57.969 27.67-2.906 1.609-5.536 3.581-7.845 5.841-10.073 9.86-12.744 24.954-7.712 38.121 1.712 4.479 4.177 9.347 7.753 14.148 17.488 23.483 46.448 25.112 51.065 25.297z" fill="#fedf30"/></g><g><g><circle cx="431.35" cy="134.717" fill="#fff" r="73.076"/><path d="m431.35 215.367c-20.663 0-41.325-7.866-57.056-23.596-31.459-31.46-31.459-82.649 0-114.11 31.461-31.461 82.651-31.46 114.11-.001 31.46 31.461 31.46 82.65.001 114.111-15.73 15.731-36.392 23.596-57.055 23.596zm0-146.083c-16.766 0-33.527 6.379-46.29 19.143-25.524 25.524-25.524 67.055 0 92.579 25.524 25.526 67.056 25.526 92.58 0 25.524-25.523 25.524-67.055 0-92.579-12.76-12.761-29.528-19.143-46.29-19.143z" fill="#f58a97"/></g><g><path d="m379.677 194.001c-1.949 0-3.896-.743-5.383-2.229-2.973-2.973-2.973-7.792 0-10.766l103.346-103.345c2.974-2.972 7.793-2.97 10.766 0 2.973 2.974 2.973 7.793 0 10.766l-103.346 103.345c-1.487 1.486-3.435 2.229-5.383 2.229z" fill="#f58a97"/></g></g></g></svg>