<svg id="Capa_1" enable-background="new 0 0 512 512" height="512" viewBox="0 0 512 512" width="512" xmlns="http://www.w3.org/2000/svg"><g><g><path d="m417.347 391.461c2.06 0 3.803-1.52 4.083-3.561l4.4-32.078c2.365-17.206 9.944-33.274 21.715-46.045l3.763-4.083c11.933-12.946 21.459-27.917 28.13-44.21l31.058-75.848c5.357-13.083-4.265-27.421-18.402-27.421h-.428c-6.541 0-12.585 3.052-16.401 8.227-9.295 12.604-26.784 36.317-34.414 46.663-1.18 1.6-3.718.765-3.718-1.223v-22.004-117.975c0-11.152-9.042-20.192-20.196-20.192-11.154 0-20.196 9.04-20.196 20.192v97.783-132.22c0-10.95-8.515-20.277-19.459-20.666-11.489-.408-20.932 8.783-20.932 20.179v132.706-97.782c0-11.152-9.04-20.192-20.192-20.192h-.007c-11.152 0-20.192 9.04-20.192 20.192v97.784-62.339c0-10.715-8.133-19.963-18.826-20.669-6.113-.404-11.696 1.918-15.641 5.878-3.662 3.648-5.924 8.696-5.924 14.269v89.561c0 9.059 1.505 18.055 4.454 26.621l20.796 60.4c3.077 8.937 4.648 18.324 4.648 27.777v76.155c0 2.276 1.845 4.121 4.121 4.121z" fill="#fed2a4"/><g fill="#ffbd86"><path d="m437.133 222.272v-149.829c0-11.108-9.081-20.729-20.189-20.733-4.201-.001-8.102 1.282-11.334 3.475 5.351 3.632 8.868 9.763 8.868 16.716v117.976 32.394c0 6.256 5.072 11.328 11.327 11.328 6.257.001 11.328-5.071 11.328-11.327z"/><path d="m396.742 168.744v-131.255c0-10.832-8.321-20.121-19.139-20.674-4.635-.237-8.936 1.106-12.451 3.515 5.412 3.756 8.935 10.104 8.935 17.136v131.278c0 6.256 5.072 11.328 11.328 11.328 6.255-.001 11.327-5.072 11.327-11.328z"/><path d="m356.351 172.817v-100.349c0-10.832-8.321-20.121-19.139-20.674-4.635-.237-8.937 1.106-12.451 3.515 5.412 3.755 8.935 10.104 8.935 17.136v100.372c0 6.256 5.072 11.327 11.327 11.327 6.257.001 11.328-5.071 11.328-11.327z"/><path d="m315.958 176.778v-69.444c0-10.832-8.321-20.121-19.139-20.674-4.635-.237-8.937 1.106-12.451 3.515 5.412 3.756 8.935 10.104 8.935 17.136v69.466c0 6.256 5.072 11.328 11.328 11.328 6.255 0 11.327-5.071 11.327-11.327z"/><path d="m492.094 158.215h-.428c-4.069 0-7.944 1.182-11.212 3.32 7.476 4.998 11.171 14.859 7.387 24.1l-31.058 75.849c-6.671 16.293-16.198 31.264-28.13 44.21l-3.763 4.083c-11.772 12.771-19.35 28.84-21.716 46.045l-4.4 32.079c-.28 2.04-2.023 3.56-4.083 3.56h22.655c2.059 0 3.803-1.52 4.083-3.56l4.4-32.079c2.365-17.205 9.944-33.274 21.716-46.045l3.763-4.083c11.933-12.945 21.459-27.917 28.13-44.21l31.058-75.849c5.358-13.083-4.264-27.42-18.402-27.42z"/></g></g><g><path d="m94.653 391.461c-2.06 0-3.803-1.52-4.083-3.561l-4.4-32.078c-2.365-17.206-9.944-33.274-21.715-46.045l-3.763-4.083c-11.933-12.946-21.459-27.917-28.13-44.21l-31.059-75.848c-5.357-13.083 4.265-27.421 18.402-27.421h.428c6.541 0 12.584 3.052 16.401 8.227 9.295 12.604 26.784 36.317 34.414 46.663 1.18 1.6 3.718.765 3.718-1.223v-22.004-117.975c0-11.152 9.042-20.192 20.196-20.192 11.154 0 20.196 9.04 20.196 20.192v97.783-132.22c0-10.95 8.515-20.277 19.459-20.666 11.489-.408 20.932 8.783 20.932 20.179v132.706-97.782c0-11.152 9.04-20.192 20.192-20.192h.007c11.152 0 20.192 9.04 20.192 20.192v97.784-62.339c0-10.715 8.133-19.963 18.826-20.669 6.113-.404 11.696 1.918 15.641 5.878 3.662 3.648 5.924 8.696 5.924 14.269v89.561c0 9.059-1.505 18.055-4.454 26.621l-20.796 60.4c-3.077 8.937-4.648 18.324-4.648 27.777v76.155c0 2.276-1.845 4.121-4.121 4.121z" fill="#fed2a4"/><g fill="#ffbd86"><path d="m115.258 71.903c0-11.151-9.042-20.192-20.196-20.192-4.2 0-8.098 1.283-11.329 3.476 5.351 3.632 8.867 9.763 8.867 16.716v104.011c0 6.256 5.072 11.327 11.328 11.327s11.327-5.071 11.327-11.327z"/><path d="m155.649 71.903v-34.923c0-11.396-9.443-20.587-20.932-20.179-3.945.14-7.565 1.455-10.594 3.575 5.375 3.761 8.872 10.085 8.872 17.09v131.278c0 6.256 5.072 11.328 11.328 11.328 6.256 0 11.327-5.072 11.327-11.328z"/><path d="m196.04 107.347v-35.444c0-11.151-9.04-20.192-20.192-20.192h-.007c-3.903 0-7.534 1.126-10.622 3.043-.303.227-.563.417-.765.556 5.412 3.756 8.935 10.104 8.935 17.136v100.372c0 6.256 5.072 11.327 11.328 11.327s11.327-5.071 11.327-11.327z"/><path d="m214.866 86.678c-3.565.235-6.835 1.437-9.624 3.309-.078.066-.156.135-.233.188 5.412 3.756 8.935 10.104 8.935 17.136v69.466c0 6.256 5.071 11.327 11.327 11.327 5.618 0 10.267-4.094 11.161-9.458v-71.822c0-5.573-2.262-10.621-5.924-14.269-3.946-3.958-9.529-6.281-15.642-5.877z"/></g></g><g><path d="m171.611 304.888-31.446 23.729c-3.188 2.406-7.729 1.67-10.002-1.621l-28.527-41.305c-1.81-2.621-1.646-6.135.4-8.574l48.479-57.795z" fill="#978ecb"/><path d="m337.633 304.888 31.446 23.729c3.188 2.406 7.729 1.67 10.002-1.621l28.527-41.305c1.81-2.621 1.646-6.135-.4-8.574l-48.479-57.795z" fill="#978ecb"/><path d="m171.611 488.151v-179.818c0-2.288-.277-4.568-.824-6.788l-20.27-82.223 51.369-21.185h105.473l51.369 21.185-20.27 82.223c-.547 2.221-.824 4.5-.824 6.788v179.818c0 3.9-3.148 7.062-7.032 7.062h-151.959c-3.884-.001-7.032-3.162-7.032-7.062z" fill="#aca6d6"/><path d="m307.359 198.137h-105.473l-.215.089c.438 18.68 23.969 33.739 52.952 33.739 28.982 0 52.514-15.059 52.952-33.739z" fill="#978ecb"/></g></g></svg>