<svg id="Capa_1" enable-background="new 0 0 512 512" height="512" viewBox="0 0 512 512" width="512" xmlns="http://www.w3.org/2000/svg"><g><path d="m367.919 47.39v75.331h58.448c5.69 0 10.302 4.612 10.302 10.302v224.833c0 32.14 26.055 58.194 58.195 58.194h6.835c5.69 0 10.302-4.612 10.302-10.302v-285.846c0-40.048-32.465-72.512-72.512-72.512z" fill="#eaf6ff"/><path d="m329.638 512h-234.58c-22.758 0-41.207-18.449-41.207-41.207v-387.652c0-4.744-1.637-9.343-4.635-13.02l-47.58-58.353c-3.841-4.71-.489-11.768 5.589-11.768h353.318c5.689 0 10.302 4.612 10.302 10.302v168.596 7.17 8.123 31.062 8.029 7.267 30.905 7.726 7.726 30.905l-6.951 8.31 6.951 7.143v30.905l-6.441 7.315 6.441 8.138v30.905l-6.185 7.014 6.185 8.227v31.487l-5.505 6.575 5.505 6.962c0 22.759-18.449 41.208-41.207 41.208z" fill="#eaf6ff"/><path d="m360.543 0h-20.604v298.046c0 109.629-88.872 198.501-198.501 198.501h-77.285c-.428 0-.852-.019-1.277-.032 7.552 9.436 19.157 15.485 32.182 15.485h234.579c22.758 0 41.207-18.449 41.207-41.207v-460.491c.001-5.69-4.611-10.302-10.301-10.302z" fill="#d8ecfe"/><g><path d="m370.84 146.29v32.447l-5.202 7.726 5.202 7.726v30.905l-5.032 7.726 5.032 7.726v30.905l-4.266 7.726 4.266 7.726v30.905l-5.798 7.218 5.798 8.235v30.905l-5.287 7.298 5.287 8.155v30.905l-4.776 7.726 4.776 7.726v31.259l-5.117 6.772 5.117 6.777c0 .452-.007.902-.022 1.35-.712 22.135-18.87 39.86-41.178 39.86h-234.58c-13.01 0-24.61-6.03-32.16-15.45-5.67-7.05-9.05-16.01-9.05-25.76v-324.5c26.42-.01 26.42-12.37 52.84-12.37 26.41 0 26.41 12.37 52.83 12.37s26.42-12.37 52.83-12.37c26.42 0 26.42 12.37 52.84 12.37 26.41 0 26.41-12.37 52.83-12.37 10.26 0 16.53 1.87 21.92 4.14 1.54.66 3.02 1.35 4.49 2.04 6.6 3.106 13.21 6.196 26.41 6.196z" fill="#b3dafe"/><path d="m370.84 146.29v32.447l-7.67 7.491 7.67 7.961v30.905l-5.627 7.582 5.627 7.87v30.905l-4.223 8.392 4.223 7.06v30.905l-4.861 7.726 4.861 7.726v30.905l-3.585 7.951 3.585 7.502v30.905l-4.095 7.726 4.095 7.726v30.903l-4.095 7.726s4.09 7.277 4.079 7.668c-.623 22.222-18.818 39.728-41.184 39.728h-234.58c-13.01 0-24.61-6.03-32.16-15.45h78.54c109.63 0 198.5-88.88 198.5-198.5v-159.99c1.54.66 3.02 1.35 4.49 2.04 6.6 3.1 13.21 6.19 26.41 6.19z" fill="#8ac9fe"/><g fill="#faf7f7"><path d="m370.845 178.737h-44.137c-4.268 0-7.726 3.459-7.726 7.726 0 4.268 3.459 7.726 7.726 7.726h44.137z"/><path d="m370.845 225.096h-75.042c-4.268 0-7.726 3.459-7.726 7.726 0 4.268 3.459 7.726 7.726 7.726h75.042z"/><path d="m370.845 271.454h-44.137c-4.268 0-7.726 3.459-7.726 7.726 0 4.268 3.459 7.726 7.726 7.726h44.137z"/><path d="m370.845 317.812h-75.042c-4.268 0-7.726 3.459-7.726 7.726 0 4.268 3.459 7.726 7.726 7.726h75.042z"/><path d="m370.845 364.17h-44.137c-4.268 0-7.726 3.459-7.726 7.726 0 4.268 3.459 7.726 7.726 7.726h44.137z"/><path d="m370.845 410.528h-75.042c-4.268 0-7.726 3.459-7.726 7.726 0 4.268 3.459 7.726 7.726 7.726h75.042z"/><path d="m369.896 456.884h-43.185c-4.267 0-7.726 3.459-7.726 7.726 0 4.268 3.459 7.726 7.726 7.726h43.185c.309 0 .612-.024.911-.059 0 0 .037-15.33.037-15.33-.311-.037-.626-.063-.948-.063z"/></g></g></g></svg>