<svg id="Capa_1" enable-background="new 0 0 512 512" height="512" viewBox="0 0 512 512" width="512" xmlns="http://www.w3.org/2000/svg"><g><path d="m335.234 211.899-123.702 122.682c-5.099 5.056-13.365 5.056-18.463 0l-189.245-187.685c-5.098-5.056-5.098-13.254 0-18.311l123.702-122.682c5.098-5.056 13.365-5.056 18.463 0l189.245 187.685c5.098 5.056 5.098 13.254 0 18.311z" fill="#f3eae6"/><path d="m335.234 193.588-189.245-187.685c-5.098-5.057-13.365-5.057-18.463 0l-6.221 6.169c34.818 34.545 69.637 69.09 104.456 103.635 48.324 47.944 48.338 126.076.032 174.038-12.981 12.889-25.963 25.777-38.944 38.666l6.221 6.169c5.098 5.056 13.365 5.056 18.463 0l123.702-122.682c5.097-5.056 5.097-13.254-.001-18.31z" fill="#e1d3ce"/><path d="m496.785 494.8c-22.5 22.314-59.757 19.503-78.593-5.931l-74.985-101.247c-27.332-36.905-67.422-62.523-112.603-71.957l85.558-84.852c9.512 44.808 35.343 84.567 72.555 111.674l102.088 74.367c25.645 18.682 28.479 55.632 5.98 77.946z" fill="#d1a08f"/><path d="m490.805 416.855-102.088-74.367c-37.212-27.107-63.043-66.866-72.555-111.674l-24.114 23.915c12.506 34.944 35.324 65.586 65.763 87.76l102.088 74.367c25.645 18.681 28.479 55.631 5.98 77.945-6.195 6.144-13.512 10.372-21.251 12.759 17.68 5.426 37.885 1.395 52.157-12.759 22.499-22.315 19.665-59.265-5.98-77.946z" fill="#c68d7a"/><path d="m471.902 456.389c3.824 3.792 3.824 9.941 0 13.733s-10.023 3.792-13.847 0-3.824-9.941 0-13.733c3.823-3.792 10.023-3.792 13.847 0z" fill="#fff"/><path d="m95.45 37.714-59.55 59.059-18.463-18.31c-5.098-5.056-5.098-13.255 0-18.311l41.087-40.748c5.098-5.056 13.365-5.056 18.463 0z" fill="#d1a08f"/><path d="m76.987 19.404c-5.098-5.056-13.364-5.056-18.463 0l-12.934 12.827c5.129-4.225 12.751-3.958 17.559.81l18.463 18.311-45.756 45.378 59.594-59.016z" fill="#c68d7a"/><g fill="#ceb5ae"><path d="m83.464 225.879 15.453 15.325v-206.928l-15.453 15.325z"/><path d="m161.803 303.573 15.453 15.324v-281.985l-15.453-15.325z"/><path d="m240.141 306.208 15.453-15.326v-176.278l-15.453-15.325z"/></g></g></svg>